%TF.GenerationSoftware,KiCad,Pcbnew,10.0.1-10.0.1~ubuntu22.04.1*%
%TF.CreationDate,2026-05-31T12:36:50-04:00*%
%TF.ProjectId,BMI088-BOB,466c6967-6874-4436-9f72-655043422e6b,v1.0*%
%TF.SameCoordinates,Original*%
%TF.FileFunction,Legend,Bot*%
%TF.FilePolarity,Positive*%
%FSLAX46Y46*%
G04 Gerber Fmt 4.6, Leading zero omitted, Abs format (unit mm)*
G04 Created by KiCad (PCBNEW 10.0.1-10.0.1~ubuntu22.04.1) date 2026-05-31 12:36:50*
%MOMM*%
%LPD*%
G01*
G04 APERTURE LIST*
%ADD10C,0.200000*%
%ADD11C,0.000000*%
G04 APERTURE END LIST*
D10*
G36*
X98883862Y-52660844D02*
G01*
X98707580Y-52660844D01*
X98707580Y-53630000D01*
X98883862Y-53630000D01*
X98883862Y-52660844D01*
G37*
G36*
X97822138Y-53630000D02*
G01*
X97928506Y-53458236D01*
X98050200Y-53273100D01*
X98178244Y-53092177D01*
X98302015Y-52934396D01*
X98302015Y-53630000D01*
X98475488Y-53630000D01*
X98475488Y-52660844D01*
X98331385Y-52660844D01*
X98275187Y-52723010D01*
X98211095Y-52800307D01*
X98081707Y-52967857D01*
X97955800Y-53142369D01*
X97847356Y-53305645D01*
X97847356Y-52660844D01*
X97672479Y-52660844D01*
X97672479Y-53630000D01*
X97822138Y-53630000D01*
G37*
G36*
X96764200Y-52660844D02*
G01*
X96764200Y-52813251D01*
X97062177Y-52813251D01*
X97062177Y-53630000D01*
X97239863Y-53630000D01*
X97239863Y-52813251D01*
X97537840Y-52813251D01*
X97537840Y-52660844D01*
X96764200Y-52660844D01*
G37*
G36*
X96073176Y-52911803D02*
G01*
X96078371Y-52961392D01*
X96094181Y-53010478D01*
X96117904Y-53057717D01*
X96148037Y-53104328D01*
X96182878Y-53148763D01*
X96222897Y-53192500D01*
X96306795Y-53275786D01*
X96357231Y-53325795D01*
X96410354Y-53384108D01*
X96453707Y-53440284D01*
X96468446Y-53466842D01*
X96473307Y-53485408D01*
X96042402Y-53485408D01*
X96042402Y-53630000D01*
X96659359Y-53630000D01*
X96660764Y-53602705D01*
X96660764Y-53578220D01*
X96655207Y-53512853D01*
X96639087Y-53454328D01*
X96614052Y-53399485D01*
X96582423Y-53348632D01*
X96545426Y-53301117D01*
X96504082Y-53256247D01*
X96417315Y-53170823D01*
X96352957Y-53107869D01*
X96299101Y-53046931D01*
X96278073Y-53016123D01*
X96262037Y-52985382D01*
X96251528Y-52953252D01*
X96248054Y-52920291D01*
X96253388Y-52873757D01*
X96267704Y-52840384D01*
X96290064Y-52816732D01*
X96319395Y-52799884D01*
X96353074Y-52789517D01*
X96392158Y-52785896D01*
X96430415Y-52788730D01*
X96464942Y-52796948D01*
X96524354Y-52823143D01*
X96569844Y-52854162D01*
X96599214Y-52879685D01*
X96683173Y-52760800D01*
X96619888Y-52711071D01*
X96545420Y-52671407D01*
X96491796Y-52652626D01*
X96435304Y-52641255D01*
X96375366Y-52637397D01*
X96296825Y-52642854D01*
X96234483Y-52657795D01*
X96185237Y-52680687D01*
X96146632Y-52710914D01*
X96115321Y-52749721D01*
X96092532Y-52795197D01*
X96078234Y-52848646D01*
X96073176Y-52911803D01*
G37*
G36*
X98883862Y-55160844D02*
G01*
X98707580Y-55160844D01*
X98707580Y-56130000D01*
X98883862Y-56130000D01*
X98883862Y-55160844D01*
G37*
G36*
X97822138Y-56130000D02*
G01*
X97928506Y-55958236D01*
X98050200Y-55773100D01*
X98178244Y-55592177D01*
X98302015Y-55434396D01*
X98302015Y-56130000D01*
X98475488Y-56130000D01*
X98475488Y-55160844D01*
X98331385Y-55160844D01*
X98275187Y-55223010D01*
X98211095Y-55300307D01*
X98081707Y-55467857D01*
X97955800Y-55642369D01*
X97847356Y-55805645D01*
X97847356Y-55160844D01*
X97672479Y-55160844D01*
X97672479Y-56130000D01*
X97822138Y-56130000D01*
G37*
G36*
X96764200Y-55160844D02*
G01*
X96764200Y-55313251D01*
X97062177Y-55313251D01*
X97062177Y-56130000D01*
X97239863Y-56130000D01*
X97239863Y-55313251D01*
X97537840Y-55313251D01*
X97537840Y-55160844D01*
X96764200Y-55160844D01*
G37*
G36*
X96620219Y-55362222D02*
G01*
X96539876Y-55326002D01*
X96457248Y-55279729D01*
X96379813Y-55224586D01*
X96312412Y-55160844D01*
X96193527Y-55160844D01*
X96193527Y-56130000D01*
X96362787Y-56130000D01*
X96362787Y-55387379D01*
X96403667Y-55415307D01*
X96457920Y-55444715D01*
X96515133Y-55470620D01*
X96568440Y-55490877D01*
X96620219Y-55362222D01*
G37*
G36*
X98430608Y-57793712D02*
G01*
X98504460Y-57800147D01*
X98565695Y-57818233D01*
X98616747Y-57847005D01*
X98659342Y-57886707D01*
X98692396Y-57934908D01*
X98717015Y-57992663D01*
X98732735Y-58061841D01*
X98738354Y-58144750D01*
X98733464Y-58221018D01*
X98719487Y-58288060D01*
X98695556Y-58349297D01*
X98663494Y-58399251D01*
X98622052Y-58440211D01*
X98571170Y-58471303D01*
X98512778Y-58490353D01*
X98441782Y-58497131D01*
X98362037Y-58493895D01*
X98308853Y-58485408D01*
X98308853Y-58137606D01*
X98132632Y-58137606D01*
X98132632Y-58602644D01*
X98175559Y-58615614D01*
X98255792Y-58632991D01*
X98345853Y-58645124D01*
X98455826Y-58649539D01*
X98525128Y-58645649D01*
X98588777Y-58634336D01*
X98647496Y-58615956D01*
X98702928Y-58589860D01*
X98751904Y-58557256D01*
X98795080Y-58517953D01*
X98831987Y-58472619D01*
X98863471Y-58420173D01*
X98889480Y-58359745D01*
X98907642Y-58296361D01*
X98919064Y-58224870D01*
X98923063Y-58144139D01*
X98918669Y-58063608D01*
X98906088Y-57992151D01*
X98885999Y-57928595D01*
X98857723Y-57868286D01*
X98823921Y-57815584D01*
X98784577Y-57769715D01*
X98739231Y-57729820D01*
X98689048Y-57696996D01*
X98633513Y-57670980D01*
X98574853Y-57652428D01*
X98513455Y-57641199D01*
X98448804Y-57637397D01*
X98383476Y-57639781D01*
X98329187Y-57646372D01*
X98238939Y-57666400D01*
X98176657Y-57689848D01*
X98142402Y-57707739D01*
X98195586Y-57852330D01*
X98240674Y-57830442D01*
X98299816Y-57810748D01*
X98363142Y-57798034D01*
X98430608Y-57793712D01*
G37*
G36*
X97275034Y-58630000D02*
G01*
X97381402Y-58458236D01*
X97503096Y-58273100D01*
X97631140Y-58092177D01*
X97754911Y-57934396D01*
X97754911Y-58630000D01*
X97928384Y-58630000D01*
X97928384Y-57660844D01*
X97784281Y-57660844D01*
X97728083Y-57723010D01*
X97663991Y-57800307D01*
X97534603Y-57967857D01*
X97408696Y-58142369D01*
X97300252Y-58305645D01*
X97300252Y-57660844D01*
X97125375Y-57660844D01*
X97125375Y-58630000D01*
X97275034Y-58630000D01*
G37*
G36*
X96750095Y-57653272D02*
G01*
X96824377Y-57660286D01*
X96892794Y-57672568D01*
X96892794Y-58618276D01*
X96824575Y-58630075D01*
X96751500Y-58637144D01*
X96618571Y-58641723D01*
X96536896Y-58638201D01*
X96462298Y-58628014D01*
X96394050Y-58611620D01*
X96328554Y-58587416D01*
X96271032Y-58556539D01*
X96220577Y-58519052D01*
X96176515Y-58474398D01*
X96139522Y-58422780D01*
X96109385Y-58363408D01*
X96088237Y-58300078D01*
X96074886Y-58227446D01*
X96070222Y-58144689D01*
X96254832Y-58144689D01*
X96260971Y-58226094D01*
X96278196Y-58294059D01*
X96305367Y-58350962D01*
X96342271Y-58398640D01*
X96388492Y-58436340D01*
X96446265Y-58464529D01*
X96518137Y-58482723D01*
X96607397Y-58489316D01*
X96675968Y-58488339D01*
X96716512Y-58485408D01*
X96716512Y-57805436D01*
X96604588Y-57801528D01*
X96514321Y-57808048D01*
X96442385Y-57825951D01*
X96385258Y-57853510D01*
X96340195Y-57890127D01*
X96304431Y-57936627D01*
X96277884Y-57993091D01*
X96260919Y-58061571D01*
X96254832Y-58144689D01*
X96070222Y-58144689D01*
X96070184Y-58144017D01*
X96074922Y-58058668D01*
X96088308Y-57985160D01*
X96109385Y-57921817D01*
X96139579Y-57862512D01*
X96176576Y-57811385D01*
X96220577Y-57767578D01*
X96270963Y-57731017D01*
X96328265Y-57701094D01*
X96393379Y-57677880D01*
X96461088Y-57662217D01*
X96535006Y-57652484D01*
X96615823Y-57649120D01*
X96750095Y-57653272D01*
G37*
G36*
X98648839Y-60997131D02*
G01*
X98585782Y-60992774D01*
X98541148Y-60981440D01*
X98510354Y-60965013D01*
X98486397Y-60940791D01*
X98472044Y-60911075D01*
X98467001Y-60874094D01*
X98470849Y-60840927D01*
X98481716Y-60814010D01*
X98499127Y-60790514D01*
X98523665Y-60768581D01*
X98552921Y-60749589D01*
X98590160Y-60730846D01*
X98679614Y-60696591D01*
X98776884Y-60656779D01*
X98821294Y-60632245D01*
X98859438Y-60602923D01*
X98891485Y-60567772D01*
X98916774Y-60526048D01*
X98932703Y-60478360D01*
X98938450Y-60418398D01*
X98932375Y-60354244D01*
X98915056Y-60299653D01*
X98886996Y-60252727D01*
X98847531Y-60212196D01*
X98800482Y-60180817D01*
X98744692Y-60157508D01*
X98678501Y-60142679D01*
X98599869Y-60137397D01*
X98511809Y-60142762D01*
X98438302Y-60157730D01*
X98371879Y-60180174D01*
X98327049Y-60201755D01*
X98381638Y-60344515D01*
X98431050Y-60321174D01*
X98485868Y-60303848D01*
X98543194Y-60293340D01*
X98602677Y-60289804D01*
X98649450Y-60293523D01*
X98685780Y-60303646D01*
X98713869Y-60319174D01*
X98735946Y-60341256D01*
X98749124Y-60368206D01*
X98753742Y-60401606D01*
X98750269Y-60432170D01*
X98740491Y-60456866D01*
X98724708Y-60478329D01*
X98702695Y-60498082D01*
X98645359Y-60531605D01*
X98573307Y-60560975D01*
X98450881Y-60612021D01*
X98400375Y-60640883D01*
X98359961Y-60673510D01*
X98327270Y-60712258D01*
X98303297Y-60757407D01*
X98288950Y-60808650D01*
X98283696Y-60874155D01*
X98289929Y-60938190D01*
X98307650Y-60992197D01*
X98336338Y-61038209D01*
X98376753Y-61077548D01*
X98424332Y-61106977D01*
X98483782Y-61129486D01*
X98557619Y-61144192D01*
X98648839Y-61149539D01*
X98707714Y-61147523D01*
X98758688Y-61141845D01*
X98846859Y-61123039D01*
X98913293Y-61100019D01*
X98958051Y-61078342D01*
X98906271Y-60934605D01*
X98864792Y-60954231D01*
X98804178Y-60976310D01*
X98736172Y-60991514D01*
X98648839Y-60997131D01*
G37*
G36*
X97985964Y-60153272D02*
G01*
X98060246Y-60160286D01*
X98128663Y-60172568D01*
X98128663Y-61118276D01*
X98060444Y-61130075D01*
X97987369Y-61137144D01*
X97854439Y-61141723D01*
X97772765Y-61138201D01*
X97698167Y-61128014D01*
X97629919Y-61111620D01*
X97564423Y-61087416D01*
X97506901Y-61056539D01*
X97456446Y-61019052D01*
X97412383Y-60974398D01*
X97375390Y-60922780D01*
X97345254Y-60863408D01*
X97324106Y-60800078D01*
X97310755Y-60727446D01*
X97306091Y-60644689D01*
X97490701Y-60644689D01*
X97496840Y-60726094D01*
X97514064Y-60794059D01*
X97541236Y-60850962D01*
X97578140Y-60898640D01*
X97624361Y-60936340D01*
X97682134Y-60964529D01*
X97754006Y-60982723D01*
X97843265Y-60989316D01*
X97911837Y-60988339D01*
X97952381Y-60985408D01*
X97952381Y-60305436D01*
X97840457Y-60301528D01*
X97750189Y-60308048D01*
X97678254Y-60325951D01*
X97621127Y-60353510D01*
X97576064Y-60390127D01*
X97540300Y-60436627D01*
X97513753Y-60493091D01*
X97496788Y-60561571D01*
X97490701Y-60644689D01*
X97306091Y-60644689D01*
X97306053Y-60644017D01*
X97310791Y-60558668D01*
X97324177Y-60485160D01*
X97345254Y-60421817D01*
X97375447Y-60362512D01*
X97412444Y-60311385D01*
X97456446Y-60267578D01*
X97506832Y-60231017D01*
X97564134Y-60201094D01*
X97629248Y-60177880D01*
X97696956Y-60162217D01*
X97770875Y-60152484D01*
X97851692Y-60149120D01*
X97985964Y-60153272D01*
G37*
G36*
X96743186Y-60141029D02*
G01*
X96803196Y-60151779D01*
X96860860Y-60169576D01*
X96915528Y-60194595D01*
X96965504Y-60226648D01*
X97011252Y-60266051D01*
X97050991Y-60311475D01*
X97085265Y-60364076D01*
X97114078Y-60424687D01*
X97134488Y-60488648D01*
X97147317Y-60561142D01*
X97151814Y-60643468D01*
X97147328Y-60725788D01*
X97134508Y-60798543D01*
X97114078Y-60862981D01*
X97085311Y-60924105D01*
X97051486Y-60976676D01*
X97012657Y-61021617D01*
X96967793Y-61060482D01*
X96918065Y-61092335D01*
X96862936Y-61117421D01*
X96804825Y-61135165D01*
X96744126Y-61145904D01*
X96680364Y-61149539D01*
X96616608Y-61145896D01*
X96556138Y-61135150D01*
X96498464Y-61117421D01*
X96443771Y-61092365D01*
X96394279Y-61060518D01*
X96349476Y-61021617D01*
X96310670Y-60976647D01*
X96277072Y-60924079D01*
X96248726Y-60862981D01*
X96228668Y-60798577D01*
X96216072Y-60725820D01*
X96211662Y-60643468D01*
X96396310Y-60643468D01*
X96401409Y-60720696D01*
X96415910Y-60787693D01*
X96440389Y-60848600D01*
X96472575Y-60897786D01*
X96513638Y-60937971D01*
X96562822Y-60968128D01*
X96618279Y-60986774D01*
X96681707Y-60993224D01*
X96746368Y-60986741D01*
X96802058Y-60968128D01*
X96851191Y-60937975D01*
X96892245Y-60897786D01*
X96924430Y-60848600D01*
X96948909Y-60787693D01*
X96963410Y-60720696D01*
X96968510Y-60643468D01*
X96963396Y-60566330D01*
X96948909Y-60499975D01*
X96924498Y-60439534D01*
X96892245Y-60389883D01*
X96851138Y-60349102D01*
X96802058Y-60318808D01*
X96746368Y-60300194D01*
X96681707Y-60293712D01*
X96618279Y-60300162D01*
X96562822Y-60318808D01*
X96513643Y-60348977D01*
X96472575Y-60389211D01*
X96440392Y-60438345D01*
X96415910Y-60499242D01*
X96401409Y-60566240D01*
X96396310Y-60643468D01*
X96211662Y-60643468D01*
X96216166Y-60561145D01*
X96229015Y-60488651D01*
X96249459Y-60424687D01*
X96278133Y-60363983D01*
X96311950Y-60311387D01*
X96350881Y-60266051D01*
X96395732Y-60226714D01*
X96445223Y-60194653D01*
X96499869Y-60169576D01*
X96557532Y-60151779D01*
X96617543Y-60141029D01*
X96680364Y-60137397D01*
X96743186Y-60141029D01*
G37*
G36*
X96008635Y-60362222D02*
G01*
X95928292Y-60326002D01*
X95845664Y-60279729D01*
X95768229Y-60224586D01*
X95700828Y-60160844D01*
X95581943Y-60160844D01*
X95581943Y-61130000D01*
X95751203Y-61130000D01*
X95751203Y-60387379D01*
X95792082Y-60415307D01*
X95846336Y-60444715D01*
X95903549Y-60470620D01*
X95956856Y-60490877D01*
X96008635Y-60362222D01*
G37*
G36*
X98453018Y-63649539D02*
G01*
X98525163Y-63645604D01*
X98590158Y-63634261D01*
X98648900Y-63616017D01*
X98704264Y-63589851D01*
X98752985Y-63557067D01*
X98795751Y-63517465D01*
X98832173Y-63471760D01*
X98862964Y-63419145D01*
X98888075Y-63358768D01*
X98905465Y-63295532D01*
X98916417Y-63224137D01*
X98920254Y-63143468D01*
X98915860Y-63063018D01*
X98903279Y-62991644D01*
X98883190Y-62928168D01*
X98854915Y-62867943D01*
X98821113Y-62815322D01*
X98781769Y-62769532D01*
X98736427Y-62729716D01*
X98686245Y-62696951D01*
X98630704Y-62670980D01*
X98572032Y-62652463D01*
X98510176Y-62641217D01*
X98444591Y-62637397D01*
X98385889Y-62639753D01*
X98335476Y-62646372D01*
X98250113Y-62666400D01*
X98189968Y-62689848D01*
X98156385Y-62707739D01*
X98208164Y-62852452D01*
X98245828Y-62833284D01*
X98304030Y-62812580D01*
X98367953Y-62798561D01*
X98439035Y-62793712D01*
X98500393Y-62799223D01*
X98556577Y-62815389D01*
X98607414Y-62842481D01*
X98650976Y-62880479D01*
X98685839Y-62928312D01*
X98713258Y-62989595D01*
X98729697Y-63058430D01*
X98735607Y-63142063D01*
X98731083Y-63217122D01*
X98718143Y-63283358D01*
X98695527Y-63344153D01*
X98664288Y-63394610D01*
X98623228Y-63436037D01*
X98571964Y-63467334D01*
X98512425Y-63486351D01*
X98437630Y-63493224D01*
X98348448Y-63487969D01*
X98285162Y-63474356D01*
X98229986Y-63454762D01*
X98194181Y-63438635D01*
X98146615Y-63583105D01*
X98192105Y-63605270D01*
X98259944Y-63626702D01*
X98348054Y-63643311D01*
X98453018Y-63649539D01*
G37*
G36*
X97743187Y-63497131D02*
G01*
X97680129Y-63492774D01*
X97635495Y-63481440D01*
X97604701Y-63465013D01*
X97580744Y-63440791D01*
X97566392Y-63411075D01*
X97561348Y-63374094D01*
X97565196Y-63340927D01*
X97576064Y-63314010D01*
X97593474Y-63290514D01*
X97618012Y-63268581D01*
X97647268Y-63249589D01*
X97684508Y-63230846D01*
X97773961Y-63196591D01*
X97871231Y-63156779D01*
X97915641Y-63132245D01*
X97953785Y-63102923D01*
X97985832Y-63067772D01*
X98011121Y-63026048D01*
X98027050Y-62978360D01*
X98032798Y-62918398D01*
X98026722Y-62854244D01*
X98009403Y-62799653D01*
X97981343Y-62752727D01*
X97941878Y-62712196D01*
X97894830Y-62680817D01*
X97839039Y-62657508D01*
X97772849Y-62642679D01*
X97694216Y-62637397D01*
X97606157Y-62642762D01*
X97532650Y-62657730D01*
X97466226Y-62680174D01*
X97421397Y-62701755D01*
X97475985Y-62844515D01*
X97525398Y-62821174D01*
X97580216Y-62803848D01*
X97637542Y-62793340D01*
X97697025Y-62789804D01*
X97743797Y-62793523D01*
X97780127Y-62803646D01*
X97808217Y-62819174D01*
X97830294Y-62841256D01*
X97843471Y-62868206D01*
X97848089Y-62901606D01*
X97844616Y-62932170D01*
X97834839Y-62956866D01*
X97819055Y-62978329D01*
X97797042Y-62998082D01*
X97739706Y-63031605D01*
X97667655Y-63060975D01*
X97545228Y-63112021D01*
X97494723Y-63140883D01*
X97454309Y-63173510D01*
X97421618Y-63212258D01*
X97397644Y-63257407D01*
X97383297Y-63308650D01*
X97378044Y-63374155D01*
X97384277Y-63438190D01*
X97401997Y-63492197D01*
X97430685Y-63538209D01*
X97471100Y-63577548D01*
X97518680Y-63606977D01*
X97578129Y-63629486D01*
X97651967Y-63644192D01*
X97743187Y-63649539D01*
X97802062Y-63647523D01*
X97853035Y-63641845D01*
X97941207Y-63623039D01*
X98007641Y-63600019D01*
X98052398Y-63578342D01*
X98000619Y-63434605D01*
X97959140Y-63454231D01*
X97898525Y-63476310D01*
X97830520Y-63491514D01*
X97743187Y-63497131D01*
G37*
G36*
X97013878Y-62650525D02*
G01*
X97085929Y-62654677D01*
X97157248Y-62662248D01*
X97223011Y-62672568D01*
X97223011Y-63618276D01*
X97161730Y-63629839D01*
X97085929Y-63637144D01*
X96930652Y-63641723D01*
X96814380Y-63635942D01*
X96722715Y-63620275D01*
X96651278Y-63596802D01*
X96596284Y-63566924D01*
X96557238Y-63534230D01*
X96527240Y-63496323D01*
X96505503Y-63452532D01*
X96491940Y-63401727D01*
X96487168Y-63342404D01*
X96487442Y-63339289D01*
X96667602Y-63339289D01*
X96673009Y-63382505D01*
X96687875Y-63414883D01*
X96711400Y-63441070D01*
X96742463Y-63461777D01*
X96778794Y-63476301D01*
X96823613Y-63486263D01*
X96871444Y-63491418D01*
X96925034Y-63493224D01*
X96986584Y-63492247D01*
X97049537Y-63489316D01*
X97049537Y-63192316D01*
X96894260Y-63192316D01*
X96823626Y-63196492D01*
X96769193Y-63207722D01*
X96727747Y-63224495D01*
X96701891Y-63243286D01*
X96683452Y-63267760D01*
X96671816Y-63299087D01*
X96667602Y-63339289D01*
X96487442Y-63339289D01*
X96492213Y-63284993D01*
X96506429Y-63237125D01*
X96529117Y-63196957D01*
X96560609Y-63163201D01*
X96603196Y-63134227D01*
X96659237Y-63110251D01*
X96622247Y-63087885D01*
X96591947Y-63061701D01*
X96567585Y-63031543D01*
X96549661Y-62997374D01*
X96538597Y-62958374D01*
X96535574Y-62923222D01*
X96709612Y-62923222D01*
X96716508Y-62969452D01*
X96735524Y-63002844D01*
X96767009Y-63026720D01*
X96806384Y-63041723D01*
X96858065Y-63051794D01*
X96925034Y-63055540D01*
X97049537Y-63055540D01*
X97049537Y-62797620D01*
X96995682Y-62794689D01*
X96923630Y-62793712D01*
X96860593Y-62797436D01*
X96809796Y-62807655D01*
X96769085Y-62823265D01*
X96736009Y-62847545D01*
X96716528Y-62879957D01*
X96709612Y-62923222D01*
X96535574Y-62923222D01*
X96534734Y-62913452D01*
X96538447Y-62864559D01*
X96548912Y-62823299D01*
X96565509Y-62788339D01*
X96602050Y-62742972D01*
X96651543Y-62706762D01*
X96710290Y-62680754D01*
X96782336Y-62662493D01*
X96859561Y-62652584D01*
X96946039Y-62649120D01*
X97013878Y-62650525D01*
G37*
G36*
X96293911Y-62862222D02*
G01*
X96213568Y-62826002D01*
X96130940Y-62779729D01*
X96053505Y-62724586D01*
X95986104Y-62660844D01*
X95867219Y-62660844D01*
X95867219Y-63630000D01*
X96036479Y-63630000D01*
X96036479Y-62887379D01*
X96077358Y-62915307D01*
X96131612Y-62944715D01*
X96188824Y-62970620D01*
X96242131Y-62990877D01*
X96293911Y-62862222D01*
G37*
G36*
X98430608Y-65293712D02*
G01*
X98504460Y-65300147D01*
X98565695Y-65318233D01*
X98616747Y-65347005D01*
X98659342Y-65386707D01*
X98692396Y-65434908D01*
X98717015Y-65492663D01*
X98732735Y-65561841D01*
X98738354Y-65644750D01*
X98733464Y-65721018D01*
X98719487Y-65788060D01*
X98695556Y-65849297D01*
X98663494Y-65899251D01*
X98622052Y-65940211D01*
X98571170Y-65971303D01*
X98512778Y-65990353D01*
X98441782Y-65997131D01*
X98362037Y-65993895D01*
X98308853Y-65985408D01*
X98308853Y-65637606D01*
X98132632Y-65637606D01*
X98132632Y-66102644D01*
X98175559Y-66115614D01*
X98255792Y-66132991D01*
X98345853Y-66145124D01*
X98455826Y-66149539D01*
X98525128Y-66145649D01*
X98588777Y-66134336D01*
X98647496Y-66115956D01*
X98702928Y-66089860D01*
X98751904Y-66057256D01*
X98795080Y-66017953D01*
X98831987Y-65972619D01*
X98863471Y-65920173D01*
X98889480Y-65859745D01*
X98907642Y-65796361D01*
X98919064Y-65724870D01*
X98923063Y-65644139D01*
X98918669Y-65563608D01*
X98906088Y-65492151D01*
X98885999Y-65428595D01*
X98857723Y-65368286D01*
X98823921Y-65315584D01*
X98784577Y-65269715D01*
X98739231Y-65229820D01*
X98689048Y-65196996D01*
X98633513Y-65170980D01*
X98574853Y-65152428D01*
X98513455Y-65141199D01*
X98448804Y-65137397D01*
X98383476Y-65139781D01*
X98329187Y-65146372D01*
X98238939Y-65166400D01*
X98176657Y-65189848D01*
X98142402Y-65207739D01*
X98195586Y-65352330D01*
X98240674Y-65330442D01*
X98299816Y-65310748D01*
X98363142Y-65298034D01*
X98430608Y-65293712D01*
G37*
G36*
X97275034Y-66130000D02*
G01*
X97381402Y-65958236D01*
X97503096Y-65773100D01*
X97631140Y-65592177D01*
X97754911Y-65434396D01*
X97754911Y-66130000D01*
X97928384Y-66130000D01*
X97928384Y-65160844D01*
X97784281Y-65160844D01*
X97728083Y-65223010D01*
X97663991Y-65300307D01*
X97534603Y-65467857D01*
X97408696Y-65642369D01*
X97300252Y-65805645D01*
X97300252Y-65160844D01*
X97125375Y-65160844D01*
X97125375Y-66130000D01*
X97275034Y-66130000D01*
G37*
G36*
X96750095Y-65153272D02*
G01*
X96824377Y-65160286D01*
X96892794Y-65172568D01*
X96892794Y-66118276D01*
X96824575Y-66130075D01*
X96751500Y-66137144D01*
X96618571Y-66141723D01*
X96536896Y-66138201D01*
X96462298Y-66128014D01*
X96394050Y-66111620D01*
X96328554Y-66087416D01*
X96271032Y-66056539D01*
X96220577Y-66019052D01*
X96176515Y-65974398D01*
X96139522Y-65922780D01*
X96109385Y-65863408D01*
X96088237Y-65800078D01*
X96074886Y-65727446D01*
X96070222Y-65644689D01*
X96254832Y-65644689D01*
X96260971Y-65726094D01*
X96278196Y-65794059D01*
X96305367Y-65850962D01*
X96342271Y-65898640D01*
X96388492Y-65936340D01*
X96446265Y-65964529D01*
X96518137Y-65982723D01*
X96607397Y-65989316D01*
X96675968Y-65988339D01*
X96716512Y-65985408D01*
X96716512Y-65305436D01*
X96604588Y-65301528D01*
X96514321Y-65308048D01*
X96442385Y-65325951D01*
X96385258Y-65353510D01*
X96340195Y-65390127D01*
X96304431Y-65436627D01*
X96277884Y-65493091D01*
X96260919Y-65561571D01*
X96254832Y-65644689D01*
X96070222Y-65644689D01*
X96070184Y-65644017D01*
X96074922Y-65558668D01*
X96088308Y-65485160D01*
X96109385Y-65421817D01*
X96139579Y-65362512D01*
X96176576Y-65311385D01*
X96220577Y-65267578D01*
X96270963Y-65231017D01*
X96328265Y-65201094D01*
X96393379Y-65177880D01*
X96461088Y-65162217D01*
X96535006Y-65152484D01*
X96615823Y-65149120D01*
X96750095Y-65153272D01*
G37*
G36*
X98883862Y-67660844D02*
G01*
X98707580Y-67660844D01*
X98707580Y-68630000D01*
X98883862Y-68630000D01*
X98883862Y-67660844D01*
G37*
G36*
X97822138Y-68630000D02*
G01*
X97928506Y-68458236D01*
X98050200Y-68273100D01*
X98178244Y-68092177D01*
X98302015Y-67934396D01*
X98302015Y-68630000D01*
X98475488Y-68630000D01*
X98475488Y-67660844D01*
X98331385Y-67660844D01*
X98275187Y-67723010D01*
X98211095Y-67800307D01*
X98081707Y-67967857D01*
X97955800Y-68142369D01*
X97847356Y-68305645D01*
X97847356Y-67660844D01*
X97672479Y-67660844D01*
X97672479Y-68630000D01*
X97822138Y-68630000D01*
G37*
G36*
X96764200Y-67660844D02*
G01*
X96764200Y-67813251D01*
X97062177Y-67813251D01*
X97062177Y-68630000D01*
X97239863Y-68630000D01*
X97239863Y-67813251D01*
X97537840Y-67813251D01*
X97537840Y-67660844D01*
X96764200Y-67660844D01*
G37*
G36*
X96333812Y-67729632D02*
G01*
X96399180Y-67808489D01*
X96520935Y-67974391D01*
X96625165Y-68138888D01*
X96668762Y-68217253D01*
X96699965Y-68280854D01*
X96699965Y-68399434D01*
X96274677Y-68399434D01*
X96274677Y-68630000D01*
X96109569Y-68630000D01*
X96109569Y-68399434D01*
X96000453Y-68399434D01*
X96000453Y-68262658D01*
X96109569Y-68262658D01*
X96274677Y-68262658D01*
X96533452Y-68262658D01*
X96477520Y-68157695D01*
X96413162Y-68054197D01*
X96343920Y-67956988D01*
X96274677Y-67869672D01*
X96274677Y-68262658D01*
X96109569Y-68262658D01*
X96109569Y-67660844D01*
X96270464Y-67660844D01*
X96333812Y-67729632D01*
G37*
G36*
X98883862Y-70160844D02*
G01*
X98707580Y-70160844D01*
X98707580Y-71130000D01*
X98883862Y-71130000D01*
X98883862Y-70160844D01*
G37*
G36*
X97822138Y-71130000D02*
G01*
X97928506Y-70958236D01*
X98050200Y-70773100D01*
X98178244Y-70592177D01*
X98302015Y-70434396D01*
X98302015Y-71130000D01*
X98475488Y-71130000D01*
X98475488Y-70160844D01*
X98331385Y-70160844D01*
X98275187Y-70223010D01*
X98211095Y-70300307D01*
X98081707Y-70467857D01*
X97955800Y-70642369D01*
X97847356Y-70805645D01*
X97847356Y-70160844D01*
X97672479Y-70160844D01*
X97672479Y-71130000D01*
X97822138Y-71130000D01*
G37*
G36*
X96764200Y-70160844D02*
G01*
X96764200Y-70313251D01*
X97062177Y-70313251D01*
X97062177Y-71130000D01*
X97239863Y-71130000D01*
X97239863Y-70313251D01*
X97537840Y-70313251D01*
X97537840Y-70160844D01*
X96764200Y-70160844D01*
G37*
G36*
X96415910Y-71149539D02*
G01*
X96493579Y-71144715D01*
X96569173Y-71132381D01*
X96634202Y-71115894D01*
X96678960Y-71098736D01*
X96645376Y-70954145D01*
X96560075Y-70984309D01*
X96500601Y-70996466D01*
X96421589Y-71001039D01*
X96348807Y-70995324D01*
X96297471Y-70980413D01*
X96262098Y-70958541D01*
X96235092Y-70927310D01*
X96218821Y-70890036D01*
X96213128Y-70844846D01*
X96218159Y-70801510D01*
X96232056Y-70768215D01*
X96254264Y-70740627D01*
X96283775Y-70718695D01*
X96318452Y-70702858D01*
X96359307Y-70692194D01*
X96402690Y-70686468D01*
X96449555Y-70684501D01*
X96506891Y-70684501D01*
X96506891Y-70547725D01*
X96436915Y-70547725D01*
X96371885Y-70541435D01*
X96340337Y-70532602D01*
X96312473Y-70519087D01*
X96288334Y-70500382D01*
X96269059Y-70476406D01*
X96256785Y-70447259D01*
X96252267Y-70407834D01*
X96255591Y-70375955D01*
X96264846Y-70350560D01*
X96279473Y-70328722D01*
X96297758Y-70311359D01*
X96319385Y-70298182D01*
X96344591Y-70289010D01*
X96400584Y-70281988D01*
X96461305Y-70287001D01*
X96512508Y-70301161D01*
X96559520Y-70322028D01*
X96599214Y-70344515D01*
X96660764Y-70219462D01*
X96613197Y-70192595D01*
X96550976Y-70165729D01*
X96477520Y-70145212D01*
X96437694Y-70139390D01*
X96394966Y-70137397D01*
X96316961Y-70142632D01*
X96255076Y-70156936D01*
X96200400Y-70181078D01*
X96157868Y-70212135D01*
X96124254Y-70250944D01*
X96100532Y-70295910D01*
X96086453Y-70345708D01*
X96081603Y-70401362D01*
X96085795Y-70444850D01*
X96098112Y-70484598D01*
X96118667Y-70521468D01*
X96145833Y-70554096D01*
X96177610Y-70580959D01*
X96214471Y-70602435D01*
X96166782Y-70624158D01*
X96125300Y-70653400D01*
X96089296Y-70690607D01*
X96062342Y-70734086D01*
X96045547Y-70786062D01*
X96039593Y-70848693D01*
X96045299Y-70911341D01*
X96062002Y-70968372D01*
X96090207Y-71019651D01*
X96130512Y-71063504D01*
X96181352Y-71098389D01*
X96247383Y-71126458D01*
X96321821Y-71143347D01*
X96415910Y-71149539D01*
G37*
G36*
X112648839Y-68497131D02*
G01*
X112585782Y-68492774D01*
X112541148Y-68481440D01*
X112510354Y-68465013D01*
X112486397Y-68440791D01*
X112472044Y-68411075D01*
X112467001Y-68374094D01*
X112470849Y-68340927D01*
X112481716Y-68314010D01*
X112499127Y-68290514D01*
X112523665Y-68268581D01*
X112552921Y-68249589D01*
X112590160Y-68230846D01*
X112679614Y-68196591D01*
X112776884Y-68156779D01*
X112821294Y-68132245D01*
X112859438Y-68102923D01*
X112891485Y-68067772D01*
X112916774Y-68026048D01*
X112932703Y-67978360D01*
X112938450Y-67918398D01*
X112932375Y-67854244D01*
X112915056Y-67799653D01*
X112886996Y-67752727D01*
X112847531Y-67712196D01*
X112800482Y-67680817D01*
X112744692Y-67657508D01*
X112678501Y-67642679D01*
X112599869Y-67637397D01*
X112511809Y-67642762D01*
X112438302Y-67657730D01*
X112371879Y-67680174D01*
X112327049Y-67701755D01*
X112381638Y-67844515D01*
X112431050Y-67821174D01*
X112485868Y-67803848D01*
X112543194Y-67793340D01*
X112602677Y-67789804D01*
X112649450Y-67793523D01*
X112685780Y-67803646D01*
X112713869Y-67819174D01*
X112735946Y-67841256D01*
X112749124Y-67868206D01*
X112753742Y-67901606D01*
X112750269Y-67932170D01*
X112740491Y-67956866D01*
X112724708Y-67978329D01*
X112702695Y-67998082D01*
X112645359Y-68031605D01*
X112573307Y-68060975D01*
X112450881Y-68112021D01*
X112400375Y-68140883D01*
X112359961Y-68173510D01*
X112327270Y-68212258D01*
X112303297Y-68257407D01*
X112288950Y-68308650D01*
X112283696Y-68374155D01*
X112289929Y-68438190D01*
X112307650Y-68492197D01*
X112336338Y-68538209D01*
X112376753Y-68577548D01*
X112424332Y-68606977D01*
X112483782Y-68629486D01*
X112557619Y-68644192D01*
X112648839Y-68649539D01*
X112707714Y-68647523D01*
X112758688Y-68641845D01*
X112846859Y-68623039D01*
X112913293Y-68600019D01*
X112958051Y-68578342D01*
X112906271Y-68434605D01*
X112864792Y-68454231D01*
X112804178Y-68476310D01*
X112736172Y-68491514D01*
X112648839Y-68497131D01*
G37*
G36*
X111985964Y-67653272D02*
G01*
X112060246Y-67660286D01*
X112128663Y-67672568D01*
X112128663Y-68618276D01*
X112060444Y-68630075D01*
X111987369Y-68637144D01*
X111854439Y-68641723D01*
X111772765Y-68638201D01*
X111698167Y-68628014D01*
X111629919Y-68611620D01*
X111564423Y-68587416D01*
X111506901Y-68556539D01*
X111456446Y-68519052D01*
X111412383Y-68474398D01*
X111375390Y-68422780D01*
X111345254Y-68363408D01*
X111324106Y-68300078D01*
X111310755Y-68227446D01*
X111306091Y-68144689D01*
X111490701Y-68144689D01*
X111496840Y-68226094D01*
X111514064Y-68294059D01*
X111541236Y-68350962D01*
X111578140Y-68398640D01*
X111624361Y-68436340D01*
X111682134Y-68464529D01*
X111754006Y-68482723D01*
X111843265Y-68489316D01*
X111911837Y-68488339D01*
X111952381Y-68485408D01*
X111952381Y-67805436D01*
X111840457Y-67801528D01*
X111750189Y-67808048D01*
X111678254Y-67825951D01*
X111621127Y-67853510D01*
X111576064Y-67890127D01*
X111540300Y-67936627D01*
X111513753Y-67993091D01*
X111496788Y-68061571D01*
X111490701Y-68144689D01*
X111306091Y-68144689D01*
X111306053Y-68144017D01*
X111310791Y-68058668D01*
X111324177Y-67985160D01*
X111345254Y-67921817D01*
X111375447Y-67862512D01*
X111412444Y-67811385D01*
X111456446Y-67767578D01*
X111506832Y-67731017D01*
X111564134Y-67701094D01*
X111629248Y-67677880D01*
X111696956Y-67662217D01*
X111770875Y-67652484D01*
X111851692Y-67649120D01*
X111985964Y-67653272D01*
G37*
G36*
X110952817Y-67870648D02*
G01*
X111045874Y-68094375D01*
X111141678Y-68343319D01*
X111245176Y-68630000D01*
X111061933Y-68630000D01*
X111022060Y-68518075D01*
X110982187Y-68403342D01*
X110573691Y-68403342D01*
X110533147Y-68517342D01*
X110492541Y-68630000D01*
X110302276Y-68630000D01*
X110406507Y-68343319D01*
X110439302Y-68258750D01*
X110618449Y-68258750D01*
X110937430Y-68258750D01*
X110851395Y-68028551D01*
X110777939Y-67848545D01*
X110705216Y-68027147D01*
X110618449Y-68258750D01*
X110439302Y-68258750D01*
X110503044Y-68094375D01*
X110596039Y-67870648D01*
X110691172Y-67660844D01*
X110857684Y-67660844D01*
X110952817Y-67870648D01*
G37*
G36*
X110138572Y-68887920D02*
G01*
X110312046Y-68887920D01*
X109839131Y-67535792D01*
X109668466Y-67535792D01*
X110138572Y-68887920D01*
G37*
G36*
X109340814Y-68497131D02*
G01*
X109277757Y-68492774D01*
X109233123Y-68481440D01*
X109202329Y-68465013D01*
X109178372Y-68440791D01*
X109164019Y-68411075D01*
X109158975Y-68374094D01*
X109162824Y-68340927D01*
X109173691Y-68314010D01*
X109191102Y-68290514D01*
X109215640Y-68268581D01*
X109244896Y-68249589D01*
X109282135Y-68230846D01*
X109371589Y-68196591D01*
X109468859Y-68156779D01*
X109513269Y-68132245D01*
X109551413Y-68102923D01*
X109583459Y-68067772D01*
X109608749Y-68026048D01*
X109624677Y-67978360D01*
X109630425Y-67918398D01*
X109624350Y-67854244D01*
X109607031Y-67799653D01*
X109578971Y-67752727D01*
X109539506Y-67712196D01*
X109492457Y-67680817D01*
X109436667Y-67657508D01*
X109370476Y-67642679D01*
X109291844Y-67637397D01*
X109203784Y-67642762D01*
X109130277Y-67657730D01*
X109063854Y-67680174D01*
X109019024Y-67701755D01*
X109073613Y-67844515D01*
X109123025Y-67821174D01*
X109177843Y-67803848D01*
X109235169Y-67793340D01*
X109294652Y-67789804D01*
X109341425Y-67793523D01*
X109377755Y-67803646D01*
X109405844Y-67819174D01*
X109427921Y-67841256D01*
X109441098Y-67868206D01*
X109445717Y-67901606D01*
X109442244Y-67932170D01*
X109432466Y-67956866D01*
X109416682Y-67978329D01*
X109394670Y-67998082D01*
X109337334Y-68031605D01*
X109265282Y-68060975D01*
X109142855Y-68112021D01*
X109092350Y-68140883D01*
X109051936Y-68173510D01*
X109019245Y-68212258D01*
X108995272Y-68257407D01*
X108980925Y-68308650D01*
X108975671Y-68374155D01*
X108981904Y-68438190D01*
X108999625Y-68492197D01*
X109028313Y-68538209D01*
X109068728Y-68577548D01*
X109116307Y-68606977D01*
X109175757Y-68629486D01*
X109249594Y-68644192D01*
X109340814Y-68649539D01*
X109399689Y-68647523D01*
X109450662Y-68641845D01*
X109538834Y-68623039D01*
X109605268Y-68600019D01*
X109650026Y-68578342D01*
X109598246Y-68434605D01*
X109556767Y-68454231D01*
X109496153Y-68476310D01*
X109428147Y-68491514D01*
X109340814Y-68497131D01*
G37*
G36*
X108677939Y-67653272D02*
G01*
X108752221Y-67660286D01*
X108820638Y-67672568D01*
X108820638Y-68618276D01*
X108752418Y-68630075D01*
X108679344Y-68637144D01*
X108546414Y-68641723D01*
X108464740Y-68638201D01*
X108390142Y-68628014D01*
X108321894Y-68611620D01*
X108256398Y-68587416D01*
X108198875Y-68556539D01*
X108148421Y-68519052D01*
X108104358Y-68474398D01*
X108067365Y-68422780D01*
X108037229Y-68363408D01*
X108016081Y-68300078D01*
X108002730Y-68227446D01*
X107998066Y-68144689D01*
X108182676Y-68144689D01*
X108188815Y-68226094D01*
X108206039Y-68294059D01*
X108233211Y-68350962D01*
X108270115Y-68398640D01*
X108316336Y-68436340D01*
X108374109Y-68464529D01*
X108445981Y-68482723D01*
X108535240Y-68489316D01*
X108603811Y-68488339D01*
X108644356Y-68485408D01*
X108644356Y-67805436D01*
X108532431Y-67801528D01*
X108442164Y-67808048D01*
X108370228Y-67825951D01*
X108313102Y-67853510D01*
X108268039Y-67890127D01*
X108232275Y-67936627D01*
X108205728Y-67993091D01*
X108188763Y-68061571D01*
X108182676Y-68144689D01*
X107998066Y-68144689D01*
X107998028Y-68144017D01*
X108002766Y-68058668D01*
X108016152Y-67985160D01*
X108037229Y-67921817D01*
X108067422Y-67862512D01*
X108104419Y-67811385D01*
X108148421Y-67767578D01*
X108198807Y-67731017D01*
X108256109Y-67701094D01*
X108321222Y-67677880D01*
X108388931Y-67662217D01*
X108462850Y-67652484D01*
X108543667Y-67649120D01*
X108677939Y-67653272D01*
G37*
G36*
X107804588Y-67660844D02*
G01*
X107628306Y-67660844D01*
X107628306Y-68630000D01*
X107804588Y-68630000D01*
X107804588Y-67660844D01*
G37*
G36*
X112648839Y-70997131D02*
G01*
X112585782Y-70992774D01*
X112541148Y-70981440D01*
X112510354Y-70965013D01*
X112486397Y-70940791D01*
X112472044Y-70911075D01*
X112467001Y-70874094D01*
X112470849Y-70840927D01*
X112481716Y-70814010D01*
X112499127Y-70790514D01*
X112523665Y-70768581D01*
X112552921Y-70749589D01*
X112590160Y-70730846D01*
X112679614Y-70696591D01*
X112776884Y-70656779D01*
X112821294Y-70632245D01*
X112859438Y-70602923D01*
X112891485Y-70567772D01*
X112916774Y-70526048D01*
X112932703Y-70478360D01*
X112938450Y-70418398D01*
X112932375Y-70354244D01*
X112915056Y-70299653D01*
X112886996Y-70252727D01*
X112847531Y-70212196D01*
X112800482Y-70180817D01*
X112744692Y-70157508D01*
X112678501Y-70142679D01*
X112599869Y-70137397D01*
X112511809Y-70142762D01*
X112438302Y-70157730D01*
X112371879Y-70180174D01*
X112327049Y-70201755D01*
X112381638Y-70344515D01*
X112431050Y-70321174D01*
X112485868Y-70303848D01*
X112543194Y-70293340D01*
X112602677Y-70289804D01*
X112649450Y-70293523D01*
X112685780Y-70303646D01*
X112713869Y-70319174D01*
X112735946Y-70341256D01*
X112749124Y-70368206D01*
X112753742Y-70401606D01*
X112750269Y-70432170D01*
X112740491Y-70456866D01*
X112724708Y-70478329D01*
X112702695Y-70498082D01*
X112645359Y-70531605D01*
X112573307Y-70560975D01*
X112450881Y-70612021D01*
X112400375Y-70640883D01*
X112359961Y-70673510D01*
X112327270Y-70712258D01*
X112303297Y-70757407D01*
X112288950Y-70808650D01*
X112283696Y-70874155D01*
X112289929Y-70938190D01*
X112307650Y-70992197D01*
X112336338Y-71038209D01*
X112376753Y-71077548D01*
X112424332Y-71106977D01*
X112483782Y-71129486D01*
X112557619Y-71144192D01*
X112648839Y-71149539D01*
X112707714Y-71147523D01*
X112758688Y-71141845D01*
X112846859Y-71123039D01*
X112913293Y-71100019D01*
X112958051Y-71078342D01*
X112906271Y-70934605D01*
X112864792Y-70954231D01*
X112804178Y-70976310D01*
X112736172Y-70991514D01*
X112648839Y-70997131D01*
G37*
G36*
X111985964Y-70153272D02*
G01*
X112060246Y-70160286D01*
X112128663Y-70172568D01*
X112128663Y-71118276D01*
X112060444Y-71130075D01*
X111987369Y-71137144D01*
X111854439Y-71141723D01*
X111772765Y-71138201D01*
X111698167Y-71128014D01*
X111629919Y-71111620D01*
X111564423Y-71087416D01*
X111506901Y-71056539D01*
X111456446Y-71019052D01*
X111412383Y-70974398D01*
X111375390Y-70922780D01*
X111345254Y-70863408D01*
X111324106Y-70800078D01*
X111310755Y-70727446D01*
X111306091Y-70644689D01*
X111490701Y-70644689D01*
X111496840Y-70726094D01*
X111514064Y-70794059D01*
X111541236Y-70850962D01*
X111578140Y-70898640D01*
X111624361Y-70936340D01*
X111682134Y-70964529D01*
X111754006Y-70982723D01*
X111843265Y-70989316D01*
X111911837Y-70988339D01*
X111952381Y-70985408D01*
X111952381Y-70305436D01*
X111840457Y-70301528D01*
X111750189Y-70308048D01*
X111678254Y-70325951D01*
X111621127Y-70353510D01*
X111576064Y-70390127D01*
X111540300Y-70436627D01*
X111513753Y-70493091D01*
X111496788Y-70561571D01*
X111490701Y-70644689D01*
X111306091Y-70644689D01*
X111306053Y-70644017D01*
X111310791Y-70558668D01*
X111324177Y-70485160D01*
X111345254Y-70421817D01*
X111375447Y-70362512D01*
X111412444Y-70311385D01*
X111456446Y-70267578D01*
X111506832Y-70231017D01*
X111564134Y-70201094D01*
X111629248Y-70177880D01*
X111696956Y-70162217D01*
X111770875Y-70152484D01*
X111851692Y-70149120D01*
X111985964Y-70153272D01*
G37*
G36*
X110743186Y-70141029D02*
G01*
X110803196Y-70151779D01*
X110860860Y-70169576D01*
X110915528Y-70194595D01*
X110965504Y-70226648D01*
X111011252Y-70266051D01*
X111050991Y-70311475D01*
X111085265Y-70364076D01*
X111114078Y-70424687D01*
X111134488Y-70488648D01*
X111147317Y-70561142D01*
X111151814Y-70643468D01*
X111147328Y-70725788D01*
X111134508Y-70798543D01*
X111114078Y-70862981D01*
X111085311Y-70924105D01*
X111051486Y-70976676D01*
X111012657Y-71021617D01*
X110967793Y-71060482D01*
X110918065Y-71092335D01*
X110862936Y-71117421D01*
X110804825Y-71135165D01*
X110744126Y-71145904D01*
X110680364Y-71149539D01*
X110616608Y-71145896D01*
X110556138Y-71135150D01*
X110498464Y-71117421D01*
X110443771Y-71092365D01*
X110394279Y-71060518D01*
X110349476Y-71021617D01*
X110310670Y-70976647D01*
X110277072Y-70924079D01*
X110248726Y-70862981D01*
X110228668Y-70798577D01*
X110216072Y-70725820D01*
X110211662Y-70643468D01*
X110396310Y-70643468D01*
X110401409Y-70720696D01*
X110415910Y-70787693D01*
X110440389Y-70848600D01*
X110472575Y-70897786D01*
X110513638Y-70937971D01*
X110562822Y-70968128D01*
X110618279Y-70986774D01*
X110681707Y-70993224D01*
X110746368Y-70986741D01*
X110802058Y-70968128D01*
X110851191Y-70937975D01*
X110892245Y-70897786D01*
X110924430Y-70848600D01*
X110948909Y-70787693D01*
X110963410Y-70720696D01*
X110968510Y-70643468D01*
X110963396Y-70566330D01*
X110948909Y-70499975D01*
X110924498Y-70439534D01*
X110892245Y-70389883D01*
X110851138Y-70349102D01*
X110802058Y-70318808D01*
X110746368Y-70300194D01*
X110681707Y-70293712D01*
X110618279Y-70300162D01*
X110562822Y-70318808D01*
X110513643Y-70348977D01*
X110472575Y-70389211D01*
X110440392Y-70438345D01*
X110415910Y-70499242D01*
X110401409Y-70566240D01*
X110396310Y-70643468D01*
X110211662Y-70643468D01*
X110216166Y-70561145D01*
X110229015Y-70488651D01*
X110249459Y-70424687D01*
X110278133Y-70363983D01*
X110311950Y-70311387D01*
X110350881Y-70266051D01*
X110395732Y-70226714D01*
X110445223Y-70194653D01*
X110499869Y-70169576D01*
X110557532Y-70151779D01*
X110617543Y-70141029D01*
X110680364Y-70137397D01*
X110743186Y-70141029D01*
G37*
G36*
X109461592Y-70411803D02*
G01*
X109466787Y-70461392D01*
X109482597Y-70510478D01*
X109506319Y-70557717D01*
X109536453Y-70604328D01*
X109571293Y-70648763D01*
X109611313Y-70692500D01*
X109695211Y-70775786D01*
X109745647Y-70825795D01*
X109798770Y-70884108D01*
X109842123Y-70940284D01*
X109856862Y-70966842D01*
X109861723Y-70985408D01*
X109430818Y-70985408D01*
X109430818Y-71130000D01*
X110047775Y-71130000D01*
X110049180Y-71102705D01*
X110049180Y-71078220D01*
X110043623Y-71012853D01*
X110027503Y-70954328D01*
X110002468Y-70899485D01*
X109970839Y-70848632D01*
X109933842Y-70801117D01*
X109892498Y-70756247D01*
X109805730Y-70670823D01*
X109741372Y-70607869D01*
X109687517Y-70546931D01*
X109666488Y-70516123D01*
X109650453Y-70485382D01*
X109639944Y-70453252D01*
X109636470Y-70420291D01*
X109641804Y-70373757D01*
X109656120Y-70340384D01*
X109678480Y-70316732D01*
X109707810Y-70299884D01*
X109741490Y-70289517D01*
X109780573Y-70285896D01*
X109818831Y-70288730D01*
X109853358Y-70296948D01*
X109912770Y-70323143D01*
X109958260Y-70354162D01*
X109987630Y-70379685D01*
X110071589Y-70260800D01*
X110008304Y-70211071D01*
X109933836Y-70171407D01*
X109880212Y-70152626D01*
X109823720Y-70141255D01*
X109763782Y-70137397D01*
X109685241Y-70142854D01*
X109622899Y-70157795D01*
X109573653Y-70180687D01*
X109535048Y-70210914D01*
X109503737Y-70249721D01*
X109480948Y-70295197D01*
X109466649Y-70348646D01*
X109461592Y-70411803D01*
G37*
G36*
X113106891Y-53630000D02*
G01*
X113209045Y-53400181D01*
X113309063Y-53155924D01*
X113403149Y-52907864D01*
X113490230Y-52660844D01*
X113295751Y-52660844D01*
X113227180Y-52860818D01*
X113157266Y-53061524D01*
X113087290Y-53252400D01*
X113018719Y-53421599D01*
X112951613Y-53253072D01*
X112880966Y-53062196D01*
X112810319Y-52860818D01*
X112743152Y-52660844D01*
X112554230Y-52660844D01*
X112642225Y-52907944D01*
X112736130Y-53155924D01*
X112835579Y-53400143D01*
X112937569Y-53630000D01*
X113106891Y-53630000D01*
G37*
G36*
X112266146Y-53630000D02*
G01*
X112435406Y-53630000D01*
X112435406Y-52899225D01*
X112266146Y-52899225D01*
X112266146Y-53630000D01*
G37*
G36*
X112247950Y-52686917D02*
G01*
X112251572Y-52717059D01*
X112261847Y-52741667D01*
X112278724Y-52762021D01*
X112312246Y-52782835D01*
X112351509Y-52789804D01*
X112391928Y-52782779D01*
X112425636Y-52762021D01*
X112442513Y-52741667D01*
X112452789Y-52717059D01*
X112456411Y-52686917D01*
X112452753Y-52655876D01*
X112442443Y-52630878D01*
X112425636Y-52610530D01*
X112391924Y-52589725D01*
X112351509Y-52582686D01*
X112312251Y-52589669D01*
X112278724Y-52610530D01*
X112261917Y-52630878D01*
X112251608Y-52655876D01*
X112247950Y-52686917D01*
G37*
G36*
X112050907Y-52922672D02*
G01*
X111923595Y-52896172D01*
X111843127Y-52886890D01*
X111750122Y-52883593D01*
X111664772Y-52890240D01*
X111600401Y-52908079D01*
X111545567Y-52937984D01*
X111504596Y-52976528D01*
X111474517Y-53024314D01*
X111454221Y-53082773D01*
X111443323Y-53146686D01*
X111439506Y-53219061D01*
X111439506Y-53630000D01*
X111608827Y-53630000D01*
X111608827Y-53245134D01*
X111610925Y-53188504D01*
X111616521Y-53145055D01*
X111627157Y-53106348D01*
X111641739Y-53077889D01*
X111662256Y-53055579D01*
X111689305Y-53040092D01*
X111721279Y-53031393D01*
X111762700Y-53028185D01*
X111829867Y-53032581D01*
X111881585Y-53039909D01*
X111881585Y-53630000D01*
X112050907Y-53630000D01*
X112050907Y-52922672D01*
G37*
G36*
X112930608Y-55293712D02*
G01*
X113004460Y-55300147D01*
X113065695Y-55318233D01*
X113116747Y-55347005D01*
X113159342Y-55386707D01*
X113192396Y-55434908D01*
X113217015Y-55492663D01*
X113232735Y-55561841D01*
X113238354Y-55644750D01*
X113233464Y-55721018D01*
X113219487Y-55788060D01*
X113195556Y-55849297D01*
X113163494Y-55899251D01*
X113122052Y-55940211D01*
X113071170Y-55971303D01*
X113012778Y-55990353D01*
X112941782Y-55997131D01*
X112862037Y-55993895D01*
X112808853Y-55985408D01*
X112808853Y-55637606D01*
X112632632Y-55637606D01*
X112632632Y-56102644D01*
X112675559Y-56115614D01*
X112755792Y-56132991D01*
X112845853Y-56145124D01*
X112955826Y-56149539D01*
X113025128Y-56145649D01*
X113088777Y-56134336D01*
X113147496Y-56115956D01*
X113202928Y-56089860D01*
X113251904Y-56057256D01*
X113295080Y-56017953D01*
X113331987Y-55972619D01*
X113363471Y-55920173D01*
X113389480Y-55859745D01*
X113407642Y-55796361D01*
X113419064Y-55724870D01*
X113423063Y-55644139D01*
X113418669Y-55563608D01*
X113406088Y-55492151D01*
X113385999Y-55428595D01*
X113357723Y-55368286D01*
X113323921Y-55315584D01*
X113284577Y-55269715D01*
X113239231Y-55229820D01*
X113189048Y-55196996D01*
X113133513Y-55170980D01*
X113074853Y-55152428D01*
X113013455Y-55141199D01*
X112948804Y-55137397D01*
X112883476Y-55139781D01*
X112829187Y-55146372D01*
X112738939Y-55166400D01*
X112676657Y-55189848D01*
X112642402Y-55207739D01*
X112695586Y-55352330D01*
X112740674Y-55330442D01*
X112799816Y-55310748D01*
X112863142Y-55298034D01*
X112930608Y-55293712D01*
G37*
G36*
X111775034Y-56130000D02*
G01*
X111881402Y-55958236D01*
X112003096Y-55773100D01*
X112131140Y-55592177D01*
X112254911Y-55434396D01*
X112254911Y-56130000D01*
X112428384Y-56130000D01*
X112428384Y-55160844D01*
X112284281Y-55160844D01*
X112228083Y-55223010D01*
X112163991Y-55300307D01*
X112034603Y-55467857D01*
X111908696Y-55642369D01*
X111800252Y-55805645D01*
X111800252Y-55160844D01*
X111625375Y-55160844D01*
X111625375Y-56130000D01*
X111775034Y-56130000D01*
G37*
G36*
X111250095Y-55153272D02*
G01*
X111324377Y-55160286D01*
X111392794Y-55172568D01*
X111392794Y-56118276D01*
X111324575Y-56130075D01*
X111251500Y-56137144D01*
X111118571Y-56141723D01*
X111036896Y-56138201D01*
X110962298Y-56128014D01*
X110894050Y-56111620D01*
X110828554Y-56087416D01*
X110771032Y-56056539D01*
X110720577Y-56019052D01*
X110676515Y-55974398D01*
X110639522Y-55922780D01*
X110609385Y-55863408D01*
X110588237Y-55800078D01*
X110574886Y-55727446D01*
X110570222Y-55644689D01*
X110754832Y-55644689D01*
X110760971Y-55726094D01*
X110778196Y-55794059D01*
X110805367Y-55850962D01*
X110842271Y-55898640D01*
X110888492Y-55936340D01*
X110946265Y-55964529D01*
X111018137Y-55982723D01*
X111107397Y-55989316D01*
X111175968Y-55988339D01*
X111216512Y-55985408D01*
X111216512Y-55305436D01*
X111104588Y-55301528D01*
X111014321Y-55308048D01*
X110942385Y-55325951D01*
X110885258Y-55353510D01*
X110840195Y-55390127D01*
X110804431Y-55436627D01*
X110777884Y-55493091D01*
X110760919Y-55561571D01*
X110754832Y-55644689D01*
X110570222Y-55644689D01*
X110570184Y-55644017D01*
X110574922Y-55558668D01*
X110588308Y-55485160D01*
X110609385Y-55421817D01*
X110639579Y-55362512D01*
X110676576Y-55311385D01*
X110720577Y-55267578D01*
X110770963Y-55231017D01*
X110828265Y-55201094D01*
X110893379Y-55177880D01*
X110961088Y-55162217D01*
X111035006Y-55152484D01*
X111115823Y-55149120D01*
X111250095Y-55153272D01*
G37*
G36*
X112953018Y-58649539D02*
G01*
X113025163Y-58645604D01*
X113090158Y-58634261D01*
X113148900Y-58616017D01*
X113204264Y-58589851D01*
X113252985Y-58557067D01*
X113295751Y-58517465D01*
X113332173Y-58471760D01*
X113362964Y-58419145D01*
X113388075Y-58358768D01*
X113405465Y-58295532D01*
X113416417Y-58224137D01*
X113420254Y-58143468D01*
X113415860Y-58063018D01*
X113403279Y-57991644D01*
X113383190Y-57928168D01*
X113354915Y-57867943D01*
X113321113Y-57815322D01*
X113281769Y-57769532D01*
X113236427Y-57729716D01*
X113186245Y-57696951D01*
X113130704Y-57670980D01*
X113072032Y-57652463D01*
X113010176Y-57641217D01*
X112944591Y-57637397D01*
X112885889Y-57639753D01*
X112835476Y-57646372D01*
X112750113Y-57666400D01*
X112689968Y-57689848D01*
X112656385Y-57707739D01*
X112708164Y-57852452D01*
X112745828Y-57833284D01*
X112804030Y-57812580D01*
X112867953Y-57798561D01*
X112939035Y-57793712D01*
X113000393Y-57799223D01*
X113056577Y-57815389D01*
X113107414Y-57842481D01*
X113150976Y-57880479D01*
X113185839Y-57928312D01*
X113213258Y-57989595D01*
X113229697Y-58058430D01*
X113235607Y-58142063D01*
X113231083Y-58217122D01*
X113218143Y-58283358D01*
X113195527Y-58344153D01*
X113164288Y-58394610D01*
X113123228Y-58436037D01*
X113071964Y-58467334D01*
X113012425Y-58486351D01*
X112937630Y-58493224D01*
X112848448Y-58487969D01*
X112785162Y-58474356D01*
X112729986Y-58454762D01*
X112694181Y-58438635D01*
X112646615Y-58583105D01*
X112692105Y-58605270D01*
X112759944Y-58626702D01*
X112848054Y-58643311D01*
X112953018Y-58649539D01*
G37*
G36*
X112243187Y-58497131D02*
G01*
X112180129Y-58492774D01*
X112135495Y-58481440D01*
X112104701Y-58465013D01*
X112080744Y-58440791D01*
X112066392Y-58411075D01*
X112061348Y-58374094D01*
X112065196Y-58340927D01*
X112076064Y-58314010D01*
X112093474Y-58290514D01*
X112118012Y-58268581D01*
X112147268Y-58249589D01*
X112184508Y-58230846D01*
X112273961Y-58196591D01*
X112371231Y-58156779D01*
X112415641Y-58132245D01*
X112453785Y-58102923D01*
X112485832Y-58067772D01*
X112511121Y-58026048D01*
X112527050Y-57978360D01*
X112532798Y-57918398D01*
X112526722Y-57854244D01*
X112509403Y-57799653D01*
X112481343Y-57752727D01*
X112441878Y-57712196D01*
X112394830Y-57680817D01*
X112339039Y-57657508D01*
X112272849Y-57642679D01*
X112194216Y-57637397D01*
X112106157Y-57642762D01*
X112032650Y-57657730D01*
X111966226Y-57680174D01*
X111921397Y-57701755D01*
X111975985Y-57844515D01*
X112025398Y-57821174D01*
X112080216Y-57803848D01*
X112137542Y-57793340D01*
X112197025Y-57789804D01*
X112243797Y-57793523D01*
X112280127Y-57803646D01*
X112308217Y-57819174D01*
X112330294Y-57841256D01*
X112343471Y-57868206D01*
X112348089Y-57901606D01*
X112344616Y-57932170D01*
X112334839Y-57956866D01*
X112319055Y-57978329D01*
X112297042Y-57998082D01*
X112239706Y-58031605D01*
X112167655Y-58060975D01*
X112045228Y-58112021D01*
X111994723Y-58140883D01*
X111954309Y-58173510D01*
X111921618Y-58212258D01*
X111897644Y-58257407D01*
X111883297Y-58308650D01*
X111878044Y-58374155D01*
X111884277Y-58438190D01*
X111901997Y-58492197D01*
X111930685Y-58538209D01*
X111971100Y-58577548D01*
X112018680Y-58606977D01*
X112078129Y-58629486D01*
X112151967Y-58644192D01*
X112243187Y-58649539D01*
X112302062Y-58647523D01*
X112353035Y-58641845D01*
X112441207Y-58623039D01*
X112507641Y-58600019D01*
X112552398Y-58578342D01*
X112500619Y-58434605D01*
X112459140Y-58454231D01*
X112398525Y-58476310D01*
X112330520Y-58491514D01*
X112243187Y-58497131D01*
G37*
G36*
X111513878Y-57650525D02*
G01*
X111585929Y-57654677D01*
X111657248Y-57662248D01*
X111723011Y-57672568D01*
X111723011Y-58618276D01*
X111661730Y-58629839D01*
X111585929Y-58637144D01*
X111430652Y-58641723D01*
X111314380Y-58635942D01*
X111222715Y-58620275D01*
X111151278Y-58596802D01*
X111096284Y-58566924D01*
X111057238Y-58534230D01*
X111027240Y-58496323D01*
X111005503Y-58452532D01*
X110991940Y-58401727D01*
X110987168Y-58342404D01*
X110987442Y-58339289D01*
X111167602Y-58339289D01*
X111173009Y-58382505D01*
X111187875Y-58414883D01*
X111211400Y-58441070D01*
X111242463Y-58461777D01*
X111278794Y-58476301D01*
X111323613Y-58486263D01*
X111371444Y-58491418D01*
X111425034Y-58493224D01*
X111486584Y-58492247D01*
X111549537Y-58489316D01*
X111549537Y-58192316D01*
X111394260Y-58192316D01*
X111323626Y-58196492D01*
X111269193Y-58207722D01*
X111227747Y-58224495D01*
X111201891Y-58243286D01*
X111183452Y-58267760D01*
X111171816Y-58299087D01*
X111167602Y-58339289D01*
X110987442Y-58339289D01*
X110992213Y-58284993D01*
X111006429Y-58237125D01*
X111029117Y-58196957D01*
X111060609Y-58163201D01*
X111103196Y-58134227D01*
X111159237Y-58110251D01*
X111122247Y-58087885D01*
X111091947Y-58061701D01*
X111067585Y-58031543D01*
X111049661Y-57997374D01*
X111038597Y-57958374D01*
X111035574Y-57923222D01*
X111209612Y-57923222D01*
X111216508Y-57969452D01*
X111235524Y-58002844D01*
X111267009Y-58026720D01*
X111306384Y-58041723D01*
X111358065Y-58051794D01*
X111425034Y-58055540D01*
X111549537Y-58055540D01*
X111549537Y-57797620D01*
X111495682Y-57794689D01*
X111423630Y-57793712D01*
X111360593Y-57797436D01*
X111309796Y-57807655D01*
X111269085Y-57823265D01*
X111236009Y-57847545D01*
X111216528Y-57879957D01*
X111209612Y-57923222D01*
X111035574Y-57923222D01*
X111034734Y-57913452D01*
X111038447Y-57864559D01*
X111048912Y-57823299D01*
X111065509Y-57788339D01*
X111102050Y-57742972D01*
X111151543Y-57706762D01*
X111210290Y-57680754D01*
X111282336Y-57662493D01*
X111359561Y-57652584D01*
X111446039Y-57649120D01*
X111513878Y-57650525D01*
G37*
G36*
X110246868Y-57911803D02*
G01*
X110252062Y-57961392D01*
X110267873Y-58010478D01*
X110291595Y-58057717D01*
X110321728Y-58104328D01*
X110356569Y-58148763D01*
X110396589Y-58192500D01*
X110480486Y-58275786D01*
X110530922Y-58325795D01*
X110584045Y-58384108D01*
X110627398Y-58440284D01*
X110642138Y-58466842D01*
X110646999Y-58485408D01*
X110216093Y-58485408D01*
X110216093Y-58630000D01*
X110833051Y-58630000D01*
X110834455Y-58602705D01*
X110834455Y-58578220D01*
X110828899Y-58512853D01*
X110812779Y-58454328D01*
X110787744Y-58399485D01*
X110756114Y-58348632D01*
X110719118Y-58301117D01*
X110677773Y-58256247D01*
X110591006Y-58170823D01*
X110526648Y-58107869D01*
X110472793Y-58046931D01*
X110451764Y-58016123D01*
X110435729Y-57985382D01*
X110425219Y-57953252D01*
X110421746Y-57920291D01*
X110427079Y-57873757D01*
X110441395Y-57840384D01*
X110463756Y-57816732D01*
X110493086Y-57799884D01*
X110526766Y-57789517D01*
X110565849Y-57785896D01*
X110604107Y-57788730D01*
X110638633Y-57796948D01*
X110698046Y-57823143D01*
X110743536Y-57854162D01*
X110772906Y-57879685D01*
X110856864Y-57760800D01*
X110793580Y-57711071D01*
X110719112Y-57671407D01*
X110665488Y-57652626D01*
X110608995Y-57641255D01*
X110549057Y-57637397D01*
X110470517Y-57642854D01*
X110408174Y-57657795D01*
X110358928Y-57680687D01*
X110320324Y-57710914D01*
X110289013Y-57749721D01*
X110266224Y-57795197D01*
X110251925Y-57848646D01*
X110246868Y-57911803D01*
G37*
G36*
X113247452Y-60153944D02*
G01*
X113320539Y-60161225D01*
X113383862Y-60172568D01*
X113383862Y-61130000D01*
X113207580Y-61130000D01*
X113207580Y-60790013D01*
X113119469Y-60790013D01*
X113016218Y-60785169D01*
X112930608Y-60771756D01*
X112852583Y-60747673D01*
X112790718Y-60714848D01*
X112755330Y-60686428D01*
X112726343Y-60653320D01*
X112703279Y-60615075D01*
X112687051Y-60573252D01*
X112676799Y-60524689D01*
X112673176Y-60468162D01*
X112673340Y-60466025D01*
X112857824Y-60466025D01*
X112862755Y-60514995D01*
X112876215Y-60552315D01*
X112897253Y-60580694D01*
X112926395Y-60601763D01*
X112973607Y-60620279D01*
X113037425Y-60632869D01*
X113122217Y-60637606D01*
X113207580Y-60637606D01*
X113207580Y-60305436D01*
X113097060Y-60301528D01*
X113047555Y-60303526D01*
X113002660Y-60309282D01*
X112960639Y-60319945D01*
X112926395Y-60335294D01*
X112897723Y-60357067D01*
X112876020Y-60385914D01*
X112862673Y-60420795D01*
X112857824Y-60466025D01*
X112673340Y-60466025D01*
X112678230Y-60402415D01*
X112692484Y-60346947D01*
X112715103Y-60299961D01*
X112745999Y-60260073D01*
X112785833Y-60226423D01*
X112842854Y-60194949D01*
X112913844Y-60170735D01*
X113001663Y-60154882D01*
X113109638Y-60149120D01*
X113247452Y-60153944D01*
G37*
G36*
X112277381Y-60997131D02*
G01*
X112214323Y-60992774D01*
X112169689Y-60981440D01*
X112138895Y-60965013D01*
X112114938Y-60940791D01*
X112100586Y-60911075D01*
X112095542Y-60874094D01*
X112099390Y-60840927D01*
X112110258Y-60814010D01*
X112127668Y-60790514D01*
X112152206Y-60768581D01*
X112181462Y-60749589D01*
X112218702Y-60730846D01*
X112308155Y-60696591D01*
X112405425Y-60656779D01*
X112449835Y-60632245D01*
X112487979Y-60602923D01*
X112520026Y-60567772D01*
X112545315Y-60526048D01*
X112561244Y-60478360D01*
X112566992Y-60418398D01*
X112560916Y-60354244D01*
X112543597Y-60299653D01*
X112515537Y-60252727D01*
X112476072Y-60212196D01*
X112429024Y-60180817D01*
X112373233Y-60157508D01*
X112307043Y-60142679D01*
X112228410Y-60137397D01*
X112140351Y-60142762D01*
X112066844Y-60157730D01*
X112000420Y-60180174D01*
X111955591Y-60201755D01*
X112010179Y-60344515D01*
X112059592Y-60321174D01*
X112114410Y-60303848D01*
X112171736Y-60293340D01*
X112231219Y-60289804D01*
X112277991Y-60293523D01*
X112314321Y-60303646D01*
X112342411Y-60319174D01*
X112364488Y-60341256D01*
X112377665Y-60368206D01*
X112382283Y-60401606D01*
X112378810Y-60432170D01*
X112369033Y-60456866D01*
X112353249Y-60478329D01*
X112331236Y-60498082D01*
X112273900Y-60531605D01*
X112201849Y-60560975D01*
X112079422Y-60612021D01*
X112028917Y-60640883D01*
X111988503Y-60673510D01*
X111955812Y-60712258D01*
X111931838Y-60757407D01*
X111917491Y-60808650D01*
X111912238Y-60874155D01*
X111918471Y-60938190D01*
X111936191Y-60992197D01*
X111964879Y-61038209D01*
X112005294Y-61077548D01*
X112052874Y-61106977D01*
X112112323Y-61129486D01*
X112186161Y-61144192D01*
X112277381Y-61149539D01*
X112336256Y-61147523D01*
X112387229Y-61141845D01*
X112475401Y-61123039D01*
X112541835Y-61100019D01*
X112586592Y-61078342D01*
X112534813Y-60934605D01*
X112493334Y-60954231D01*
X112432719Y-60976310D01*
X112364714Y-60991514D01*
X112277381Y-60997131D01*
G37*
G36*
X113148839Y-63497131D02*
G01*
X113085782Y-63492774D01*
X113041148Y-63481440D01*
X113010354Y-63465013D01*
X112986397Y-63440791D01*
X112972044Y-63411075D01*
X112967001Y-63374094D01*
X112970849Y-63340927D01*
X112981716Y-63314010D01*
X112999127Y-63290514D01*
X113023665Y-63268581D01*
X113052921Y-63249589D01*
X113090160Y-63230846D01*
X113179614Y-63196591D01*
X113276884Y-63156779D01*
X113321294Y-63132245D01*
X113359438Y-63102923D01*
X113391485Y-63067772D01*
X113416774Y-63026048D01*
X113432703Y-62978360D01*
X113438450Y-62918398D01*
X113432375Y-62854244D01*
X113415056Y-62799653D01*
X113386996Y-62752727D01*
X113347531Y-62712196D01*
X113300482Y-62680817D01*
X113244692Y-62657508D01*
X113178501Y-62642679D01*
X113099869Y-62637397D01*
X113011809Y-62642762D01*
X112938302Y-62657730D01*
X112871879Y-62680174D01*
X112827049Y-62701755D01*
X112881638Y-62844515D01*
X112931050Y-62821174D01*
X112985868Y-62803848D01*
X113043194Y-62793340D01*
X113102677Y-62789804D01*
X113149450Y-62793523D01*
X113185780Y-62803646D01*
X113213869Y-62819174D01*
X113235946Y-62841256D01*
X113249124Y-62868206D01*
X113253742Y-62901606D01*
X113250269Y-62932170D01*
X113240491Y-62956866D01*
X113224708Y-62978329D01*
X113202695Y-62998082D01*
X113145359Y-63031605D01*
X113073307Y-63060975D01*
X112950881Y-63112021D01*
X112900375Y-63140883D01*
X112859961Y-63173510D01*
X112827270Y-63212258D01*
X112803297Y-63257407D01*
X112788950Y-63308650D01*
X112783696Y-63374155D01*
X112789929Y-63438190D01*
X112807650Y-63492197D01*
X112836338Y-63538209D01*
X112876753Y-63577548D01*
X112924332Y-63606977D01*
X112983782Y-63629486D01*
X113057619Y-63644192D01*
X113148839Y-63649539D01*
X113207714Y-63647523D01*
X113258688Y-63641845D01*
X113346859Y-63623039D01*
X113413293Y-63600019D01*
X113458051Y-63578342D01*
X113406271Y-63434605D01*
X113364792Y-63454231D01*
X113304178Y-63476310D01*
X113236172Y-63491514D01*
X113148839Y-63497131D01*
G37*
G36*
X112197819Y-63649539D02*
G01*
X112269964Y-63645604D01*
X112334959Y-63634261D01*
X112393702Y-63616017D01*
X112449065Y-63589851D01*
X112497786Y-63557067D01*
X112540553Y-63517465D01*
X112576974Y-63471760D01*
X112607765Y-63419145D01*
X112632876Y-63358768D01*
X112650266Y-63295532D01*
X112661218Y-63224137D01*
X112665055Y-63143468D01*
X112660661Y-63063018D01*
X112648080Y-62991644D01*
X112627991Y-62928168D01*
X112599717Y-62867943D01*
X112565914Y-62815322D01*
X112526570Y-62769532D01*
X112481229Y-62729716D01*
X112431047Y-62696951D01*
X112375505Y-62670980D01*
X112316833Y-62652463D01*
X112254977Y-62641217D01*
X112189392Y-62637397D01*
X112130690Y-62639753D01*
X112080277Y-62646372D01*
X111994914Y-62666400D01*
X111934769Y-62689848D01*
X111901186Y-62707739D01*
X111952965Y-62852452D01*
X111990629Y-62833284D01*
X112048831Y-62812580D01*
X112112754Y-62798561D01*
X112183836Y-62793712D01*
X112245194Y-62799223D01*
X112301378Y-62815389D01*
X112352215Y-62842481D01*
X112395778Y-62880479D01*
X112430640Y-62928312D01*
X112458060Y-62989595D01*
X112474499Y-63058430D01*
X112480408Y-63142063D01*
X112475884Y-63217122D01*
X112462944Y-63283358D01*
X112440328Y-63344153D01*
X112409089Y-63394610D01*
X112368029Y-63436037D01*
X112316765Y-63467334D01*
X112257226Y-63486351D01*
X112182431Y-63493224D01*
X112093249Y-63487969D01*
X112029963Y-63474356D01*
X111974788Y-63454762D01*
X111938982Y-63438635D01*
X111891416Y-63583105D01*
X111936906Y-63605270D01*
X112004745Y-63626702D01*
X112092855Y-63643311D01*
X112197819Y-63649539D01*
G37*
G36*
X111122967Y-63477592D02*
G01*
X111122967Y-63630000D01*
X111735711Y-63630000D01*
X111735711Y-62660844D01*
X111559429Y-62660844D01*
X111559429Y-63477592D01*
X111122967Y-63477592D01*
G37*
G36*
X110955111Y-63887920D02*
G01*
X111128585Y-63887920D01*
X110655669Y-62535792D01*
X110485005Y-62535792D01*
X110955111Y-63887920D01*
G37*
G36*
X110157353Y-63497131D02*
G01*
X110094295Y-63492774D01*
X110049661Y-63481440D01*
X110018867Y-63465013D01*
X109994911Y-63440791D01*
X109980558Y-63411075D01*
X109975514Y-63374094D01*
X109979362Y-63340927D01*
X109990230Y-63314010D01*
X110007640Y-63290514D01*
X110032178Y-63268581D01*
X110061434Y-63249589D01*
X110098674Y-63230846D01*
X110188128Y-63196591D01*
X110285397Y-63156779D01*
X110329807Y-63132245D01*
X110367951Y-63102923D01*
X110399998Y-63067772D01*
X110425287Y-63026048D01*
X110441216Y-62978360D01*
X110446964Y-62918398D01*
X110440888Y-62854244D01*
X110423569Y-62799653D01*
X110395509Y-62752727D01*
X110356045Y-62712196D01*
X110308996Y-62680817D01*
X110253205Y-62657508D01*
X110187015Y-62642679D01*
X110108382Y-62637397D01*
X110020323Y-62642762D01*
X109946816Y-62657730D01*
X109880392Y-62680174D01*
X109835563Y-62701755D01*
X109890151Y-62844515D01*
X109939564Y-62821174D01*
X109994382Y-62803848D01*
X110051708Y-62793340D01*
X110111191Y-62789804D01*
X110157963Y-62793523D01*
X110194294Y-62803646D01*
X110222383Y-62819174D01*
X110244460Y-62841256D01*
X110257637Y-62868206D01*
X110262255Y-62901606D01*
X110258782Y-62932170D01*
X110249005Y-62956866D01*
X110233221Y-62978329D01*
X110211209Y-62998082D01*
X110153872Y-63031605D01*
X110081821Y-63060975D01*
X109959394Y-63112021D01*
X109908889Y-63140883D01*
X109868475Y-63173510D01*
X109835784Y-63212258D01*
X109811810Y-63257407D01*
X109797464Y-63308650D01*
X109792210Y-63374155D01*
X109798443Y-63438190D01*
X109816163Y-63492197D01*
X109844851Y-63538209D01*
X109885266Y-63577548D01*
X109932846Y-63606977D01*
X109992296Y-63629486D01*
X110066133Y-63644192D01*
X110157353Y-63649539D01*
X110216228Y-63647523D01*
X110267201Y-63641845D01*
X110355373Y-63623039D01*
X110421807Y-63600019D01*
X110466564Y-63578342D01*
X110414785Y-63434605D01*
X110373306Y-63454231D01*
X110312691Y-63476310D01*
X110244686Y-63491514D01*
X110157353Y-63497131D01*
G37*
G36*
X109206332Y-63649539D02*
G01*
X109278478Y-63645604D01*
X109343472Y-63634261D01*
X109402215Y-63616017D01*
X109457579Y-63589851D01*
X109506300Y-63557067D01*
X109549066Y-63517465D01*
X109585488Y-63471760D01*
X109616278Y-63419145D01*
X109641390Y-63358768D01*
X109658780Y-63295532D01*
X109669732Y-63224137D01*
X109673569Y-63143468D01*
X109669174Y-63063018D01*
X109656594Y-62991644D01*
X109636505Y-62928168D01*
X109608230Y-62867943D01*
X109574428Y-62815322D01*
X109535083Y-62769532D01*
X109489742Y-62729716D01*
X109439560Y-62696951D01*
X109384019Y-62670980D01*
X109325346Y-62652463D01*
X109263491Y-62641217D01*
X109197906Y-62637397D01*
X109139203Y-62639753D01*
X109088790Y-62646372D01*
X109003428Y-62666400D01*
X108943283Y-62689848D01*
X108909699Y-62707739D01*
X108961479Y-62852452D01*
X108999143Y-62833284D01*
X109057344Y-62812580D01*
X109121267Y-62798561D01*
X109192349Y-62793712D01*
X109253708Y-62799223D01*
X109309891Y-62815389D01*
X109360729Y-62842481D01*
X109404291Y-62880479D01*
X109439154Y-62928312D01*
X109466573Y-62989595D01*
X109483012Y-63058430D01*
X109488921Y-63142063D01*
X109484397Y-63217122D01*
X109471458Y-63283358D01*
X109448842Y-63344153D01*
X109417602Y-63394610D01*
X109376542Y-63436037D01*
X109325279Y-63467334D01*
X109265739Y-63486351D01*
X109190945Y-63493224D01*
X109101763Y-63487969D01*
X109038476Y-63474356D01*
X108983301Y-63454762D01*
X108947496Y-63438635D01*
X108899930Y-63583105D01*
X108945420Y-63605270D01*
X109013258Y-63626702D01*
X109101369Y-63643311D01*
X109206332Y-63649539D01*
G37*
G36*
X108165064Y-63630000D02*
G01*
X108249023Y-63512519D01*
X108349040Y-63393633D01*
X108457484Y-63284579D01*
X108514069Y-63235497D01*
X108567943Y-63195064D01*
X108567943Y-63630000D01*
X108744225Y-63630000D01*
X108744225Y-62660844D01*
X108567943Y-62660844D01*
X108567943Y-63060792D01*
X108471406Y-62962240D01*
X108371388Y-62855933D01*
X108276988Y-62751763D01*
X108195839Y-62660844D01*
X107984569Y-62660844D01*
X108082510Y-62771303D01*
X108188878Y-62886707D01*
X108298665Y-63002112D01*
X108407109Y-63111167D01*
X108348952Y-63158630D01*
X108287491Y-63215397D01*
X108167873Y-63342648D01*
X108055277Y-63483881D01*
X107956603Y-63630000D01*
X108165064Y-63630000D01*
G37*
G36*
X113427276Y-65657145D02*
G01*
X113178210Y-65657145D01*
X113178210Y-65383593D01*
X113027145Y-65383593D01*
X113027145Y-65657145D01*
X112778079Y-65657145D01*
X112778079Y-65801737D01*
X113027145Y-65801737D01*
X113027145Y-66075289D01*
X113178210Y-66075289D01*
X113178210Y-65801737D01*
X113427276Y-65801737D01*
X113427276Y-65657145D01*
G37*
G36*
X112375505Y-66149539D02*
G01*
X112453175Y-66144715D01*
X112528768Y-66132381D01*
X112593797Y-66115894D01*
X112638555Y-66098736D01*
X112604972Y-65954145D01*
X112519670Y-65984309D01*
X112460197Y-65996466D01*
X112381184Y-66001039D01*
X112308403Y-65995324D01*
X112257066Y-65980413D01*
X112221693Y-65958541D01*
X112194687Y-65927310D01*
X112178417Y-65890036D01*
X112172723Y-65844846D01*
X112177754Y-65801510D01*
X112191652Y-65768215D01*
X112213860Y-65740627D01*
X112243370Y-65718695D01*
X112278047Y-65702858D01*
X112318902Y-65692194D01*
X112362286Y-65686468D01*
X112409150Y-65684501D01*
X112466486Y-65684501D01*
X112466486Y-65547725D01*
X112396510Y-65547725D01*
X112331481Y-65541435D01*
X112299932Y-65532602D01*
X112272069Y-65519087D01*
X112247929Y-65500382D01*
X112228654Y-65476406D01*
X112216381Y-65447259D01*
X112211863Y-65407834D01*
X112215186Y-65375955D01*
X112224441Y-65350560D01*
X112239068Y-65328722D01*
X112257353Y-65311359D01*
X112278981Y-65298182D01*
X112304187Y-65289010D01*
X112360179Y-65281988D01*
X112420900Y-65287001D01*
X112472103Y-65301161D01*
X112519115Y-65322028D01*
X112558810Y-65344515D01*
X112620359Y-65219462D01*
X112572793Y-65192595D01*
X112510572Y-65165729D01*
X112437116Y-65145212D01*
X112397289Y-65139390D01*
X112354562Y-65137397D01*
X112276557Y-65142632D01*
X112214672Y-65156936D01*
X112159996Y-65181078D01*
X112117463Y-65212135D01*
X112083850Y-65250944D01*
X112060127Y-65295910D01*
X112046048Y-65345708D01*
X112041198Y-65401362D01*
X112045390Y-65444850D01*
X112057707Y-65484598D01*
X112078262Y-65521468D01*
X112105428Y-65554096D01*
X112137205Y-65580959D01*
X112174066Y-65602435D01*
X112126377Y-65624158D01*
X112084895Y-65653400D01*
X112048892Y-65690607D01*
X112021937Y-65734086D01*
X112005142Y-65786062D01*
X111999188Y-65848693D01*
X112004894Y-65911341D01*
X112021598Y-65968372D01*
X112049803Y-66019651D01*
X112090108Y-66063504D01*
X112140947Y-66098389D01*
X112206978Y-66126458D01*
X112281416Y-66143347D01*
X112375505Y-66149539D01*
G37*
G36*
X111518335Y-66130000D02*
G01*
X111620490Y-65900181D01*
X111720507Y-65655924D01*
X111814594Y-65407864D01*
X111901674Y-65160844D01*
X111707196Y-65160844D01*
X111638625Y-65360818D01*
X111568710Y-65561524D01*
X111498735Y-65752400D01*
X111430163Y-65921599D01*
X111363058Y-65753072D01*
X111292411Y-65562196D01*
X111221763Y-65360818D01*
X111154596Y-65160844D01*
X110965675Y-65160844D01*
X111053669Y-65407944D01*
X111147575Y-65655924D01*
X111247023Y-65900143D01*
X111349014Y-66130000D01*
X111518335Y-66130000D01*
G37*
G36*
X110625750Y-66149539D02*
G01*
X110703419Y-66144715D01*
X110779012Y-66132381D01*
X110844042Y-66115894D01*
X110888799Y-66098736D01*
X110855216Y-65954145D01*
X110769914Y-65984309D01*
X110710441Y-65996466D01*
X110631428Y-66001039D01*
X110558647Y-65995324D01*
X110507311Y-65980413D01*
X110471938Y-65958541D01*
X110444931Y-65927310D01*
X110428661Y-65890036D01*
X110422967Y-65844846D01*
X110427998Y-65801510D01*
X110441896Y-65768215D01*
X110464104Y-65740627D01*
X110493614Y-65718695D01*
X110528291Y-65702858D01*
X110569146Y-65692194D01*
X110612530Y-65686468D01*
X110659394Y-65684501D01*
X110716730Y-65684501D01*
X110716730Y-65547725D01*
X110646755Y-65547725D01*
X110581725Y-65541435D01*
X110550176Y-65532602D01*
X110522313Y-65519087D01*
X110498174Y-65500382D01*
X110478899Y-65476406D01*
X110466625Y-65447259D01*
X110462107Y-65407834D01*
X110465430Y-65375955D01*
X110474685Y-65350560D01*
X110489313Y-65328722D01*
X110507597Y-65311359D01*
X110529225Y-65298182D01*
X110554431Y-65289010D01*
X110610423Y-65281988D01*
X110671144Y-65287001D01*
X110722348Y-65301161D01*
X110769360Y-65322028D01*
X110809054Y-65344515D01*
X110870603Y-65219462D01*
X110823037Y-65192595D01*
X110760816Y-65165729D01*
X110687360Y-65145212D01*
X110647533Y-65139390D01*
X110604806Y-65137397D01*
X110526801Y-65142632D01*
X110464916Y-65156936D01*
X110410240Y-65181078D01*
X110367707Y-65212135D01*
X110334094Y-65250944D01*
X110310371Y-65295910D01*
X110296293Y-65345708D01*
X110291442Y-65401362D01*
X110295635Y-65444850D01*
X110307951Y-65484598D01*
X110328506Y-65521468D01*
X110355672Y-65554096D01*
X110387449Y-65580959D01*
X110424310Y-65602435D01*
X110376621Y-65624158D01*
X110335139Y-65653400D01*
X110299136Y-65690607D01*
X110272181Y-65734086D01*
X110255386Y-65786062D01*
X110249433Y-65848693D01*
X110255138Y-65911341D01*
X110271842Y-65968372D01*
X110300047Y-66019651D01*
X110340352Y-66063504D01*
X110391191Y-66098389D01*
X110457222Y-66126458D01*
X110531660Y-66143347D01*
X110625750Y-66149539D01*
G37*
D11*
%TO.C,G\u002A\u002A\u002A*%
G36*
X105110298Y-76963008D02*
G01*
X105125413Y-77002620D01*
X105142927Y-77066601D01*
X105162371Y-77153439D01*
X105183276Y-77261618D01*
X105197491Y-77340941D01*
X105211958Y-77430809D01*
X105219850Y-77504681D01*
X105220240Y-77568543D01*
X105212205Y-77628377D01*
X105194818Y-77690168D01*
X105167155Y-77759900D01*
X105128291Y-77843555D01*
X105077301Y-77947119D01*
X104942009Y-78219562D01*
X104938103Y-77899780D01*
X104934196Y-77579998D01*
X104992188Y-77387973D01*
X104993542Y-77383474D01*
X105017001Y-77301354D01*
X105038588Y-77218621D01*
X105055958Y-77144678D01*
X105066765Y-77088926D01*
X105067665Y-77083152D01*
X105076612Y-77028578D01*
X105084570Y-76984559D01*
X105089912Y-76960159D01*
X105098050Y-76949280D01*
X105110298Y-76963008D01*
G37*
G36*
X102618042Y-72761635D02*
G01*
X102655601Y-72772997D01*
X102711982Y-72793763D01*
X102789700Y-72824822D01*
X102891268Y-72867060D01*
X103044180Y-72931423D01*
X103107136Y-73122703D01*
X103113969Y-73143451D01*
X103136735Y-73212362D01*
X103156048Y-73270504D01*
X103170046Y-73312283D01*
X103176865Y-73332105D01*
X103179185Y-73339487D01*
X103178464Y-73349665D01*
X103171541Y-73348729D01*
X103132805Y-73340919D01*
X103078184Y-73327627D01*
X103013965Y-73310643D01*
X102946436Y-73291758D01*
X102881884Y-73272763D01*
X102826594Y-73255449D01*
X102786856Y-73241606D01*
X102768954Y-73233025D01*
X102761135Y-73220643D01*
X102744020Y-73184905D01*
X102721685Y-73132725D01*
X102696172Y-73069508D01*
X102669522Y-73000655D01*
X102643776Y-72931570D01*
X102620974Y-72867657D01*
X102603157Y-72814317D01*
X102592367Y-72776955D01*
X102590644Y-72760973D01*
X102596790Y-72758792D01*
X102618042Y-72761635D01*
G37*
G36*
X105343678Y-71419776D02*
G01*
X105390090Y-71434830D01*
X105403235Y-71439648D01*
X105449600Y-71458143D01*
X105510064Y-71483656D01*
X105580102Y-71514131D01*
X105655191Y-71547508D01*
X105730807Y-71581729D01*
X105802427Y-71614736D01*
X105865526Y-71644470D01*
X105915582Y-71668873D01*
X105948071Y-71685887D01*
X105958468Y-71693453D01*
X105954008Y-71694438D01*
X105928475Y-71691353D01*
X105889449Y-71682291D01*
X105809025Y-71668413D01*
X105709002Y-71665802D01*
X105609458Y-71675882D01*
X105523449Y-71698089D01*
X105507220Y-71704690D01*
X105423105Y-71754396D01*
X105341280Y-71826919D01*
X105266679Y-71917278D01*
X105204235Y-72020490D01*
X105175776Y-72073720D01*
X105149068Y-72112406D01*
X105124853Y-72129258D01*
X105098801Y-72127043D01*
X105066583Y-72108532D01*
X105063034Y-72106011D01*
X105046547Y-72091086D01*
X105038584Y-72071700D01*
X105037473Y-72039745D01*
X105041543Y-71987114D01*
X105050126Y-71923277D01*
X105064836Y-71845190D01*
X105083773Y-71761058D01*
X105105154Y-71677814D01*
X105127197Y-71602388D01*
X105148118Y-71541714D01*
X105166135Y-71502721D01*
X105200041Y-71464124D01*
X105254314Y-71430730D01*
X105282750Y-71420226D01*
X105311979Y-71415031D01*
X105343678Y-71419776D01*
G37*
G36*
X105339569Y-71943957D02*
G01*
X105351265Y-71947495D01*
X105378603Y-71957867D01*
X105422959Y-71975646D01*
X105485710Y-72001404D01*
X105568232Y-72035713D01*
X105671903Y-72079145D01*
X105798099Y-72132273D01*
X105948197Y-72195669D01*
X106123573Y-72269904D01*
X106324486Y-72354964D01*
X106594898Y-72469300D01*
X106878408Y-72589023D01*
X107167409Y-72710918D01*
X107205753Y-72727120D01*
X107279242Y-72758385D01*
X107343532Y-72786007D01*
X107392773Y-72807466D01*
X107421119Y-72820242D01*
X107433293Y-72826168D01*
X107450225Y-72835425D01*
X107454856Y-72840332D01*
X107445646Y-72840464D01*
X107421057Y-72835399D01*
X107379548Y-72824712D01*
X107319581Y-72807981D01*
X107239615Y-72784782D01*
X107138112Y-72754692D01*
X107013533Y-72717286D01*
X106864336Y-72672142D01*
X106688984Y-72618835D01*
X106597831Y-72591127D01*
X106452183Y-72546984D01*
X106289924Y-72497929D01*
X106117547Y-72445918D01*
X105941542Y-72392907D01*
X105768402Y-72340853D01*
X105604617Y-72291712D01*
X105456678Y-72247440D01*
X105379261Y-72224210D01*
X105308000Y-72202622D01*
X105251170Y-72185183D01*
X105213227Y-72173262D01*
X105198625Y-72168226D01*
X105198382Y-72166527D01*
X105206652Y-72147477D01*
X105225852Y-72113067D01*
X105251799Y-72069963D01*
X105280308Y-72024832D01*
X105307195Y-71984342D01*
X105328277Y-71955158D01*
X105339371Y-71943949D01*
X105339569Y-71943957D01*
G37*
G36*
X103401627Y-72311947D02*
G01*
X103411679Y-72313620D01*
X103451801Y-72319435D01*
X103514721Y-72327988D01*
X103597001Y-72338851D01*
X103695204Y-72351594D01*
X103805893Y-72365786D01*
X103925632Y-72381000D01*
X104050983Y-72396805D01*
X104178510Y-72412771D01*
X104304775Y-72428470D01*
X104426341Y-72443471D01*
X104539771Y-72457345D01*
X104641628Y-72469663D01*
X104728476Y-72479995D01*
X104796877Y-72487911D01*
X104843394Y-72492982D01*
X104864590Y-72494779D01*
X104881296Y-72492374D01*
X104919072Y-72471924D01*
X104966074Y-72428392D01*
X104996741Y-72398006D01*
X105036943Y-72363105D01*
X105068145Y-72341405D01*
X105123492Y-72324311D01*
X105191328Y-72323882D01*
X105252975Y-72342256D01*
X105267152Y-72350717D01*
X105310635Y-72386878D01*
X105353439Y-72434089D01*
X105387852Y-72483153D01*
X105406160Y-72524877D01*
X105420071Y-72563560D01*
X105460511Y-72620284D01*
X105516220Y-72662388D01*
X105542308Y-72674206D01*
X105590987Y-72694062D01*
X105653165Y-72718122D01*
X105721532Y-72743497D01*
X105784543Y-72766976D01*
X105839888Y-72788756D01*
X105879725Y-72805726D01*
X105898134Y-72815474D01*
X105898151Y-72815490D01*
X105890256Y-72820653D01*
X105857246Y-72824709D01*
X105802979Y-72827360D01*
X105731314Y-72828310D01*
X105658771Y-72829388D01*
X105589804Y-72832440D01*
X105534321Y-72836989D01*
X105500076Y-72842559D01*
X105473858Y-72854068D01*
X105420452Y-72893535D01*
X105354004Y-72958541D01*
X105342608Y-72970676D01*
X105301272Y-73013556D01*
X105271588Y-73039971D01*
X105247016Y-73053906D01*
X105221017Y-73059346D01*
X105187054Y-73060273D01*
X105177357Y-73060078D01*
X105116508Y-73051618D01*
X105065014Y-73033682D01*
X105018806Y-72998926D01*
X104970196Y-72939941D01*
X104930642Y-72868169D01*
X104905788Y-72792174D01*
X104898082Y-72759337D01*
X104886757Y-72722737D01*
X104877544Y-72705558D01*
X104877363Y-72705455D01*
X104862555Y-72701106D01*
X104826378Y-72692562D01*
X104768047Y-72679661D01*
X104686776Y-72662238D01*
X104581781Y-72640128D01*
X104452276Y-72613167D01*
X104297477Y-72581190D01*
X104116597Y-72544034D01*
X103908853Y-72501534D01*
X103673459Y-72453526D01*
X103666775Y-72452164D01*
X103543532Y-72426716D01*
X103446102Y-72405802D01*
X103371901Y-72388756D01*
X103318347Y-72374913D01*
X103282858Y-72363608D01*
X103262852Y-72354177D01*
X103255746Y-72345953D01*
X103255595Y-72341389D01*
X103270400Y-72324117D01*
X103304714Y-72312278D01*
X103350976Y-72307634D01*
X103401627Y-72311947D01*
G37*
G36*
X105864439Y-75973209D02*
G01*
X105777783Y-76148693D01*
X105748079Y-76206316D01*
X105712191Y-76279497D01*
X105678897Y-76352667D01*
X105646682Y-76429811D01*
X105614036Y-76514910D01*
X105579443Y-76611948D01*
X105541392Y-76724908D01*
X105498368Y-76857773D01*
X105448860Y-77014526D01*
X105418830Y-77109353D01*
X105390299Y-77197373D01*
X105365387Y-77272117D01*
X105345319Y-77329975D01*
X105331321Y-77367337D01*
X105324618Y-77380593D01*
X105310607Y-77372238D01*
X105291200Y-77342509D01*
X105273444Y-77298974D01*
X105261293Y-77249797D01*
X105257672Y-77229643D01*
X105246720Y-77175915D01*
X105232084Y-77109352D01*
X105215912Y-77039897D01*
X105191503Y-76930590D01*
X105169997Y-76805348D01*
X105159319Y-76690790D01*
X105158734Y-76578075D01*
X105167505Y-76458361D01*
X105167546Y-76457975D01*
X105175043Y-76383824D01*
X105178906Y-76330233D01*
X105178564Y-76288965D01*
X105173444Y-76251783D01*
X105162976Y-76210449D01*
X105146589Y-76156728D01*
X105140445Y-76137587D01*
X105080048Y-75984844D01*
X105001160Y-75832113D01*
X104909996Y-75691609D01*
X104841213Y-75589551D01*
X104804446Y-75520120D01*
X105446469Y-75520120D01*
X105448781Y-75564754D01*
X105449783Y-75575556D01*
X105454159Y-75627800D01*
X105459640Y-75698681D01*
X105465625Y-75780271D01*
X105471514Y-75864640D01*
X105474151Y-75902098D01*
X105479767Y-75973704D01*
X105485115Y-76032029D01*
X105489693Y-76071853D01*
X105492999Y-76087956D01*
X105495733Y-76087680D01*
X105507839Y-76071159D01*
X105523921Y-76038156D01*
X105539129Y-75987036D01*
X105550553Y-75913364D01*
X105555824Y-75831818D01*
X105554282Y-75753232D01*
X105545266Y-75688442D01*
X105543559Y-75681525D01*
X105527567Y-75628280D01*
X105507438Y-75574593D01*
X105486296Y-75527516D01*
X105467269Y-75494098D01*
X105453480Y-75481392D01*
X105448718Y-75489868D01*
X105446469Y-75520120D01*
X104804446Y-75520120D01*
X104767860Y-75451030D01*
X104722356Y-75319199D01*
X104704743Y-75194253D01*
X104715063Y-75076387D01*
X104753358Y-74965794D01*
X104762871Y-74947292D01*
X104800645Y-74893042D01*
X104846071Y-74860929D01*
X104905223Y-74847933D01*
X104984180Y-74851033D01*
X105036616Y-74859045D01*
X105111035Y-74873845D01*
X105198810Y-74893596D01*
X105293977Y-74916752D01*
X105390571Y-74941765D01*
X105482629Y-74967088D01*
X105564187Y-74991175D01*
X105629279Y-75012477D01*
X105671943Y-75029448D01*
X105722002Y-75056960D01*
X105815428Y-75126889D01*
X105895444Y-75211649D01*
X105956907Y-75305302D01*
X105994671Y-75401912D01*
X106003721Y-75460990D01*
X105999712Y-75561584D01*
X105975258Y-75680153D01*
X105930215Y-75817195D01*
X105924050Y-75831818D01*
X105864439Y-75973209D01*
G37*
G36*
X103022935Y-72647635D02*
G01*
X103055215Y-72657847D01*
X103174418Y-72695722D01*
X103305228Y-72737504D01*
X103445031Y-72782342D01*
X103591213Y-72829385D01*
X103741159Y-72877782D01*
X103892255Y-72926680D01*
X104041887Y-72975230D01*
X104187439Y-73022580D01*
X104326299Y-73067878D01*
X104455852Y-73110273D01*
X104573482Y-73148914D01*
X104676576Y-73182949D01*
X104762520Y-73211528D01*
X104828698Y-73233799D01*
X104872498Y-73248910D01*
X104891304Y-73256011D01*
X104900107Y-73261507D01*
X104928060Y-73290331D01*
X104960692Y-73340455D01*
X105000150Y-73415015D01*
X105022906Y-73459850D01*
X105048763Y-73508050D01*
X105068087Y-73540846D01*
X105077857Y-73552876D01*
X105079914Y-73551341D01*
X105091682Y-73530973D01*
X105109549Y-73491911D01*
X105130532Y-73440519D01*
X105154952Y-73383007D01*
X105177993Y-73343117D01*
X105195771Y-73331120D01*
X105207071Y-73333350D01*
X105243885Y-73341938D01*
X105300025Y-73355692D01*
X105370277Y-73373327D01*
X105449430Y-73393560D01*
X105591537Y-73427049D01*
X105739867Y-73453441D01*
X105865329Y-73465243D01*
X105967229Y-73462395D01*
X106044870Y-73444838D01*
X106082445Y-73428330D01*
X106160575Y-73375085D01*
X106215764Y-73306362D01*
X106246369Y-73224653D01*
X106250747Y-73132453D01*
X106248594Y-73115827D01*
X106224156Y-73042902D01*
X106174515Y-72974566D01*
X106097784Y-72908047D01*
X106076542Y-72891825D01*
X106048736Y-72867774D01*
X106037473Y-72853681D01*
X106039747Y-72852708D01*
X106064442Y-72850419D01*
X106113859Y-72848327D01*
X106184959Y-72846490D01*
X106274701Y-72844963D01*
X106380047Y-72843803D01*
X106497957Y-72843066D01*
X106625391Y-72842807D01*
X107214194Y-72842807D01*
X107204282Y-72908906D01*
X107183285Y-73018262D01*
X107125894Y-73202285D01*
X107044102Y-73373669D01*
X106939825Y-73530392D01*
X106814978Y-73670431D01*
X106671478Y-73791764D01*
X106511241Y-73892370D01*
X106336184Y-73970227D01*
X106148221Y-74023312D01*
X106115403Y-74029181D01*
X106016592Y-74039850D01*
X105900560Y-74044717D01*
X105775311Y-74043768D01*
X105648846Y-74036991D01*
X105529167Y-74024371D01*
X105437362Y-74013390D01*
X105253425Y-74002847D01*
X105083293Y-74010621D01*
X104920664Y-74037194D01*
X104759238Y-74083044D01*
X104691486Y-74104583D01*
X104601865Y-74130598D01*
X104498745Y-74158820D01*
X104389004Y-74187493D01*
X104279522Y-74214859D01*
X104177175Y-74239160D01*
X104088843Y-74258640D01*
X104021404Y-74271542D01*
X103959910Y-74279174D01*
X103853930Y-74285174D01*
X103733644Y-74285655D01*
X103607324Y-74280814D01*
X103483244Y-74270849D01*
X103369676Y-74255958D01*
X103334261Y-74249996D01*
X103280737Y-74240277D01*
X103242762Y-74232441D01*
X103226886Y-74227779D01*
X103226358Y-74223301D01*
X103229808Y-74196377D01*
X103238393Y-74151136D01*
X103250919Y-74094214D01*
X103285996Y-73915560D01*
X103309671Y-73689401D01*
X103307163Y-73474265D01*
X103278283Y-73268950D01*
X103222840Y-73072256D01*
X103140647Y-72882980D01*
X103031515Y-72699922D01*
X103008302Y-72665198D01*
X102998635Y-72646683D01*
X103003784Y-72642481D01*
X103022935Y-72647635D01*
G37*
G36*
X105666668Y-74314326D02*
G01*
X105680227Y-74410802D01*
X105692627Y-74465705D01*
X105710669Y-74545594D01*
X105734832Y-74626399D01*
X105754868Y-74693403D01*
X105811227Y-74848334D01*
X105812424Y-74851364D01*
X105837589Y-74916394D01*
X105858152Y-74972003D01*
X105872024Y-75012369D01*
X105877112Y-75031676D01*
X105876931Y-75033325D01*
X105864676Y-75035467D01*
X105837243Y-75020150D01*
X105826130Y-75012364D01*
X105738192Y-74957766D01*
X105643152Y-74911773D01*
X105536639Y-74872988D01*
X105414284Y-74840016D01*
X105271718Y-74811459D01*
X105104572Y-74785920D01*
X105076330Y-74782058D01*
X104985398Y-74768761D01*
X104918185Y-74756876D01*
X104870622Y-74745239D01*
X104838643Y-74732684D01*
X104818179Y-74718047D01*
X104805163Y-74700162D01*
X104803717Y-74696952D01*
X104796643Y-74664829D01*
X104793135Y-74629583D01*
X105115982Y-74629583D01*
X105159475Y-74648897D01*
X105204142Y-74662101D01*
X105253710Y-74667368D01*
X105274975Y-74666250D01*
X105322421Y-74659751D01*
X105367058Y-74649456D01*
X105400207Y-74637595D01*
X105413185Y-74626399D01*
X105411916Y-74622313D01*
X105391571Y-74610799D01*
X105352247Y-74602774D01*
X105301525Y-74598626D01*
X105246987Y-74598740D01*
X105196216Y-74603505D01*
X105156795Y-74613307D01*
X105115982Y-74629583D01*
X104793135Y-74629583D01*
X104791665Y-74614810D01*
X104789783Y-74556262D01*
X104789680Y-74540235D01*
X104785047Y-74473134D01*
X105153847Y-74473134D01*
X105175159Y-74486747D01*
X105180535Y-74488474D01*
X105220334Y-74493388D01*
X105271249Y-74492249D01*
X105318950Y-74485209D01*
X105342588Y-74478052D01*
X105359104Y-74465705D01*
X105347291Y-74454059D01*
X105307538Y-74444510D01*
X105262444Y-74440566D01*
X105215815Y-74442362D01*
X105178974Y-74449410D01*
X105156718Y-74460177D01*
X105153847Y-74473134D01*
X104785047Y-74473134D01*
X104783904Y-74456574D01*
X104767170Y-74391821D01*
X104736551Y-74338165D01*
X104697997Y-74297224D01*
X105077355Y-74297224D01*
X105078160Y-74311298D01*
X105093100Y-74319051D01*
X105133127Y-74327052D01*
X105186786Y-74330986D01*
X105245110Y-74330672D01*
X105299135Y-74325928D01*
X105339896Y-74316574D01*
X105354230Y-74310727D01*
X105374164Y-74297425D01*
X105367903Y-74286499D01*
X105334514Y-74277287D01*
X105273066Y-74269126D01*
X105244143Y-74267130D01*
X105188941Y-74268128D01*
X105138743Y-74274342D01*
X105099549Y-74284473D01*
X105077355Y-74297224D01*
X104697997Y-74297224D01*
X104689119Y-74287796D01*
X104665516Y-74265902D01*
X104640157Y-74240549D01*
X104630309Y-74227936D01*
X104632790Y-74225389D01*
X104654714Y-74216088D01*
X104691924Y-74204812D01*
X104722783Y-74195192D01*
X104777323Y-74175813D01*
X104843466Y-74150693D01*
X104913014Y-74122870D01*
X104958048Y-74104705D01*
X105025210Y-74080105D01*
X105081333Y-74064392D01*
X105136112Y-74055088D01*
X105199244Y-74049715D01*
X105209103Y-74049184D01*
X105294535Y-74048701D01*
X105383381Y-74054363D01*
X105467558Y-74065167D01*
X105538984Y-74080109D01*
X105589575Y-74098185D01*
X105597913Y-74103006D01*
X105623681Y-74128368D01*
X105642648Y-74169008D01*
X105656436Y-74229477D01*
X105664630Y-74297425D01*
X105666668Y-74314326D01*
G37*
%TD*%
M02*
