%TF.GenerationSoftware,KiCad,Pcbnew,10.0.1-10.0.1~ubuntu22.04.1*%
%TF.CreationDate,2026-05-31T12:36:50-04:00*%
%TF.ProjectId,BMI088-BOB,466c6967-6874-4436-9f72-655043422e6b,v1.0*%
%TF.SameCoordinates,Original*%
%TF.FileFunction,Soldermask,Top*%
%TF.FilePolarity,Negative*%
%FSLAX46Y46*%
G04 Gerber Fmt 4.6, Leading zero omitted, Abs format (unit mm)*
G04 Created by KiCad (PCBNEW 10.0.1-10.0.1~ubuntu22.04.1) date 2026-05-31 12:36:50*
%MOMM*%
%LPD*%
G01*
G04 APERTURE LIST*
G04 APERTURE END LIST*
G36*
X93780134Y-75133156D02*
G01*
X93959220Y-75191345D01*
X94126998Y-75276832D01*
X94279338Y-75387513D01*
X94412487Y-75520662D01*
X94523168Y-75673002D01*
X94608655Y-75840780D01*
X94666844Y-76019866D01*
X94696301Y-76205849D01*
X94696301Y-76394151D01*
X94666844Y-76580134D01*
X94608655Y-76759220D01*
X94523168Y-76926998D01*
X94412487Y-77079338D01*
X94279338Y-77212487D01*
X94126998Y-77323168D01*
X93959220Y-77408655D01*
X93780134Y-77466844D01*
X93594151Y-77496301D01*
X93405849Y-77496301D01*
X93219866Y-77466844D01*
X93040780Y-77408655D01*
X92873002Y-77323168D01*
X92720662Y-77212487D01*
X92587513Y-77079338D01*
X92476832Y-76926998D01*
X92391345Y-76759220D01*
X92333156Y-76580134D01*
X92303699Y-76394151D01*
X92303699Y-76205849D01*
X92333156Y-76019866D01*
X92391345Y-75840780D01*
X92476832Y-75673002D01*
X92587513Y-75520662D01*
X92720662Y-75387513D01*
X92873002Y-75276832D01*
X93040780Y-75191345D01*
X93219866Y-75133156D01*
X93405849Y-75103699D01*
X93594151Y-75103699D01*
X93780134Y-75133156D01*
G37*
G36*
X116780134Y-75133156D02*
G01*
X116959220Y-75191345D01*
X117126998Y-75276832D01*
X117279338Y-75387513D01*
X117412487Y-75520662D01*
X117523168Y-75673002D01*
X117608655Y-75840780D01*
X117666844Y-76019866D01*
X117696301Y-76205849D01*
X117696301Y-76394151D01*
X117666844Y-76580134D01*
X117608655Y-76759220D01*
X117523168Y-76926998D01*
X117412487Y-77079338D01*
X117279338Y-77212487D01*
X117126998Y-77323168D01*
X116959220Y-77408655D01*
X116780134Y-77466844D01*
X116594151Y-77496301D01*
X116405849Y-77496301D01*
X116219866Y-77466844D01*
X116040780Y-77408655D01*
X115873002Y-77323168D01*
X115720662Y-77212487D01*
X115587513Y-77079338D01*
X115476832Y-76926998D01*
X115391345Y-76759220D01*
X115333156Y-76580134D01*
X115303699Y-76394151D01*
X115303699Y-76205849D01*
X115333156Y-76019866D01*
X115391345Y-75840780D01*
X115476832Y-75673002D01*
X115587513Y-75520662D01*
X115720662Y-75387513D01*
X115873002Y-75276832D01*
X116040780Y-75191345D01*
X116219866Y-75133156D01*
X116405849Y-75103699D01*
X116594151Y-75103699D01*
X116780134Y-75133156D01*
G37*
G36*
X116275770Y-69965907D02*
G01*
X116447827Y-70037175D01*
X116602674Y-70140640D01*
X116734360Y-70272326D01*
X116837825Y-70427173D01*
X116909093Y-70599230D01*
X116945425Y-70781884D01*
X116945425Y-70968116D01*
X116909093Y-71150770D01*
X116837825Y-71322827D01*
X116734360Y-71477674D01*
X116602674Y-71609360D01*
X116447827Y-71712825D01*
X116275770Y-71784093D01*
X116093116Y-71820425D01*
X115906884Y-71820425D01*
X115724230Y-71784093D01*
X115552173Y-71712825D01*
X115397326Y-71609360D01*
X115265640Y-71477674D01*
X115162175Y-71322827D01*
X115090907Y-71150770D01*
X115054575Y-70968116D01*
X115054575Y-70781884D01*
X115090907Y-70599230D01*
X115162175Y-70427173D01*
X115265640Y-70272326D01*
X115397326Y-70140640D01*
X115552173Y-70037175D01*
X115724230Y-69965907D01*
X115906884Y-69929575D01*
X116093116Y-69929575D01*
X116275770Y-69965907D01*
G37*
G36*
X93275770Y-69933407D02*
G01*
X93447827Y-70004675D01*
X93602674Y-70108140D01*
X93734360Y-70239826D01*
X93837825Y-70394673D01*
X93909093Y-70566730D01*
X93945425Y-70749384D01*
X93945425Y-70935616D01*
X93909093Y-71118270D01*
X93837825Y-71290327D01*
X93734360Y-71445174D01*
X93602674Y-71576860D01*
X93447827Y-71680325D01*
X93275770Y-71751593D01*
X93093116Y-71787925D01*
X92906884Y-71787925D01*
X92724230Y-71751593D01*
X92552173Y-71680325D01*
X92397326Y-71576860D01*
X92265640Y-71445174D01*
X92162175Y-71290327D01*
X92090907Y-71118270D01*
X92054575Y-70935616D01*
X92054575Y-70749384D01*
X92090907Y-70566730D01*
X92162175Y-70394673D01*
X92265640Y-70239826D01*
X92397326Y-70108140D01*
X92552173Y-70004675D01*
X92724230Y-69933407D01*
X92906884Y-69897075D01*
X93093116Y-69897075D01*
X93275770Y-69933407D01*
G37*
G36*
X111351537Y-68502724D02*
G01*
X111416421Y-68546079D01*
X111459776Y-68610963D01*
X111475000Y-68687500D01*
X111475000Y-69087500D01*
X111459776Y-69164037D01*
X111416421Y-69228921D01*
X111351537Y-69272276D01*
X111275000Y-69287500D01*
X110725000Y-69287500D01*
X110648463Y-69272276D01*
X110583579Y-69228921D01*
X110540224Y-69164037D01*
X110525000Y-69087500D01*
X110525000Y-68687500D01*
X110540224Y-68610963D01*
X110583579Y-68546079D01*
X110648463Y-68502724D01*
X110725000Y-68487500D01*
X111275000Y-68487500D01*
X111351537Y-68502724D01*
G37*
G36*
X116275770Y-67425907D02*
G01*
X116447827Y-67497175D01*
X116602674Y-67600640D01*
X116734360Y-67732326D01*
X116837825Y-67887173D01*
X116909093Y-68059230D01*
X116945425Y-68241884D01*
X116945425Y-68428116D01*
X116909093Y-68610770D01*
X116837825Y-68782827D01*
X116734360Y-68937674D01*
X116602674Y-69069360D01*
X116447827Y-69172825D01*
X116275770Y-69244093D01*
X116093116Y-69280425D01*
X115906884Y-69280425D01*
X115724230Y-69244093D01*
X115552173Y-69172825D01*
X115397326Y-69069360D01*
X115265640Y-68937674D01*
X115162175Y-68782827D01*
X115090907Y-68610770D01*
X115054575Y-68428116D01*
X115054575Y-68241884D01*
X115090907Y-68059230D01*
X115162175Y-67887173D01*
X115265640Y-67732326D01*
X115397326Y-67600640D01*
X115552173Y-67497175D01*
X115724230Y-67425907D01*
X115906884Y-67389575D01*
X116093116Y-67389575D01*
X116275770Y-67425907D01*
G37*
G36*
X93275770Y-67393407D02*
G01*
X93447827Y-67464675D01*
X93602674Y-67568140D01*
X93734360Y-67699826D01*
X93837825Y-67854673D01*
X93909093Y-68026730D01*
X93945425Y-68209384D01*
X93945425Y-68395616D01*
X93909093Y-68578270D01*
X93837825Y-68750327D01*
X93734360Y-68905174D01*
X93602674Y-69036860D01*
X93447827Y-69140325D01*
X93275770Y-69211593D01*
X93093116Y-69247925D01*
X92906884Y-69247925D01*
X92724230Y-69211593D01*
X92552173Y-69140325D01*
X92397326Y-69036860D01*
X92265640Y-68905174D01*
X92162175Y-68750327D01*
X92090907Y-68578270D01*
X92054575Y-68395616D01*
X92054575Y-68209384D01*
X92090907Y-68026730D01*
X92162175Y-67854673D01*
X92265640Y-67699826D01*
X92397326Y-67568140D01*
X92552173Y-67464675D01*
X92724230Y-67393407D01*
X92906884Y-67357075D01*
X93093116Y-67357075D01*
X93275770Y-67393407D01*
G37*
G36*
X111351537Y-66852724D02*
G01*
X111416421Y-66896079D01*
X111459776Y-66960963D01*
X111475000Y-67037500D01*
X111475000Y-67437500D01*
X111459776Y-67514037D01*
X111416421Y-67578921D01*
X111351537Y-67622276D01*
X111275000Y-67637500D01*
X110725000Y-67637500D01*
X110648463Y-67622276D01*
X110583579Y-67578921D01*
X110540224Y-67514037D01*
X110525000Y-67437500D01*
X110525000Y-67037500D01*
X110540224Y-66960963D01*
X110583579Y-66896079D01*
X110648463Y-66852724D01*
X110725000Y-66837500D01*
X111275000Y-66837500D01*
X111351537Y-66852724D01*
G37*
G36*
X116275770Y-64885907D02*
G01*
X116447827Y-64957175D01*
X116602674Y-65060640D01*
X116734360Y-65192326D01*
X116837825Y-65347173D01*
X116909093Y-65519230D01*
X116945425Y-65701884D01*
X116945425Y-65888116D01*
X116909093Y-66070770D01*
X116837825Y-66242827D01*
X116734360Y-66397674D01*
X116602674Y-66529360D01*
X116447827Y-66632825D01*
X116275770Y-66704093D01*
X116093116Y-66740425D01*
X115906884Y-66740425D01*
X115724230Y-66704093D01*
X115552173Y-66632825D01*
X115397326Y-66529360D01*
X115265640Y-66397674D01*
X115162175Y-66242827D01*
X115090907Y-66070770D01*
X115054575Y-65888116D01*
X115054575Y-65701884D01*
X115090907Y-65519230D01*
X115162175Y-65347173D01*
X115265640Y-65192326D01*
X115397326Y-65060640D01*
X115552173Y-64957175D01*
X115724230Y-64885907D01*
X115906884Y-64849575D01*
X116093116Y-64849575D01*
X116275770Y-64885907D01*
G37*
G36*
X93275770Y-64853407D02*
G01*
X93447827Y-64924675D01*
X93602674Y-65028140D01*
X93734360Y-65159826D01*
X93837825Y-65314673D01*
X93909093Y-65486730D01*
X93945425Y-65669384D01*
X93945425Y-65855616D01*
X93909093Y-66038270D01*
X93837825Y-66210327D01*
X93734360Y-66365174D01*
X93602674Y-66496860D01*
X93447827Y-66600325D01*
X93275770Y-66671593D01*
X93093116Y-66707925D01*
X92906884Y-66707925D01*
X92724230Y-66671593D01*
X92552173Y-66600325D01*
X92397326Y-66496860D01*
X92265640Y-66365174D01*
X92162175Y-66210327D01*
X92090907Y-66038270D01*
X92054575Y-65855616D01*
X92054575Y-65669384D01*
X92090907Y-65486730D01*
X92162175Y-65314673D01*
X92265640Y-65159826D01*
X92397326Y-65028140D01*
X92552173Y-64924675D01*
X92724230Y-64853407D01*
X92906884Y-64817075D01*
X93093116Y-64817075D01*
X93275770Y-64853407D01*
G37*
G36*
X106074047Y-65623305D02*
G01*
X106123118Y-65628998D01*
X106139883Y-65636400D01*
X106161844Y-65640769D01*
X106185354Y-65656478D01*
X106205142Y-65665215D01*
X106218656Y-65678729D01*
X106239706Y-65692794D01*
X106253770Y-65713843D01*
X106267284Y-65727357D01*
X106276020Y-65747143D01*
X106291731Y-65770656D01*
X106296099Y-65792618D01*
X106303501Y-65809381D01*
X106309192Y-65858442D01*
X106310000Y-65862500D01*
X106310000Y-66142500D01*
X106309192Y-66146559D01*
X106303501Y-66195618D01*
X106296099Y-66212379D01*
X106291731Y-66234344D01*
X106276019Y-66257858D01*
X106267284Y-66277642D01*
X106253772Y-66291153D01*
X106239706Y-66312206D01*
X106218653Y-66326272D01*
X106205142Y-66339784D01*
X106185358Y-66348519D01*
X106161844Y-66364231D01*
X106139879Y-66368599D01*
X106123118Y-66376001D01*
X106074059Y-66381692D01*
X106070000Y-66382500D01*
X105730000Y-66382500D01*
X105725942Y-66381692D01*
X105676881Y-66376001D01*
X105660118Y-66368599D01*
X105638156Y-66364231D01*
X105614643Y-66348520D01*
X105594857Y-66339784D01*
X105581343Y-66326270D01*
X105560294Y-66312206D01*
X105546229Y-66291156D01*
X105532715Y-66277642D01*
X105523978Y-66257854D01*
X105508269Y-66234344D01*
X105503900Y-66212383D01*
X105496498Y-66195618D01*
X105490805Y-66146547D01*
X105490000Y-66142500D01*
X105490000Y-65862500D01*
X105490804Y-65858454D01*
X105496498Y-65809381D01*
X105503901Y-65792614D01*
X105508269Y-65770656D01*
X105523976Y-65747147D01*
X105532715Y-65727357D01*
X105546231Y-65713840D01*
X105560294Y-65692794D01*
X105581340Y-65678731D01*
X105594857Y-65665215D01*
X105614647Y-65656476D01*
X105638156Y-65640769D01*
X105660114Y-65636401D01*
X105676881Y-65628998D01*
X105725954Y-65623304D01*
X105730000Y-65622500D01*
X106070000Y-65622500D01*
X106074047Y-65623305D01*
G37*
G36*
X111351537Y-65327724D02*
G01*
X111416421Y-65371079D01*
X111459776Y-65435963D01*
X111475000Y-65512500D01*
X111475000Y-65912500D01*
X111459776Y-65989037D01*
X111416421Y-66053921D01*
X111351537Y-66097276D01*
X111275000Y-66112500D01*
X110725000Y-66112500D01*
X110648463Y-66097276D01*
X110583579Y-66053921D01*
X110540224Y-65989037D01*
X110525000Y-65912500D01*
X110525000Y-65512500D01*
X110540224Y-65435963D01*
X110583579Y-65371079D01*
X110648463Y-65327724D01*
X110725000Y-65312500D01*
X111275000Y-65312500D01*
X111351537Y-65327724D01*
G37*
G36*
X106074047Y-64663305D02*
G01*
X106123118Y-64668998D01*
X106139883Y-64676400D01*
X106161844Y-64680769D01*
X106185354Y-64696478D01*
X106205142Y-64705215D01*
X106218656Y-64718729D01*
X106239706Y-64732794D01*
X106253770Y-64753843D01*
X106267284Y-64767357D01*
X106276020Y-64787143D01*
X106291731Y-64810656D01*
X106296099Y-64832618D01*
X106303501Y-64849381D01*
X106309192Y-64898442D01*
X106310000Y-64902500D01*
X106310000Y-65182500D01*
X106309192Y-65186559D01*
X106303501Y-65235618D01*
X106296099Y-65252379D01*
X106291731Y-65274344D01*
X106276019Y-65297858D01*
X106267284Y-65317642D01*
X106253772Y-65331153D01*
X106239706Y-65352206D01*
X106218653Y-65366272D01*
X106205142Y-65379784D01*
X106185358Y-65388519D01*
X106161844Y-65404231D01*
X106139879Y-65408599D01*
X106123118Y-65416001D01*
X106074059Y-65421692D01*
X106070000Y-65422500D01*
X105730000Y-65422500D01*
X105725942Y-65421692D01*
X105676881Y-65416001D01*
X105660118Y-65408599D01*
X105638156Y-65404231D01*
X105614643Y-65388520D01*
X105594857Y-65379784D01*
X105581343Y-65366270D01*
X105560294Y-65352206D01*
X105546229Y-65331156D01*
X105532715Y-65317642D01*
X105523978Y-65297854D01*
X105508269Y-65274344D01*
X105503900Y-65252383D01*
X105496498Y-65235618D01*
X105490805Y-65186547D01*
X105490000Y-65182500D01*
X105490000Y-64902500D01*
X105490804Y-64898454D01*
X105496498Y-64849381D01*
X105503901Y-64832614D01*
X105508269Y-64810656D01*
X105523976Y-64787147D01*
X105532715Y-64767357D01*
X105546231Y-64753840D01*
X105560294Y-64732794D01*
X105581340Y-64718731D01*
X105594857Y-64705215D01*
X105614647Y-64696476D01*
X105638156Y-64680769D01*
X105660114Y-64676401D01*
X105676881Y-64668998D01*
X105725954Y-64663304D01*
X105730000Y-64662500D01*
X106070000Y-64662500D01*
X106074047Y-64663305D01*
G37*
G36*
X111351537Y-63677724D02*
G01*
X111416421Y-63721079D01*
X111459776Y-63785963D01*
X111475000Y-63862500D01*
X111475000Y-64262500D01*
X111459776Y-64339037D01*
X111416421Y-64403921D01*
X111351537Y-64447276D01*
X111275000Y-64462500D01*
X110725000Y-64462500D01*
X110648463Y-64447276D01*
X110583579Y-64403921D01*
X110540224Y-64339037D01*
X110525000Y-64262500D01*
X110525000Y-63862500D01*
X110540224Y-63785963D01*
X110583579Y-63721079D01*
X110648463Y-63677724D01*
X110725000Y-63662500D01*
X111275000Y-63662500D01*
X111351537Y-63677724D01*
G37*
G36*
X116275770Y-62345907D02*
G01*
X116447827Y-62417175D01*
X116602674Y-62520640D01*
X116734360Y-62652326D01*
X116837825Y-62807173D01*
X116909093Y-62979230D01*
X116945425Y-63161884D01*
X116945425Y-63348116D01*
X116909093Y-63530770D01*
X116837825Y-63702827D01*
X116734360Y-63857674D01*
X116602674Y-63989360D01*
X116447827Y-64092825D01*
X116275770Y-64164093D01*
X116093116Y-64200425D01*
X115906884Y-64200425D01*
X115724230Y-64164093D01*
X115552173Y-64092825D01*
X115397326Y-63989360D01*
X115265640Y-63857674D01*
X115162175Y-63702827D01*
X115090907Y-63530770D01*
X115054575Y-63348116D01*
X115054575Y-63161884D01*
X115090907Y-62979230D01*
X115162175Y-62807173D01*
X115265640Y-62652326D01*
X115397326Y-62520640D01*
X115552173Y-62417175D01*
X115724230Y-62345907D01*
X115906884Y-62309575D01*
X116093116Y-62309575D01*
X116275770Y-62345907D01*
G37*
G36*
X93275770Y-62313407D02*
G01*
X93447827Y-62384675D01*
X93602674Y-62488140D01*
X93734360Y-62619826D01*
X93837825Y-62774673D01*
X93909093Y-62946730D01*
X93945425Y-63129384D01*
X93945425Y-63315616D01*
X93909093Y-63498270D01*
X93837825Y-63670327D01*
X93734360Y-63825174D01*
X93602674Y-63956860D01*
X93447827Y-64060325D01*
X93275770Y-64131593D01*
X93093116Y-64167925D01*
X92906884Y-64167925D01*
X92724230Y-64131593D01*
X92552173Y-64060325D01*
X92397326Y-63956860D01*
X92265640Y-63825174D01*
X92162175Y-63670327D01*
X92090907Y-63498270D01*
X92054575Y-63315616D01*
X92054575Y-63129384D01*
X92090907Y-62946730D01*
X92162175Y-62774673D01*
X92265640Y-62619826D01*
X92397326Y-62488140D01*
X92552173Y-62384675D01*
X92724230Y-62313407D01*
X92906884Y-62277075D01*
X93093116Y-62277075D01*
X93275770Y-62313407D01*
G37*
G36*
X103586418Y-62992258D02*
G01*
X103606694Y-63005806D01*
X103620242Y-63026082D01*
X103625000Y-63050000D01*
X103625000Y-63600000D01*
X103620242Y-63623918D01*
X103606694Y-63644194D01*
X103586418Y-63657742D01*
X103562500Y-63662500D01*
X103437500Y-63662500D01*
X103413582Y-63657742D01*
X103393306Y-63644194D01*
X103379758Y-63623918D01*
X103375000Y-63600000D01*
X103375000Y-63050000D01*
X103379758Y-63026082D01*
X103393306Y-63005806D01*
X103413582Y-62992258D01*
X103437500Y-62987500D01*
X103562500Y-62987500D01*
X103586418Y-62992258D01*
G37*
G36*
X104086418Y-62992258D02*
G01*
X104106694Y-63005806D01*
X104120242Y-63026082D01*
X104125000Y-63050000D01*
X104125000Y-63600000D01*
X104120242Y-63623918D01*
X104106694Y-63644194D01*
X104086418Y-63657742D01*
X104062500Y-63662500D01*
X103937500Y-63662500D01*
X103913582Y-63657742D01*
X103893306Y-63644194D01*
X103879758Y-63623918D01*
X103875000Y-63600000D01*
X103875000Y-63050000D01*
X103879758Y-63026082D01*
X103893306Y-63005806D01*
X103913582Y-62992258D01*
X103937500Y-62987500D01*
X104062500Y-62987500D01*
X104086418Y-62992258D01*
G37*
G36*
X104586418Y-62992258D02*
G01*
X104606694Y-63005806D01*
X104620242Y-63026082D01*
X104625000Y-63050000D01*
X104625000Y-63600000D01*
X104620242Y-63623918D01*
X104606694Y-63644194D01*
X104586418Y-63657742D01*
X104562500Y-63662500D01*
X104437500Y-63662500D01*
X104413582Y-63657742D01*
X104393306Y-63644194D01*
X104379758Y-63623918D01*
X104375000Y-63600000D01*
X104375000Y-63050000D01*
X104379758Y-63026082D01*
X104393306Y-63005806D01*
X104413582Y-62992258D01*
X104437500Y-62987500D01*
X104562500Y-62987500D01*
X104586418Y-62992258D01*
G37*
G36*
X105086418Y-62992258D02*
G01*
X105106694Y-63005806D01*
X105120242Y-63026082D01*
X105125000Y-63050000D01*
X105125000Y-63600000D01*
X105120242Y-63623918D01*
X105106694Y-63644194D01*
X105086418Y-63657742D01*
X105062500Y-63662500D01*
X104937500Y-63662500D01*
X104913582Y-63657742D01*
X104893306Y-63644194D01*
X104879758Y-63623918D01*
X104875000Y-63600000D01*
X104875000Y-63050000D01*
X104879758Y-63026082D01*
X104893306Y-63005806D01*
X104913582Y-62992258D01*
X104937500Y-62987500D01*
X105062500Y-62987500D01*
X105086418Y-62992258D01*
G37*
G36*
X105586418Y-62992258D02*
G01*
X105606694Y-63005806D01*
X105620242Y-63026082D01*
X105625000Y-63050000D01*
X105625000Y-63600000D01*
X105620242Y-63623918D01*
X105606694Y-63644194D01*
X105586418Y-63657742D01*
X105562500Y-63662500D01*
X105437500Y-63662500D01*
X105413582Y-63657742D01*
X105393306Y-63644194D01*
X105379758Y-63623918D01*
X105375000Y-63600000D01*
X105375000Y-63050000D01*
X105379758Y-63026082D01*
X105393306Y-63005806D01*
X105413582Y-62992258D01*
X105437500Y-62987500D01*
X105562500Y-62987500D01*
X105586418Y-62992258D01*
G37*
G36*
X106086418Y-62992258D02*
G01*
X106106694Y-63005806D01*
X106120242Y-63026082D01*
X106125000Y-63050000D01*
X106125000Y-63600000D01*
X106120242Y-63623918D01*
X106106694Y-63644194D01*
X106086418Y-63657742D01*
X106062500Y-63662500D01*
X105937500Y-63662500D01*
X105913582Y-63657742D01*
X105893306Y-63644194D01*
X105879758Y-63623918D01*
X105875000Y-63600000D01*
X105875000Y-63050000D01*
X105879758Y-63026082D01*
X105893306Y-63005806D01*
X105913582Y-62992258D01*
X105937500Y-62987500D01*
X106062500Y-62987500D01*
X106086418Y-62992258D01*
G37*
G36*
X106586418Y-62992258D02*
G01*
X106606694Y-63005806D01*
X106620242Y-63026082D01*
X106625000Y-63050000D01*
X106625000Y-63600000D01*
X106620242Y-63623918D01*
X106606694Y-63644194D01*
X106586418Y-63657742D01*
X106562500Y-63662500D01*
X106437500Y-63662500D01*
X106413582Y-63657742D01*
X106393306Y-63644194D01*
X106379758Y-63623918D01*
X106375000Y-63600000D01*
X106375000Y-63050000D01*
X106379758Y-63026082D01*
X106393306Y-63005806D01*
X106413582Y-62992258D01*
X106437500Y-62987500D01*
X106562500Y-62987500D01*
X106586418Y-62992258D01*
G37*
G36*
X103286418Y-61942258D02*
G01*
X103306694Y-61955806D01*
X103320242Y-61976082D01*
X103325000Y-62000000D01*
X103325000Y-62125000D01*
X103320242Y-62148918D01*
X103306694Y-62169194D01*
X103286418Y-62182742D01*
X103262500Y-62187500D01*
X102712500Y-62187500D01*
X102688582Y-62182742D01*
X102668306Y-62169194D01*
X102654758Y-62148918D01*
X102650000Y-62125000D01*
X102650000Y-62000000D01*
X102654758Y-61976082D01*
X102668306Y-61955806D01*
X102688582Y-61942258D01*
X102712500Y-61937500D01*
X103262500Y-61937500D01*
X103286418Y-61942258D01*
G37*
G36*
X107311418Y-61942258D02*
G01*
X107331694Y-61955806D01*
X107345242Y-61976082D01*
X107350000Y-62000000D01*
X107350000Y-62125000D01*
X107345242Y-62148918D01*
X107331694Y-62169194D01*
X107311418Y-62182742D01*
X107287500Y-62187500D01*
X106737500Y-62187500D01*
X106713582Y-62182742D01*
X106693306Y-62169194D01*
X106679758Y-62148918D01*
X106675000Y-62125000D01*
X106675000Y-62000000D01*
X106679758Y-61976082D01*
X106693306Y-61955806D01*
X106713582Y-61942258D01*
X106737500Y-61937500D01*
X107287500Y-61937500D01*
X107311418Y-61942258D01*
G37*
G36*
X116275770Y-59805907D02*
G01*
X116447827Y-59877175D01*
X116602674Y-59980640D01*
X116734360Y-60112326D01*
X116837825Y-60267173D01*
X116909093Y-60439230D01*
X116945425Y-60621884D01*
X116945425Y-60808116D01*
X116909093Y-60990770D01*
X116837825Y-61162827D01*
X116734360Y-61317674D01*
X116602674Y-61449360D01*
X116447827Y-61552825D01*
X116275770Y-61624093D01*
X116093116Y-61660425D01*
X115906884Y-61660425D01*
X115724230Y-61624093D01*
X115552173Y-61552825D01*
X115397326Y-61449360D01*
X115265640Y-61317674D01*
X115162175Y-61162827D01*
X115090907Y-60990770D01*
X115054575Y-60808116D01*
X115054575Y-60621884D01*
X115090907Y-60439230D01*
X115162175Y-60267173D01*
X115265640Y-60112326D01*
X115397326Y-59980640D01*
X115552173Y-59877175D01*
X115724230Y-59805907D01*
X115906884Y-59769575D01*
X116093116Y-59769575D01*
X116275770Y-59805907D01*
G37*
G36*
X93275770Y-59773407D02*
G01*
X93447827Y-59844675D01*
X93602674Y-59948140D01*
X93734360Y-60079826D01*
X93837825Y-60234673D01*
X93909093Y-60406730D01*
X93945425Y-60589384D01*
X93945425Y-60775616D01*
X93909093Y-60958270D01*
X93837825Y-61130327D01*
X93734360Y-61285174D01*
X93602674Y-61416860D01*
X93447827Y-61520325D01*
X93275770Y-61591593D01*
X93093116Y-61627925D01*
X92906884Y-61627925D01*
X92724230Y-61591593D01*
X92552173Y-61520325D01*
X92397326Y-61416860D01*
X92265640Y-61285174D01*
X92162175Y-61130327D01*
X92090907Y-60958270D01*
X92054575Y-60775616D01*
X92054575Y-60589384D01*
X92090907Y-60406730D01*
X92162175Y-60234673D01*
X92265640Y-60079826D01*
X92397326Y-59948140D01*
X92552173Y-59844675D01*
X92724230Y-59773407D01*
X92906884Y-59737075D01*
X93093116Y-59737075D01*
X93275770Y-59773407D01*
G37*
G36*
X103586418Y-60467258D02*
G01*
X103606694Y-60480806D01*
X103620242Y-60501082D01*
X103625000Y-60525000D01*
X103625000Y-61075000D01*
X103620242Y-61098918D01*
X103606694Y-61119194D01*
X103586418Y-61132742D01*
X103562500Y-61137500D01*
X103437500Y-61137500D01*
X103413582Y-61132742D01*
X103393306Y-61119194D01*
X103379758Y-61098918D01*
X103375000Y-61075000D01*
X103375000Y-60525000D01*
X103379758Y-60501082D01*
X103393306Y-60480806D01*
X103413582Y-60467258D01*
X103437500Y-60462500D01*
X103562500Y-60462500D01*
X103586418Y-60467258D01*
G37*
G36*
X104086418Y-60467258D02*
G01*
X104106694Y-60480806D01*
X104120242Y-60501082D01*
X104125000Y-60525000D01*
X104125000Y-61075000D01*
X104120242Y-61098918D01*
X104106694Y-61119194D01*
X104086418Y-61132742D01*
X104062500Y-61137500D01*
X103937500Y-61137500D01*
X103913582Y-61132742D01*
X103893306Y-61119194D01*
X103879758Y-61098918D01*
X103875000Y-61075000D01*
X103875000Y-60525000D01*
X103879758Y-60501082D01*
X103893306Y-60480806D01*
X103913582Y-60467258D01*
X103937500Y-60462500D01*
X104062500Y-60462500D01*
X104086418Y-60467258D01*
G37*
G36*
X104586418Y-60467258D02*
G01*
X104606694Y-60480806D01*
X104620242Y-60501082D01*
X104625000Y-60525000D01*
X104625000Y-61075000D01*
X104620242Y-61098918D01*
X104606694Y-61119194D01*
X104586418Y-61132742D01*
X104562500Y-61137500D01*
X104437500Y-61137500D01*
X104413582Y-61132742D01*
X104393306Y-61119194D01*
X104379758Y-61098918D01*
X104375000Y-61075000D01*
X104375000Y-60525000D01*
X104379758Y-60501082D01*
X104393306Y-60480806D01*
X104413582Y-60467258D01*
X104437500Y-60462500D01*
X104562500Y-60462500D01*
X104586418Y-60467258D01*
G37*
G36*
X105086418Y-60467258D02*
G01*
X105106694Y-60480806D01*
X105120242Y-60501082D01*
X105125000Y-60525000D01*
X105125000Y-61075000D01*
X105120242Y-61098918D01*
X105106694Y-61119194D01*
X105086418Y-61132742D01*
X105062500Y-61137500D01*
X104937500Y-61137500D01*
X104913582Y-61132742D01*
X104893306Y-61119194D01*
X104879758Y-61098918D01*
X104875000Y-61075000D01*
X104875000Y-60525000D01*
X104879758Y-60501082D01*
X104893306Y-60480806D01*
X104913582Y-60467258D01*
X104937500Y-60462500D01*
X105062500Y-60462500D01*
X105086418Y-60467258D01*
G37*
G36*
X105586418Y-60467258D02*
G01*
X105606694Y-60480806D01*
X105620242Y-60501082D01*
X105625000Y-60525000D01*
X105625000Y-61075000D01*
X105620242Y-61098918D01*
X105606694Y-61119194D01*
X105586418Y-61132742D01*
X105562500Y-61137500D01*
X105437500Y-61137500D01*
X105413582Y-61132742D01*
X105393306Y-61119194D01*
X105379758Y-61098918D01*
X105375000Y-61075000D01*
X105375000Y-60525000D01*
X105379758Y-60501082D01*
X105393306Y-60480806D01*
X105413582Y-60467258D01*
X105437500Y-60462500D01*
X105562500Y-60462500D01*
X105586418Y-60467258D01*
G37*
G36*
X106086418Y-60467258D02*
G01*
X106106694Y-60480806D01*
X106120242Y-60501082D01*
X106125000Y-60525000D01*
X106125000Y-61075000D01*
X106120242Y-61098918D01*
X106106694Y-61119194D01*
X106086418Y-61132742D01*
X106062500Y-61137500D01*
X105937500Y-61137500D01*
X105913582Y-61132742D01*
X105893306Y-61119194D01*
X105879758Y-61098918D01*
X105875000Y-61075000D01*
X105875000Y-60525000D01*
X105879758Y-60501082D01*
X105893306Y-60480806D01*
X105913582Y-60467258D01*
X105937500Y-60462500D01*
X106062500Y-60462500D01*
X106086418Y-60467258D01*
G37*
G36*
X106586418Y-60467258D02*
G01*
X106606694Y-60480806D01*
X106620242Y-60501082D01*
X106625000Y-60525000D01*
X106625000Y-61075000D01*
X106620242Y-61098918D01*
X106606694Y-61119194D01*
X106586418Y-61132742D01*
X106562500Y-61137500D01*
X106437500Y-61137500D01*
X106413582Y-61132742D01*
X106393306Y-61119194D01*
X106379758Y-61098918D01*
X106375000Y-61075000D01*
X106375000Y-60525000D01*
X106379758Y-60501082D01*
X106393306Y-60480806D01*
X106413582Y-60467258D01*
X106437500Y-60462500D01*
X106562500Y-60462500D01*
X106586418Y-60467258D01*
G37*
G36*
X109443685Y-59232969D02*
G01*
X109452358Y-59236798D01*
X109459925Y-59237901D01*
X109507223Y-59261023D01*
X109544541Y-59277501D01*
X109547996Y-59280956D01*
X109548920Y-59281408D01*
X109618591Y-59351079D01*
X109619042Y-59352002D01*
X109622499Y-59355459D01*
X109638978Y-59392782D01*
X109662098Y-59440073D01*
X109663200Y-59447639D01*
X109667031Y-59456315D01*
X109675000Y-59525000D01*
X109675000Y-60075000D01*
X109667031Y-60143685D01*
X109663199Y-60152361D01*
X109662098Y-60159925D01*
X109638985Y-60207202D01*
X109622499Y-60244541D01*
X109619041Y-60247998D01*
X109618591Y-60248920D01*
X109548920Y-60318591D01*
X109547998Y-60319041D01*
X109544541Y-60322499D01*
X109507207Y-60338983D01*
X109459926Y-60362098D01*
X109452361Y-60363200D01*
X109443685Y-60367031D01*
X109375000Y-60375000D01*
X108975000Y-60375000D01*
X108906315Y-60367031D01*
X108897638Y-60363200D01*
X108890074Y-60362098D01*
X108842787Y-60338981D01*
X108805459Y-60322499D01*
X108802002Y-60319042D01*
X108801079Y-60318591D01*
X108731408Y-60248920D01*
X108730956Y-60247996D01*
X108727501Y-60244541D01*
X108711025Y-60207228D01*
X108687901Y-60159926D01*
X108686798Y-60152357D01*
X108682969Y-60143685D01*
X108675000Y-60075000D01*
X108675000Y-59525000D01*
X108682969Y-59456315D01*
X108686798Y-59447642D01*
X108687901Y-59440074D01*
X108711028Y-59392766D01*
X108727501Y-59355459D01*
X108730955Y-59352004D01*
X108731408Y-59351079D01*
X108801079Y-59281408D01*
X108802004Y-59280955D01*
X108805459Y-59277501D01*
X108842761Y-59261030D01*
X108890073Y-59237901D01*
X108897642Y-59236798D01*
X108906315Y-59232969D01*
X108975000Y-59225000D01*
X109375000Y-59225000D01*
X109443685Y-59232969D01*
G37*
G36*
X111093685Y-59232969D02*
G01*
X111102358Y-59236798D01*
X111109925Y-59237901D01*
X111157223Y-59261023D01*
X111194541Y-59277501D01*
X111197996Y-59280956D01*
X111198920Y-59281408D01*
X111268591Y-59351079D01*
X111269042Y-59352002D01*
X111272499Y-59355459D01*
X111288978Y-59392782D01*
X111312098Y-59440073D01*
X111313200Y-59447639D01*
X111317031Y-59456315D01*
X111325000Y-59525000D01*
X111325000Y-60075000D01*
X111317031Y-60143685D01*
X111313199Y-60152361D01*
X111312098Y-60159925D01*
X111288985Y-60207202D01*
X111272499Y-60244541D01*
X111269041Y-60247998D01*
X111268591Y-60248920D01*
X111198920Y-60318591D01*
X111197998Y-60319041D01*
X111194541Y-60322499D01*
X111157207Y-60338983D01*
X111109926Y-60362098D01*
X111102361Y-60363200D01*
X111093685Y-60367031D01*
X111025000Y-60375000D01*
X110625000Y-60375000D01*
X110556315Y-60367031D01*
X110547638Y-60363200D01*
X110540074Y-60362098D01*
X110492787Y-60338981D01*
X110455459Y-60322499D01*
X110452002Y-60319042D01*
X110451079Y-60318591D01*
X110381408Y-60248920D01*
X110380956Y-60247996D01*
X110377501Y-60244541D01*
X110361025Y-60207228D01*
X110337901Y-60159926D01*
X110336798Y-60152357D01*
X110332969Y-60143685D01*
X110325000Y-60075000D01*
X110325000Y-59525000D01*
X110332969Y-59456315D01*
X110336798Y-59447642D01*
X110337901Y-59440074D01*
X110361028Y-59392766D01*
X110377501Y-59355459D01*
X110380955Y-59352004D01*
X110381408Y-59351079D01*
X110451079Y-59281408D01*
X110452004Y-59280955D01*
X110455459Y-59277501D01*
X110492761Y-59261030D01*
X110540073Y-59237901D01*
X110547642Y-59236798D01*
X110556315Y-59232969D01*
X110625000Y-59225000D01*
X111025000Y-59225000D01*
X111093685Y-59232969D01*
G37*
G36*
X103144047Y-58390805D02*
G01*
X103193118Y-58396498D01*
X103209883Y-58403900D01*
X103231844Y-58408269D01*
X103255354Y-58423978D01*
X103275142Y-58432715D01*
X103288656Y-58446229D01*
X103309706Y-58460294D01*
X103323770Y-58481343D01*
X103337284Y-58494857D01*
X103346020Y-58514643D01*
X103361731Y-58538156D01*
X103366099Y-58560118D01*
X103373501Y-58576881D01*
X103379192Y-58625942D01*
X103380000Y-58630000D01*
X103380000Y-58970000D01*
X103379192Y-58974059D01*
X103373501Y-59023118D01*
X103366099Y-59039879D01*
X103361731Y-59061844D01*
X103346019Y-59085358D01*
X103337284Y-59105142D01*
X103323772Y-59118653D01*
X103309706Y-59139706D01*
X103288653Y-59153772D01*
X103275142Y-59167284D01*
X103255358Y-59176019D01*
X103231844Y-59191731D01*
X103209879Y-59196099D01*
X103193118Y-59203501D01*
X103144059Y-59209192D01*
X103140000Y-59210000D01*
X102860000Y-59210000D01*
X102855942Y-59209192D01*
X102806881Y-59203501D01*
X102790118Y-59196099D01*
X102768156Y-59191731D01*
X102744643Y-59176020D01*
X102724857Y-59167284D01*
X102711343Y-59153770D01*
X102690294Y-59139706D01*
X102676229Y-59118656D01*
X102662715Y-59105142D01*
X102653978Y-59085354D01*
X102638269Y-59061844D01*
X102633900Y-59039883D01*
X102626498Y-59023118D01*
X102620805Y-58974047D01*
X102620000Y-58970000D01*
X102620000Y-58630000D01*
X102620804Y-58625954D01*
X102626498Y-58576881D01*
X102633901Y-58560114D01*
X102638269Y-58538156D01*
X102653976Y-58514647D01*
X102662715Y-58494857D01*
X102676231Y-58481340D01*
X102690294Y-58460294D01*
X102711340Y-58446231D01*
X102724857Y-58432715D01*
X102744647Y-58423976D01*
X102768156Y-58408269D01*
X102790114Y-58403901D01*
X102806881Y-58396498D01*
X102855954Y-58390804D01*
X102860000Y-58390000D01*
X103140000Y-58390000D01*
X103144047Y-58390805D01*
G37*
G36*
X104104047Y-58390805D02*
G01*
X104153118Y-58396498D01*
X104169883Y-58403900D01*
X104191844Y-58408269D01*
X104215354Y-58423978D01*
X104235142Y-58432715D01*
X104248656Y-58446229D01*
X104269706Y-58460294D01*
X104283770Y-58481343D01*
X104297284Y-58494857D01*
X104306020Y-58514643D01*
X104321731Y-58538156D01*
X104326099Y-58560118D01*
X104333501Y-58576881D01*
X104339192Y-58625942D01*
X104340000Y-58630000D01*
X104340000Y-58970000D01*
X104339192Y-58974059D01*
X104333501Y-59023118D01*
X104326099Y-59039879D01*
X104321731Y-59061844D01*
X104306019Y-59085358D01*
X104297284Y-59105142D01*
X104283772Y-59118653D01*
X104269706Y-59139706D01*
X104248653Y-59153772D01*
X104235142Y-59167284D01*
X104215358Y-59176019D01*
X104191844Y-59191731D01*
X104169879Y-59196099D01*
X104153118Y-59203501D01*
X104104059Y-59209192D01*
X104100000Y-59210000D01*
X103820000Y-59210000D01*
X103815942Y-59209192D01*
X103766881Y-59203501D01*
X103750118Y-59196099D01*
X103728156Y-59191731D01*
X103704643Y-59176020D01*
X103684857Y-59167284D01*
X103671343Y-59153770D01*
X103650294Y-59139706D01*
X103636229Y-59118656D01*
X103622715Y-59105142D01*
X103613978Y-59085354D01*
X103598269Y-59061844D01*
X103593900Y-59039883D01*
X103586498Y-59023118D01*
X103580805Y-58974047D01*
X103580000Y-58970000D01*
X103580000Y-58630000D01*
X103580804Y-58625954D01*
X103586498Y-58576881D01*
X103593901Y-58560114D01*
X103598269Y-58538156D01*
X103613976Y-58514647D01*
X103622715Y-58494857D01*
X103636231Y-58481340D01*
X103650294Y-58460294D01*
X103671340Y-58446231D01*
X103684857Y-58432715D01*
X103704647Y-58423976D01*
X103728156Y-58408269D01*
X103750114Y-58403901D01*
X103766881Y-58396498D01*
X103815954Y-58390804D01*
X103820000Y-58390000D01*
X104100000Y-58390000D01*
X104104047Y-58390805D01*
G37*
G36*
X116275770Y-57265907D02*
G01*
X116447827Y-57337175D01*
X116602674Y-57440640D01*
X116734360Y-57572326D01*
X116837825Y-57727173D01*
X116909093Y-57899230D01*
X116945425Y-58081884D01*
X116945425Y-58268116D01*
X116909093Y-58450770D01*
X116837825Y-58622827D01*
X116734360Y-58777674D01*
X116602674Y-58909360D01*
X116447827Y-59012825D01*
X116275770Y-59084093D01*
X116093116Y-59120425D01*
X115906884Y-59120425D01*
X115724230Y-59084093D01*
X115552173Y-59012825D01*
X115397326Y-58909360D01*
X115265640Y-58777674D01*
X115162175Y-58622827D01*
X115090907Y-58450770D01*
X115054575Y-58268116D01*
X115054575Y-58081884D01*
X115090907Y-57899230D01*
X115162175Y-57727173D01*
X115265640Y-57572326D01*
X115397326Y-57440640D01*
X115552173Y-57337175D01*
X115724230Y-57265907D01*
X115906884Y-57229575D01*
X116093116Y-57229575D01*
X116275770Y-57265907D01*
G37*
G36*
X93275770Y-57233407D02*
G01*
X93447827Y-57304675D01*
X93602674Y-57408140D01*
X93734360Y-57539826D01*
X93837825Y-57694673D01*
X93909093Y-57866730D01*
X93945425Y-58049384D01*
X93945425Y-58235616D01*
X93909093Y-58418270D01*
X93837825Y-58590327D01*
X93734360Y-58745174D01*
X93602674Y-58876860D01*
X93447827Y-58980325D01*
X93275770Y-59051593D01*
X93093116Y-59087925D01*
X92906884Y-59087925D01*
X92724230Y-59051593D01*
X92552173Y-58980325D01*
X92397326Y-58876860D01*
X92265640Y-58745174D01*
X92162175Y-58590327D01*
X92090907Y-58418270D01*
X92054575Y-58235616D01*
X92054575Y-58049384D01*
X92090907Y-57866730D01*
X92162175Y-57694673D01*
X92265640Y-57539826D01*
X92397326Y-57408140D01*
X92552173Y-57304675D01*
X92724230Y-57233407D01*
X92906884Y-57197075D01*
X93093116Y-57197075D01*
X93275770Y-57233407D01*
G37*
G36*
X116275770Y-54725907D02*
G01*
X116447827Y-54797175D01*
X116602674Y-54900640D01*
X116734360Y-55032326D01*
X116837825Y-55187173D01*
X116909093Y-55359230D01*
X116945425Y-55541884D01*
X116945425Y-55728116D01*
X116909093Y-55910770D01*
X116837825Y-56082827D01*
X116734360Y-56237674D01*
X116602674Y-56369360D01*
X116447827Y-56472825D01*
X116275770Y-56544093D01*
X116093116Y-56580425D01*
X115906884Y-56580425D01*
X115724230Y-56544093D01*
X115552173Y-56472825D01*
X115397326Y-56369360D01*
X115265640Y-56237674D01*
X115162175Y-56082827D01*
X115090907Y-55910770D01*
X115054575Y-55728116D01*
X115054575Y-55541884D01*
X115090907Y-55359230D01*
X115162175Y-55187173D01*
X115265640Y-55032326D01*
X115397326Y-54900640D01*
X115552173Y-54797175D01*
X115724230Y-54725907D01*
X115906884Y-54689575D01*
X116093116Y-54689575D01*
X116275770Y-54725907D01*
G37*
G36*
X93275770Y-54693407D02*
G01*
X93447827Y-54764675D01*
X93602674Y-54868140D01*
X93734360Y-54999826D01*
X93837825Y-55154673D01*
X93909093Y-55326730D01*
X93945425Y-55509384D01*
X93945425Y-55695616D01*
X93909093Y-55878270D01*
X93837825Y-56050327D01*
X93734360Y-56205174D01*
X93602674Y-56336860D01*
X93447827Y-56440325D01*
X93275770Y-56511593D01*
X93093116Y-56547925D01*
X92906884Y-56547925D01*
X92724230Y-56511593D01*
X92552173Y-56440325D01*
X92397326Y-56336860D01*
X92265640Y-56205174D01*
X92162175Y-56050327D01*
X92090907Y-55878270D01*
X92054575Y-55695616D01*
X92054575Y-55509384D01*
X92090907Y-55326730D01*
X92162175Y-55154673D01*
X92265640Y-54999826D01*
X92397326Y-54868140D01*
X92552173Y-54764675D01*
X92724230Y-54693407D01*
X92906884Y-54657075D01*
X93093116Y-54657075D01*
X93275770Y-54693407D01*
G37*
G36*
X110273604Y-55129627D02*
G01*
X110346599Y-55178401D01*
X110395373Y-55251396D01*
X110412500Y-55337500D01*
X110412500Y-55787500D01*
X110395373Y-55873604D01*
X110346599Y-55946599D01*
X110273604Y-55995373D01*
X110187500Y-56012500D01*
X109687500Y-56012500D01*
X109601396Y-55995373D01*
X109528401Y-55946599D01*
X109479627Y-55873604D01*
X109462500Y-55787500D01*
X109462500Y-55337500D01*
X109479627Y-55251396D01*
X109528401Y-55178401D01*
X109601396Y-55129627D01*
X109687500Y-55112500D01*
X110187500Y-55112500D01*
X110273604Y-55129627D01*
G37*
G36*
X106644903Y-54673918D02*
G01*
X106693566Y-54706434D01*
X106726082Y-54755097D01*
X106737500Y-54812500D01*
X106737500Y-55112500D01*
X106726082Y-55169903D01*
X106693566Y-55218566D01*
X106644903Y-55251082D01*
X106587500Y-55262500D01*
X105412500Y-55262500D01*
X105355097Y-55251082D01*
X105306434Y-55218566D01*
X105273918Y-55169903D01*
X105262500Y-55112500D01*
X105262500Y-54812500D01*
X105273918Y-54755097D01*
X105306434Y-54706434D01*
X105355097Y-54673918D01*
X105412500Y-54662500D01*
X106587500Y-54662500D01*
X106644903Y-54673918D01*
G37*
G36*
X103836104Y-54229627D02*
G01*
X103909099Y-54278401D01*
X103957873Y-54351396D01*
X103975000Y-54437500D01*
X103975000Y-54887500D01*
X103957873Y-54973604D01*
X103909099Y-55046599D01*
X103836104Y-55095373D01*
X103750000Y-55112500D01*
X103250000Y-55112500D01*
X103163896Y-55095373D01*
X103090901Y-55046599D01*
X103042127Y-54973604D01*
X103025000Y-54887500D01*
X103025000Y-54437500D01*
X103042127Y-54351396D01*
X103090901Y-54278401D01*
X103163896Y-54229627D01*
X103250000Y-54212500D01*
X103750000Y-54212500D01*
X103836104Y-54229627D01*
G37*
G36*
X100851537Y-54302724D02*
G01*
X100916421Y-54346079D01*
X100959776Y-54410963D01*
X100975000Y-54487500D01*
X100975000Y-54887500D01*
X100959776Y-54964037D01*
X100916421Y-55028921D01*
X100851537Y-55072276D01*
X100775000Y-55087500D01*
X100225000Y-55087500D01*
X100148463Y-55072276D01*
X100083579Y-55028921D01*
X100040224Y-54964037D01*
X100025000Y-54887500D01*
X100025000Y-54487500D01*
X100040224Y-54410963D01*
X100083579Y-54346079D01*
X100148463Y-54302724D01*
X100225000Y-54287500D01*
X100775000Y-54287500D01*
X100851537Y-54302724D01*
G37*
G36*
X98839962Y-54191651D02*
G01*
X98910930Y-54239070D01*
X98958349Y-54310038D01*
X98975000Y-54393750D01*
X98975000Y-54831250D01*
X98958349Y-54914962D01*
X98910930Y-54985930D01*
X98839962Y-55033349D01*
X98756250Y-55050000D01*
X98243750Y-55050000D01*
X98160038Y-55033349D01*
X98089070Y-54985930D01*
X98041651Y-54914962D01*
X98025000Y-54831250D01*
X98025000Y-54393750D01*
X98041651Y-54310038D01*
X98089070Y-54239070D01*
X98160038Y-54191651D01*
X98243750Y-54175000D01*
X98756250Y-54175000D01*
X98839962Y-54191651D01*
G37*
G36*
X110273604Y-53579627D02*
G01*
X110346599Y-53628401D01*
X110395373Y-53701396D01*
X110412500Y-53787500D01*
X110412500Y-54237500D01*
X110395373Y-54323604D01*
X110346599Y-54396599D01*
X110273604Y-54445373D01*
X110187500Y-54462500D01*
X109687500Y-54462500D01*
X109601396Y-54445373D01*
X109528401Y-54396599D01*
X109479627Y-54323604D01*
X109462500Y-54237500D01*
X109462500Y-53787500D01*
X109479627Y-53701396D01*
X109528401Y-53628401D01*
X109601396Y-53579627D01*
X109687500Y-53562500D01*
X110187500Y-53562500D01*
X110273604Y-53579627D01*
G37*
G36*
X108519903Y-53723918D02*
G01*
X108568566Y-53756434D01*
X108601082Y-53805097D01*
X108612500Y-53862500D01*
X108612500Y-54162500D01*
X108601082Y-54219903D01*
X108568566Y-54268566D01*
X108519903Y-54301082D01*
X108462500Y-54312500D01*
X107287500Y-54312500D01*
X107230097Y-54301082D01*
X107181434Y-54268566D01*
X107148918Y-54219903D01*
X107137500Y-54162500D01*
X107137500Y-53862500D01*
X107148918Y-53805097D01*
X107181434Y-53756434D01*
X107230097Y-53723918D01*
X107287500Y-53712500D01*
X108462500Y-53712500D01*
X108519903Y-53723918D01*
G37*
G36*
X116888268Y-52152612D02*
G01*
X116920711Y-52174289D01*
X116942388Y-52206732D01*
X116950000Y-52245000D01*
X116950000Y-53945000D01*
X116942388Y-53983268D01*
X116920711Y-54015711D01*
X116888268Y-54037388D01*
X116850000Y-54045000D01*
X115150000Y-54045000D01*
X115111732Y-54037388D01*
X115079289Y-54015711D01*
X115057612Y-53983268D01*
X115050000Y-53945000D01*
X115050000Y-52245000D01*
X115057612Y-52206732D01*
X115079289Y-52174289D01*
X115111732Y-52152612D01*
X115150000Y-52145000D01*
X116850000Y-52145000D01*
X116888268Y-52152612D01*
G37*
G36*
X93888268Y-52120112D02*
G01*
X93920711Y-52141789D01*
X93942388Y-52174232D01*
X93950000Y-52212500D01*
X93950000Y-53912500D01*
X93942388Y-53950768D01*
X93920711Y-53983211D01*
X93888268Y-54004888D01*
X93850000Y-54012500D01*
X92150000Y-54012500D01*
X92111732Y-54004888D01*
X92079289Y-53983211D01*
X92057612Y-53950768D01*
X92050000Y-53912500D01*
X92050000Y-52212500D01*
X92057612Y-52174232D01*
X92079289Y-52141789D01*
X92111732Y-52120112D01*
X92150000Y-52112500D01*
X93850000Y-52112500D01*
X93888268Y-52120112D01*
G37*
G36*
X103836104Y-52679627D02*
G01*
X103909099Y-52728401D01*
X103957873Y-52801396D01*
X103975000Y-52887500D01*
X103975000Y-53337500D01*
X103957873Y-53423604D01*
X103909099Y-53496599D01*
X103836104Y-53545373D01*
X103750000Y-53562500D01*
X103250000Y-53562500D01*
X103163896Y-53545373D01*
X103090901Y-53496599D01*
X103042127Y-53423604D01*
X103025000Y-53337500D01*
X103025000Y-52887500D01*
X103042127Y-52801396D01*
X103090901Y-52728401D01*
X103163896Y-52679627D01*
X103250000Y-52662500D01*
X103750000Y-52662500D01*
X103836104Y-52679627D01*
G37*
G36*
X98839962Y-52616651D02*
G01*
X98910930Y-52664070D01*
X98958349Y-52735038D01*
X98975000Y-52818750D01*
X98975000Y-53256250D01*
X98958349Y-53339962D01*
X98910930Y-53410930D01*
X98839962Y-53458349D01*
X98756250Y-53475000D01*
X98243750Y-53475000D01*
X98160038Y-53458349D01*
X98089070Y-53410930D01*
X98041651Y-53339962D01*
X98025000Y-53256250D01*
X98025000Y-52818750D01*
X98041651Y-52735038D01*
X98089070Y-52664070D01*
X98160038Y-52616651D01*
X98243750Y-52600000D01*
X98756250Y-52600000D01*
X98839962Y-52616651D01*
G37*
G36*
X100851537Y-52652724D02*
G01*
X100916421Y-52696079D01*
X100959776Y-52760963D01*
X100975000Y-52837500D01*
X100975000Y-53237500D01*
X100959776Y-53314037D01*
X100916421Y-53378921D01*
X100851537Y-53422276D01*
X100775000Y-53437500D01*
X100225000Y-53437500D01*
X100148463Y-53422276D01*
X100083579Y-53378921D01*
X100040224Y-53314037D01*
X100025000Y-53237500D01*
X100025000Y-52837500D01*
X100040224Y-52760963D01*
X100083579Y-52696079D01*
X100148463Y-52652724D01*
X100225000Y-52637500D01*
X100775000Y-52637500D01*
X100851537Y-52652724D01*
G37*
G36*
X106644903Y-52773918D02*
G01*
X106693566Y-52806434D01*
X106726082Y-52855097D01*
X106737500Y-52912500D01*
X106737500Y-53212500D01*
X106726082Y-53269903D01*
X106693566Y-53318566D01*
X106644903Y-53351082D01*
X106587500Y-53362500D01*
X105412500Y-53362500D01*
X105355097Y-53351082D01*
X105306434Y-53318566D01*
X105273918Y-53269903D01*
X105262500Y-53212500D01*
X105262500Y-52912500D01*
X105273918Y-52855097D01*
X105306434Y-52806434D01*
X105355097Y-52773918D01*
X105412500Y-52762500D01*
X106587500Y-52762500D01*
X106644903Y-52773918D01*
G37*
M02*
