%TF.GenerationSoftware,KiCad,Pcbnew,10.0.1-10.0.1~ubuntu22.04.1*%
%TF.CreationDate,2026-05-31T12:36:49-04:00*%
%TF.ProjectId,BMI088-BOB,466c6967-6874-4436-9f72-655043422e6b,v1.0*%
%TF.SameCoordinates,Original*%
%TF.FileFunction,Copper,L2,Bot*%
%TF.FilePolarity,Positive*%
%FSLAX46Y46*%
G04 Gerber Fmt 4.6, Leading zero omitted, Abs format (unit mm)*
G04 Created by KiCad (PCBNEW 10.0.1-10.0.1~ubuntu22.04.1) date 2026-05-31 12:36:49*
%MOMM*%
%LPD*%
G01*
G04 APERTURE LIST*
%TA.AperFunction,ComponentPad*%
%ADD10R,1.700000X1.700000*%
%TD*%
%TA.AperFunction,ComponentPad*%
%ADD11C,1.700000*%
%TD*%
%TA.AperFunction,ViaPad*%
%ADD12C,0.600000*%
%TD*%
G04 APERTURE END LIST*
D10*
%TO.P,J2,1,Pin_1_1*%
%TO.N,INT2_ACCEL*%
X93000000Y-53062500D03*
D11*
%TO.P,J2,2,Pin_2_2*%
%TO.N,INT1_ACCEL*%
X93000000Y-55602500D03*
%TO.P,J2,3,Pin_3_3*%
%TO.N,GND*%
X93000000Y-58142500D03*
%TO.P,J2,4,Pin_4_4*%
%TO.N,DATA_ACCEL*%
X93000000Y-60682500D03*
%TO.P,J2,5,Pin_5_5*%
%TO.N,CS_ACCEL*%
X93000000Y-63222500D03*
%TO.P,J2,6,Pin_6_6*%
%TO.N,GND*%
X93000000Y-65762500D03*
%TO.P,J2,7,Pin_7_7*%
%TO.N,INT4_GYRO*%
X93000000Y-68302500D03*
%TO.P,J2,8,Pin_8_8*%
%TO.N,INT3_GYRO*%
X93000000Y-70842500D03*
%TD*%
D10*
%TO.P,J1,1,Pin_1_1*%
%TO.N,VCC*%
X116000000Y-53095000D03*
D11*
%TO.P,J1,2,Pin_2_2*%
%TO.N,GND*%
X116000000Y-55635000D03*
%TO.P,J1,3,Pin_3_3*%
%TO.N,CS_GYRO*%
X116000000Y-58175000D03*
%TO.P,J1,4,Pin_4_4*%
%TO.N,PS_GYRO*%
X116000000Y-60715000D03*
%TO.P,J1,5,Pin_5_5*%
%TO.N,CLOCK*%
X116000000Y-63255000D03*
%TO.P,J1,6,Pin_6_6*%
%TO.N,+3V3*%
X116000000Y-65795000D03*
%TO.P,J1,7,Pin_7_7*%
%TO.N,DATA*%
X116000000Y-68335000D03*
%TO.P,J1,8,Pin_8_8*%
%TO.N,DATA_GYRO*%
X116000000Y-70875000D03*
%TD*%
D12*
%TO.N,GND*%
X102000000Y-58800000D03*
X104500000Y-53300000D03*
X98500000Y-55800000D03*
X111500000Y-58800000D03*
X105000000Y-58800000D03*
X106500000Y-59800000D03*
X111000000Y-55300000D03*
X105500000Y-51800000D03*
X105500000Y-66800000D03*
%TD*%
%TA.AperFunction,Conductor*%
%TO.N,GND*%
G36*
X118943039Y-50819685D02*
G01*
X118988794Y-50872489D01*
X119000000Y-50924000D01*
X119000000Y-78676000D01*
X118980315Y-78743039D01*
X118927511Y-78788794D01*
X118876000Y-78800000D01*
X91124000Y-78800000D01*
X91056961Y-78780315D01*
X91011206Y-78727511D01*
X91000000Y-78676000D01*
X91000000Y-76193399D01*
X92145500Y-76193399D01*
X92145500Y-76406600D01*
X92178853Y-76617180D01*
X92178853Y-76617183D01*
X92244734Y-76819944D01*
X92244736Y-76819947D01*
X92341528Y-77009913D01*
X92466846Y-77182397D01*
X92617603Y-77333154D01*
X92790087Y-77458472D01*
X92980053Y-77555264D01*
X92980055Y-77555265D01*
X93169182Y-77616715D01*
X93182821Y-77621147D01*
X93393399Y-77654500D01*
X93393400Y-77654500D01*
X93606600Y-77654500D01*
X93606601Y-77654500D01*
X93817179Y-77621147D01*
X93817182Y-77621146D01*
X93817183Y-77621146D01*
X94019944Y-77555265D01*
X94019944Y-77555264D01*
X94019947Y-77555264D01*
X94209913Y-77458472D01*
X94382397Y-77333154D01*
X94533154Y-77182397D01*
X94658472Y-77009913D01*
X94755264Y-76819947D01*
X94821147Y-76617179D01*
X94854500Y-76406601D01*
X94854500Y-76193399D01*
X115145500Y-76193399D01*
X115145500Y-76406600D01*
X115178853Y-76617180D01*
X115178853Y-76617183D01*
X115244734Y-76819944D01*
X115244736Y-76819947D01*
X115341528Y-77009913D01*
X115466846Y-77182397D01*
X115617603Y-77333154D01*
X115790087Y-77458472D01*
X115980053Y-77555264D01*
X115980055Y-77555265D01*
X116169182Y-77616715D01*
X116182821Y-77621147D01*
X116393399Y-77654500D01*
X116393400Y-77654500D01*
X116606600Y-77654500D01*
X116606601Y-77654500D01*
X116817179Y-77621147D01*
X116817182Y-77621146D01*
X116817183Y-77621146D01*
X117019944Y-77555265D01*
X117019944Y-77555264D01*
X117019947Y-77555264D01*
X117209913Y-77458472D01*
X117382397Y-77333154D01*
X117533154Y-77182397D01*
X117658472Y-77009913D01*
X117755264Y-76819947D01*
X117821147Y-76617179D01*
X117854500Y-76406601D01*
X117854500Y-76193399D01*
X117821147Y-75982821D01*
X117821146Y-75982817D01*
X117821146Y-75982816D01*
X117755265Y-75780055D01*
X117755263Y-75780052D01*
X117658471Y-75590086D01*
X117533154Y-75417603D01*
X117382397Y-75266846D01*
X117209913Y-75141528D01*
X117019947Y-75044736D01*
X117019944Y-75044734D01*
X116817181Y-74978853D01*
X116676793Y-74956617D01*
X116606601Y-74945500D01*
X116393399Y-74945500D01*
X116323206Y-74956617D01*
X116182819Y-74978853D01*
X116182816Y-74978853D01*
X115980055Y-75044734D01*
X115980052Y-75044736D01*
X115790086Y-75141528D01*
X115617601Y-75266847D01*
X115466847Y-75417601D01*
X115341528Y-75590086D01*
X115244736Y-75780052D01*
X115244734Y-75780055D01*
X115178853Y-75982816D01*
X115178853Y-75982819D01*
X115145500Y-76193399D01*
X94854500Y-76193399D01*
X94821147Y-75982821D01*
X94821146Y-75982817D01*
X94821146Y-75982816D01*
X94755265Y-75780055D01*
X94755263Y-75780052D01*
X94658471Y-75590086D01*
X94533154Y-75417603D01*
X94382397Y-75266846D01*
X94209913Y-75141528D01*
X94019947Y-75044736D01*
X94019944Y-75044734D01*
X93817181Y-74978853D01*
X93676793Y-74956617D01*
X93606601Y-74945500D01*
X93393399Y-74945500D01*
X93323206Y-74956617D01*
X93182819Y-74978853D01*
X93182816Y-74978853D01*
X92980055Y-75044734D01*
X92980052Y-75044736D01*
X92790086Y-75141528D01*
X92617601Y-75266847D01*
X92466847Y-75417601D01*
X92341528Y-75590086D01*
X92244736Y-75780052D01*
X92244734Y-75780055D01*
X92178853Y-75982816D01*
X92178853Y-75982819D01*
X92145500Y-76193399D01*
X91000000Y-76193399D01*
X91000000Y-52164635D01*
X91649500Y-52164635D01*
X91649500Y-53960370D01*
X91649501Y-53960376D01*
X91655908Y-54019983D01*
X91706202Y-54154828D01*
X91706206Y-54154835D01*
X91792452Y-54270044D01*
X91792455Y-54270047D01*
X91907664Y-54356293D01*
X91907671Y-54356297D01*
X92039082Y-54405310D01*
X92095016Y-54447181D01*
X92119433Y-54512645D01*
X92104582Y-54580918D01*
X92083431Y-54609173D01*
X91969889Y-54722715D01*
X91844951Y-54894679D01*
X91748444Y-55084085D01*
X91682753Y-55286260D01*
X91649500Y-55496213D01*
X91649500Y-55708786D01*
X91668380Y-55827993D01*
X91682754Y-55918743D01*
X91693277Y-55951130D01*
X91748444Y-56120914D01*
X91844951Y-56310320D01*
X91969890Y-56482286D01*
X92120213Y-56632609D01*
X92292179Y-56757548D01*
X92292181Y-56757549D01*
X92292184Y-56757551D01*
X92301493Y-56762294D01*
X92352290Y-56810266D01*
X92369087Y-56878087D01*
X92346552Y-56944222D01*
X92301505Y-56983260D01*
X92292446Y-56987876D01*
X92292440Y-56987880D01*
X92238282Y-57027227D01*
X92238282Y-57027228D01*
X92870591Y-57659537D01*
X92807007Y-57676575D01*
X92692993Y-57742401D01*
X92599901Y-57835493D01*
X92534075Y-57949507D01*
X92517037Y-58013091D01*
X91884728Y-57380782D01*
X91884727Y-57380782D01*
X91845380Y-57434939D01*
X91748904Y-57624282D01*
X91683242Y-57826369D01*
X91683242Y-57826372D01*
X91650000Y-58036253D01*
X91650000Y-58248746D01*
X91683242Y-58458627D01*
X91683242Y-58458630D01*
X91748904Y-58660717D01*
X91845375Y-58850050D01*
X91884728Y-58904216D01*
X92517037Y-58271908D01*
X92534075Y-58335493D01*
X92599901Y-58449507D01*
X92692993Y-58542599D01*
X92807007Y-58608425D01*
X92870590Y-58625462D01*
X92238282Y-59257769D01*
X92238282Y-59257770D01*
X92292452Y-59297126D01*
X92292451Y-59297126D01*
X92301495Y-59301734D01*
X92352292Y-59349708D01*
X92369087Y-59417529D01*
X92346550Y-59483664D01*
X92301499Y-59522702D01*
X92292182Y-59527449D01*
X92120213Y-59652390D01*
X91969890Y-59802713D01*
X91844951Y-59974679D01*
X91748444Y-60164085D01*
X91682753Y-60366260D01*
X91649500Y-60576213D01*
X91649500Y-60788786D01*
X91682753Y-60998739D01*
X91748444Y-61200914D01*
X91844951Y-61390320D01*
X91969890Y-61562286D01*
X92120213Y-61712609D01*
X92292182Y-61837550D01*
X92300946Y-61842016D01*
X92351742Y-61889991D01*
X92368536Y-61957812D01*
X92345998Y-62023947D01*
X92300946Y-62062984D01*
X92292182Y-62067449D01*
X92120213Y-62192390D01*
X91969890Y-62342713D01*
X91844951Y-62514679D01*
X91748444Y-62704085D01*
X91682753Y-62906260D01*
X91649500Y-63116213D01*
X91649500Y-63328786D01*
X91682753Y-63538739D01*
X91748444Y-63740914D01*
X91844951Y-63930320D01*
X91969890Y-64102286D01*
X92120213Y-64252609D01*
X92292179Y-64377548D01*
X92292181Y-64377549D01*
X92292184Y-64377551D01*
X92301493Y-64382294D01*
X92352290Y-64430266D01*
X92369087Y-64498087D01*
X92346552Y-64564222D01*
X92301505Y-64603260D01*
X92292446Y-64607876D01*
X92292440Y-64607880D01*
X92238282Y-64647227D01*
X92238282Y-64647228D01*
X92870591Y-65279537D01*
X92807007Y-65296575D01*
X92692993Y-65362401D01*
X92599901Y-65455493D01*
X92534075Y-65569507D01*
X92517037Y-65633091D01*
X91884728Y-65000782D01*
X91884727Y-65000782D01*
X91845380Y-65054939D01*
X91748904Y-65244282D01*
X91683242Y-65446369D01*
X91683242Y-65446372D01*
X91650000Y-65656253D01*
X91650000Y-65868746D01*
X91683242Y-66078627D01*
X91683242Y-66078630D01*
X91748904Y-66280717D01*
X91845375Y-66470050D01*
X91884728Y-66524216D01*
X92517037Y-65891908D01*
X92534075Y-65955493D01*
X92599901Y-66069507D01*
X92692993Y-66162599D01*
X92807007Y-66228425D01*
X92870590Y-66245462D01*
X92238282Y-66877769D01*
X92238282Y-66877770D01*
X92292452Y-66917126D01*
X92292451Y-66917126D01*
X92301495Y-66921734D01*
X92352292Y-66969708D01*
X92369087Y-67037529D01*
X92346550Y-67103664D01*
X92301499Y-67142702D01*
X92292182Y-67147449D01*
X92120213Y-67272390D01*
X91969890Y-67422713D01*
X91844951Y-67594679D01*
X91748444Y-67784085D01*
X91682753Y-67986260D01*
X91649500Y-68196213D01*
X91649500Y-68408786D01*
X91682753Y-68618739D01*
X91748444Y-68820914D01*
X91844951Y-69010320D01*
X91969890Y-69182286D01*
X92120213Y-69332609D01*
X92292182Y-69457550D01*
X92300946Y-69462016D01*
X92351742Y-69509991D01*
X92368536Y-69577812D01*
X92345998Y-69643947D01*
X92300946Y-69682984D01*
X92292182Y-69687449D01*
X92120213Y-69812390D01*
X91969890Y-69962713D01*
X91844951Y-70134679D01*
X91748444Y-70324085D01*
X91682753Y-70526260D01*
X91649500Y-70736213D01*
X91649500Y-70948786D01*
X91682753Y-71158739D01*
X91748444Y-71360914D01*
X91844951Y-71550320D01*
X91969890Y-71722286D01*
X92120213Y-71872609D01*
X92292179Y-71997548D01*
X92292181Y-71997549D01*
X92292184Y-71997551D01*
X92481588Y-72094057D01*
X92683757Y-72159746D01*
X92893713Y-72193000D01*
X92893714Y-72193000D01*
X93106286Y-72193000D01*
X93106287Y-72193000D01*
X93316243Y-72159746D01*
X93518412Y-72094057D01*
X93707816Y-71997551D01*
X93729789Y-71981586D01*
X93879786Y-71872609D01*
X93879788Y-71872606D01*
X93879792Y-71872604D01*
X94030104Y-71722292D01*
X94030106Y-71722288D01*
X94030109Y-71722286D01*
X94155048Y-71550320D01*
X94155047Y-71550320D01*
X94155051Y-71550316D01*
X94251557Y-71360912D01*
X94317246Y-71158743D01*
X94350500Y-70948787D01*
X94350500Y-70736213D01*
X94317246Y-70526257D01*
X94251557Y-70324088D01*
X94155051Y-70134684D01*
X94155049Y-70134681D01*
X94155048Y-70134679D01*
X94030109Y-69962713D01*
X93879786Y-69812390D01*
X93707820Y-69687451D01*
X93707115Y-69687091D01*
X93699054Y-69682985D01*
X93648259Y-69635012D01*
X93631463Y-69567192D01*
X93653999Y-69501056D01*
X93699054Y-69462015D01*
X93707816Y-69457551D01*
X93729789Y-69441586D01*
X93879786Y-69332609D01*
X93879788Y-69332606D01*
X93879792Y-69332604D01*
X94030104Y-69182292D01*
X94030106Y-69182288D01*
X94030109Y-69182286D01*
X94155048Y-69010320D01*
X94155047Y-69010320D01*
X94155051Y-69010316D01*
X94251557Y-68820912D01*
X94317246Y-68618743D01*
X94350500Y-68408787D01*
X94350500Y-68196213D01*
X94317246Y-67986257D01*
X94251557Y-67784088D01*
X94155051Y-67594684D01*
X94155049Y-67594681D01*
X94155048Y-67594679D01*
X94030109Y-67422713D01*
X93879786Y-67272390D01*
X93707817Y-67147449D01*
X93698504Y-67142704D01*
X93647707Y-67094730D01*
X93630912Y-67026909D01*
X93653449Y-66960774D01*
X93698507Y-66921732D01*
X93707555Y-66917122D01*
X93761716Y-66877770D01*
X93761717Y-66877770D01*
X93129408Y-66245462D01*
X93192993Y-66228425D01*
X93307007Y-66162599D01*
X93400099Y-66069507D01*
X93465925Y-65955493D01*
X93482962Y-65891909D01*
X94115270Y-66524217D01*
X94115270Y-66524216D01*
X94154622Y-66470054D01*
X94251095Y-66280717D01*
X94316757Y-66078630D01*
X94316757Y-66078627D01*
X94350000Y-65868746D01*
X94350000Y-65656253D01*
X94316757Y-65446372D01*
X94316757Y-65446369D01*
X94251095Y-65244282D01*
X94154624Y-65054949D01*
X94115270Y-65000782D01*
X94115269Y-65000782D01*
X93482962Y-65633090D01*
X93465925Y-65569507D01*
X93400099Y-65455493D01*
X93307007Y-65362401D01*
X93192993Y-65296575D01*
X93129409Y-65279537D01*
X93761716Y-64647228D01*
X93707547Y-64607873D01*
X93707547Y-64607872D01*
X93698500Y-64603263D01*
X93647706Y-64555288D01*
X93630912Y-64487466D01*
X93653451Y-64421332D01*
X93698508Y-64382293D01*
X93707816Y-64377551D01*
X93787007Y-64320015D01*
X93879786Y-64252609D01*
X93879788Y-64252606D01*
X93879792Y-64252604D01*
X94030104Y-64102292D01*
X94030106Y-64102288D01*
X94030109Y-64102286D01*
X94155048Y-63930320D01*
X94155047Y-63930320D01*
X94155051Y-63930316D01*
X94251557Y-63740912D01*
X94317246Y-63538743D01*
X94350500Y-63328787D01*
X94350500Y-63116213D01*
X94317246Y-62906257D01*
X94251557Y-62704088D01*
X94155051Y-62514684D01*
X94155049Y-62514681D01*
X94155048Y-62514679D01*
X94030109Y-62342713D01*
X93879786Y-62192390D01*
X93707820Y-62067451D01*
X93707115Y-62067091D01*
X93699054Y-62062985D01*
X93648259Y-62015012D01*
X93631463Y-61947192D01*
X93653999Y-61881056D01*
X93699054Y-61842015D01*
X93707816Y-61837551D01*
X93729789Y-61821586D01*
X93879786Y-61712609D01*
X93879788Y-61712606D01*
X93879792Y-61712604D01*
X94030104Y-61562292D01*
X94030106Y-61562288D01*
X94030109Y-61562286D01*
X94155048Y-61390320D01*
X94155047Y-61390320D01*
X94155051Y-61390316D01*
X94251557Y-61200912D01*
X94317246Y-60998743D01*
X94350500Y-60788787D01*
X94350500Y-60576213D01*
X94317246Y-60366257D01*
X94251557Y-60164088D01*
X94155051Y-59974684D01*
X94155049Y-59974681D01*
X94155048Y-59974679D01*
X94030109Y-59802713D01*
X93879786Y-59652390D01*
X93707817Y-59527449D01*
X93698504Y-59522704D01*
X93647707Y-59474730D01*
X93630912Y-59406909D01*
X93653449Y-59340774D01*
X93698507Y-59301732D01*
X93707555Y-59297122D01*
X93761716Y-59257770D01*
X93761717Y-59257770D01*
X93129408Y-58625462D01*
X93192993Y-58608425D01*
X93307007Y-58542599D01*
X93400099Y-58449507D01*
X93465925Y-58335493D01*
X93482962Y-58271909D01*
X94115270Y-58904217D01*
X94115270Y-58904216D01*
X94154622Y-58850054D01*
X94251095Y-58660717D01*
X94316757Y-58458630D01*
X94316757Y-58458627D01*
X94350000Y-58248746D01*
X94350000Y-58036253D01*
X94316757Y-57826372D01*
X94316757Y-57826369D01*
X94251095Y-57624282D01*
X94154624Y-57434949D01*
X94115270Y-57380782D01*
X94115269Y-57380782D01*
X93482962Y-58013090D01*
X93465925Y-57949507D01*
X93400099Y-57835493D01*
X93307007Y-57742401D01*
X93192993Y-57676575D01*
X93129409Y-57659537D01*
X93761716Y-57027228D01*
X93707547Y-56987873D01*
X93707547Y-56987872D01*
X93698500Y-56983263D01*
X93647706Y-56935288D01*
X93630912Y-56867466D01*
X93653451Y-56801332D01*
X93698508Y-56762293D01*
X93707816Y-56757551D01*
X93787007Y-56700015D01*
X93879786Y-56632609D01*
X93879788Y-56632606D01*
X93879792Y-56632604D01*
X94030104Y-56482292D01*
X94030106Y-56482288D01*
X94030109Y-56482286D01*
X94155048Y-56310320D01*
X94155047Y-56310320D01*
X94155051Y-56310316D01*
X94251557Y-56120912D01*
X94317246Y-55918743D01*
X94350500Y-55708787D01*
X94350500Y-55496213D01*
X94317246Y-55286257D01*
X94251557Y-55084088D01*
X94155051Y-54894684D01*
X94155049Y-54894681D01*
X94155048Y-54894679D01*
X94030109Y-54722713D01*
X93916569Y-54609173D01*
X93883084Y-54547850D01*
X93888068Y-54478158D01*
X93929940Y-54422225D01*
X93960915Y-54405310D01*
X94092331Y-54356296D01*
X94207546Y-54270046D01*
X94293796Y-54154831D01*
X94344091Y-54019983D01*
X94350500Y-53960373D01*
X94350499Y-52197135D01*
X114649500Y-52197135D01*
X114649500Y-53992870D01*
X114649501Y-53992876D01*
X114655908Y-54052483D01*
X114706202Y-54187328D01*
X114706206Y-54187335D01*
X114792452Y-54302544D01*
X114792455Y-54302547D01*
X114907664Y-54388793D01*
X114907671Y-54388797D01*
X114951945Y-54405310D01*
X115042517Y-54439091D01*
X115102127Y-54445500D01*
X115112685Y-54445499D01*
X115179723Y-54465179D01*
X115200372Y-54481818D01*
X115870591Y-55152037D01*
X115807007Y-55169075D01*
X115692993Y-55234901D01*
X115599901Y-55327993D01*
X115534075Y-55442007D01*
X115517037Y-55505591D01*
X114884728Y-54873282D01*
X114884727Y-54873282D01*
X114845380Y-54927439D01*
X114748904Y-55116782D01*
X114683242Y-55318869D01*
X114683242Y-55318872D01*
X114650000Y-55528753D01*
X114650000Y-55741246D01*
X114683242Y-55951127D01*
X114683242Y-55951130D01*
X114748904Y-56153217D01*
X114845375Y-56342550D01*
X114884728Y-56396716D01*
X115517037Y-55764408D01*
X115534075Y-55827993D01*
X115599901Y-55942007D01*
X115692993Y-56035099D01*
X115807007Y-56100925D01*
X115870590Y-56117962D01*
X115238282Y-56750269D01*
X115238282Y-56750270D01*
X115292452Y-56789626D01*
X115292451Y-56789626D01*
X115301495Y-56794234D01*
X115352292Y-56842208D01*
X115369087Y-56910029D01*
X115346550Y-56976164D01*
X115301499Y-57015202D01*
X115292182Y-57019949D01*
X115120213Y-57144890D01*
X114969890Y-57295213D01*
X114844951Y-57467179D01*
X114748444Y-57656585D01*
X114682753Y-57858760D01*
X114649500Y-58068713D01*
X114649500Y-58281286D01*
X114682753Y-58491239D01*
X114748444Y-58693414D01*
X114844951Y-58882820D01*
X114969890Y-59054786D01*
X115120213Y-59205109D01*
X115292182Y-59330050D01*
X115300946Y-59334516D01*
X115351742Y-59382491D01*
X115368536Y-59450312D01*
X115345998Y-59516447D01*
X115300946Y-59555484D01*
X115292182Y-59559949D01*
X115120213Y-59684890D01*
X114969890Y-59835213D01*
X114844951Y-60007179D01*
X114748444Y-60196585D01*
X114682753Y-60398760D01*
X114649500Y-60608713D01*
X114649500Y-60821286D01*
X114682753Y-61031239D01*
X114748444Y-61233414D01*
X114844951Y-61422820D01*
X114969890Y-61594786D01*
X115120213Y-61745109D01*
X115292182Y-61870050D01*
X115300946Y-61874516D01*
X115351742Y-61922491D01*
X115368536Y-61990312D01*
X115345998Y-62056447D01*
X115300946Y-62095484D01*
X115292182Y-62099949D01*
X115120213Y-62224890D01*
X114969890Y-62375213D01*
X114844951Y-62547179D01*
X114748444Y-62736585D01*
X114682753Y-62938760D01*
X114649500Y-63148713D01*
X114649500Y-63361286D01*
X114682753Y-63571239D01*
X114748444Y-63773414D01*
X114844951Y-63962820D01*
X114969890Y-64134786D01*
X115120213Y-64285109D01*
X115292182Y-64410050D01*
X115300946Y-64414516D01*
X115351742Y-64462491D01*
X115368536Y-64530312D01*
X115345998Y-64596447D01*
X115300946Y-64635484D01*
X115292182Y-64639949D01*
X115120213Y-64764890D01*
X114969890Y-64915213D01*
X114844951Y-65087179D01*
X114748444Y-65276585D01*
X114682753Y-65478760D01*
X114649500Y-65688713D01*
X114649500Y-65901286D01*
X114682753Y-66111239D01*
X114748444Y-66313414D01*
X114844951Y-66502820D01*
X114969890Y-66674786D01*
X115120213Y-66825109D01*
X115292182Y-66950050D01*
X115300946Y-66954516D01*
X115351742Y-67002491D01*
X115368536Y-67070312D01*
X115345998Y-67136447D01*
X115300946Y-67175484D01*
X115292182Y-67179949D01*
X115120213Y-67304890D01*
X114969890Y-67455213D01*
X114844951Y-67627179D01*
X114748444Y-67816585D01*
X114682753Y-68018760D01*
X114649500Y-68228713D01*
X114649500Y-68441286D01*
X114682753Y-68651239D01*
X114748444Y-68853414D01*
X114844951Y-69042820D01*
X114969890Y-69214786D01*
X115120213Y-69365109D01*
X115292182Y-69490050D01*
X115300946Y-69494516D01*
X115351742Y-69542491D01*
X115368536Y-69610312D01*
X115345998Y-69676447D01*
X115300946Y-69715484D01*
X115292182Y-69719949D01*
X115120213Y-69844890D01*
X114969890Y-69995213D01*
X114844951Y-70167179D01*
X114748444Y-70356585D01*
X114682753Y-70558760D01*
X114649500Y-70768713D01*
X114649500Y-70981286D01*
X114682753Y-71191239D01*
X114748444Y-71393414D01*
X114844951Y-71582820D01*
X114969890Y-71754786D01*
X115120213Y-71905109D01*
X115292179Y-72030048D01*
X115292181Y-72030049D01*
X115292184Y-72030051D01*
X115481588Y-72126557D01*
X115683757Y-72192246D01*
X115893713Y-72225500D01*
X115893714Y-72225500D01*
X116106286Y-72225500D01*
X116106287Y-72225500D01*
X116316243Y-72192246D01*
X116518412Y-72126557D01*
X116707816Y-72030051D01*
X116752553Y-71997548D01*
X116879786Y-71905109D01*
X116879788Y-71905106D01*
X116879792Y-71905104D01*
X117030104Y-71754792D01*
X117030106Y-71754788D01*
X117030109Y-71754786D01*
X117155048Y-71582820D01*
X117155047Y-71582820D01*
X117155051Y-71582816D01*
X117251557Y-71393412D01*
X117317246Y-71191243D01*
X117350500Y-70981287D01*
X117350500Y-70768713D01*
X117317246Y-70558757D01*
X117251557Y-70356588D01*
X117155051Y-70167184D01*
X117155049Y-70167181D01*
X117155048Y-70167179D01*
X117030109Y-69995213D01*
X116879786Y-69844890D01*
X116707820Y-69719951D01*
X116707115Y-69719591D01*
X116699054Y-69715485D01*
X116648259Y-69667512D01*
X116631463Y-69599692D01*
X116653999Y-69533556D01*
X116699054Y-69494515D01*
X116707816Y-69490051D01*
X116752553Y-69457548D01*
X116879786Y-69365109D01*
X116879788Y-69365106D01*
X116879792Y-69365104D01*
X117030104Y-69214792D01*
X117030106Y-69214788D01*
X117030109Y-69214786D01*
X117155048Y-69042820D01*
X117155047Y-69042820D01*
X117155051Y-69042816D01*
X117251557Y-68853412D01*
X117317246Y-68651243D01*
X117350500Y-68441287D01*
X117350500Y-68228713D01*
X117317246Y-68018757D01*
X117251557Y-67816588D01*
X117155051Y-67627184D01*
X117155049Y-67627181D01*
X117155048Y-67627179D01*
X117030109Y-67455213D01*
X116879786Y-67304890D01*
X116707820Y-67179951D01*
X116707115Y-67179591D01*
X116699054Y-67175485D01*
X116648259Y-67127512D01*
X116631463Y-67059692D01*
X116653999Y-66993556D01*
X116699054Y-66954515D01*
X116707816Y-66950051D01*
X116807303Y-66877770D01*
X116879786Y-66825109D01*
X116879788Y-66825106D01*
X116879792Y-66825104D01*
X117030104Y-66674792D01*
X117030106Y-66674788D01*
X117030109Y-66674786D01*
X117155048Y-66502820D01*
X117155047Y-66502820D01*
X117155051Y-66502816D01*
X117251557Y-66313412D01*
X117317246Y-66111243D01*
X117350500Y-65901287D01*
X117350500Y-65688713D01*
X117317246Y-65478757D01*
X117251557Y-65276588D01*
X117155051Y-65087184D01*
X117155049Y-65087181D01*
X117155048Y-65087179D01*
X117030109Y-64915213D01*
X116879786Y-64764890D01*
X116707820Y-64639951D01*
X116707115Y-64639591D01*
X116699054Y-64635485D01*
X116648259Y-64587512D01*
X116631463Y-64519692D01*
X116653999Y-64453556D01*
X116699054Y-64414515D01*
X116707816Y-64410051D01*
X116752549Y-64377551D01*
X116879786Y-64285109D01*
X116879788Y-64285106D01*
X116879792Y-64285104D01*
X117030104Y-64134792D01*
X117030106Y-64134788D01*
X117030109Y-64134786D01*
X117155048Y-63962820D01*
X117155047Y-63962820D01*
X117155051Y-63962816D01*
X117251557Y-63773412D01*
X117317246Y-63571243D01*
X117350500Y-63361287D01*
X117350500Y-63148713D01*
X117317246Y-62938757D01*
X117251557Y-62736588D01*
X117155051Y-62547184D01*
X117155049Y-62547181D01*
X117155048Y-62547179D01*
X117030109Y-62375213D01*
X116879786Y-62224890D01*
X116707820Y-62099951D01*
X116707115Y-62099591D01*
X116699054Y-62095485D01*
X116648259Y-62047512D01*
X116631463Y-61979692D01*
X116653999Y-61913556D01*
X116699054Y-61874515D01*
X116707816Y-61870051D01*
X116752553Y-61837548D01*
X116879786Y-61745109D01*
X116879788Y-61745106D01*
X116879792Y-61745104D01*
X117030104Y-61594792D01*
X117030106Y-61594788D01*
X117030109Y-61594786D01*
X117155048Y-61422820D01*
X117155047Y-61422820D01*
X117155051Y-61422816D01*
X117251557Y-61233412D01*
X117317246Y-61031243D01*
X117350500Y-60821287D01*
X117350500Y-60608713D01*
X117317246Y-60398757D01*
X117251557Y-60196588D01*
X117155051Y-60007184D01*
X117155049Y-60007181D01*
X117155048Y-60007179D01*
X117030109Y-59835213D01*
X116879786Y-59684890D01*
X116707820Y-59559951D01*
X116707115Y-59559591D01*
X116699054Y-59555485D01*
X116648259Y-59507512D01*
X116631463Y-59439692D01*
X116653999Y-59373556D01*
X116699054Y-59334515D01*
X116707816Y-59330051D01*
X116807303Y-59257770D01*
X116879786Y-59205109D01*
X116879788Y-59205106D01*
X116879792Y-59205104D01*
X117030104Y-59054792D01*
X117030106Y-59054788D01*
X117030109Y-59054786D01*
X117155048Y-58882820D01*
X117155047Y-58882820D01*
X117155051Y-58882816D01*
X117251557Y-58693412D01*
X117317246Y-58491243D01*
X117350500Y-58281287D01*
X117350500Y-58068713D01*
X117317246Y-57858757D01*
X117251557Y-57656588D01*
X117155051Y-57467184D01*
X117155049Y-57467181D01*
X117155048Y-57467179D01*
X117030109Y-57295213D01*
X116879786Y-57144890D01*
X116707817Y-57019949D01*
X116698504Y-57015204D01*
X116647707Y-56967230D01*
X116630912Y-56899409D01*
X116653449Y-56833274D01*
X116698507Y-56794232D01*
X116707555Y-56789622D01*
X116761716Y-56750270D01*
X116761717Y-56750270D01*
X116129408Y-56117962D01*
X116192993Y-56100925D01*
X116307007Y-56035099D01*
X116400099Y-55942007D01*
X116465925Y-55827993D01*
X116482962Y-55764409D01*
X117115270Y-56396717D01*
X117115270Y-56396716D01*
X117154622Y-56342554D01*
X117251095Y-56153217D01*
X117316757Y-55951130D01*
X117316757Y-55951127D01*
X117350000Y-55741246D01*
X117350000Y-55528753D01*
X117316757Y-55318872D01*
X117316757Y-55318869D01*
X117251095Y-55116782D01*
X117154624Y-54927449D01*
X117115270Y-54873282D01*
X117115269Y-54873282D01*
X116482962Y-55505590D01*
X116465925Y-55442007D01*
X116400099Y-55327993D01*
X116307007Y-55234901D01*
X116192993Y-55169075D01*
X116129409Y-55152037D01*
X116799627Y-54481818D01*
X116860950Y-54448333D01*
X116887307Y-54445499D01*
X116897872Y-54445499D01*
X116957483Y-54439091D01*
X117092331Y-54388796D01*
X117207546Y-54302546D01*
X117293796Y-54187331D01*
X117344091Y-54052483D01*
X117350500Y-53992873D01*
X117350499Y-52197128D01*
X117344091Y-52137517D01*
X117331969Y-52105017D01*
X117293797Y-52002671D01*
X117293793Y-52002664D01*
X117207547Y-51887455D01*
X117207544Y-51887452D01*
X117092335Y-51801206D01*
X117092328Y-51801202D01*
X116957482Y-51750908D01*
X116957483Y-51750908D01*
X116897883Y-51744501D01*
X116897881Y-51744500D01*
X116897873Y-51744500D01*
X116897864Y-51744500D01*
X115102129Y-51744500D01*
X115102123Y-51744501D01*
X115042516Y-51750908D01*
X114907671Y-51801202D01*
X114907664Y-51801206D01*
X114792455Y-51887452D01*
X114792452Y-51887455D01*
X114706206Y-52002664D01*
X114706202Y-52002671D01*
X114655908Y-52137517D01*
X114652993Y-52164635D01*
X114649501Y-52197123D01*
X114649500Y-52197135D01*
X94350499Y-52197135D01*
X94350499Y-52164628D01*
X94344091Y-52105017D01*
X94305918Y-52002671D01*
X94293797Y-51970171D01*
X94293793Y-51970164D01*
X94207547Y-51854955D01*
X94207544Y-51854952D01*
X94092335Y-51768706D01*
X94092328Y-51768702D01*
X93957482Y-51718408D01*
X93957483Y-51718408D01*
X93897883Y-51712001D01*
X93897881Y-51712000D01*
X93897873Y-51712000D01*
X93897864Y-51712000D01*
X92102129Y-51712000D01*
X92102123Y-51712001D01*
X92042516Y-51718408D01*
X91907671Y-51768702D01*
X91907664Y-51768706D01*
X91792455Y-51854952D01*
X91792452Y-51854955D01*
X91706206Y-51970164D01*
X91706202Y-51970171D01*
X91655908Y-52105017D01*
X91649501Y-52164616D01*
X91649501Y-52164623D01*
X91649500Y-52164635D01*
X91000000Y-52164635D01*
X91000000Y-50924000D01*
X91019685Y-50856961D01*
X91072489Y-50811206D01*
X91124000Y-50800000D01*
X118876000Y-50800000D01*
X118943039Y-50819685D01*
G37*
%TD.AperFunction*%
%TD*%
M02*
