%TF.GenerationSoftware,KiCad,Pcbnew,10.0.1-10.0.1~ubuntu22.04.1*%
%TF.CreationDate,2026-05-31T12:36:49-04:00*%
%TF.ProjectId,BMI088-BOB,466c6967-6874-4436-9f72-655043422e6b,v1.0*%
%TF.SameCoordinates,Original*%
%TF.FileFunction,Legend,Top*%
%TF.FilePolarity,Positive*%
%FSLAX46Y46*%
G04 Gerber Fmt 4.6, Leading zero omitted, Abs format (unit mm)*
G04 Created by KiCad (PCBNEW 10.0.1-10.0.1~ubuntu22.04.1) date 2026-05-31 12:36:49*
%MOMM*%
%LPD*%
G01*
G04 APERTURE LIST*
%ADD10C,0.160000*%
%ADD11C,0.200000*%
%ADD12C,0.120000*%
%ADD13C,0.000000*%
G04 APERTURE END LIST*
D10*
X103000000Y-71800000D02*
X107000000Y-71800000D01*
X107000000Y-75800000D01*
X103000000Y-75800000D01*
X103000000Y-71800000D01*
D11*
G36*
X97575505Y-77423101D02*
G01*
X97668175Y-77434991D01*
X97754629Y-77456905D01*
X97825125Y-77488114D01*
X97884517Y-77531566D01*
X97928367Y-77586006D01*
X97948283Y-77627959D01*
X97960841Y-77677470D01*
X97965296Y-77736143D01*
X97960661Y-77790049D01*
X97947384Y-77836849D01*
X97925875Y-77877852D01*
X97896641Y-77914041D01*
X97860280Y-77945462D01*
X97815893Y-77972301D01*
X97883142Y-78001072D01*
X97934247Y-78035841D01*
X97972037Y-78076348D01*
X97999263Y-78124550D01*
X98016322Y-78181992D01*
X98022376Y-78250884D01*
X98016649Y-78322073D01*
X98000373Y-78383039D01*
X97974290Y-78435588D01*
X97938292Y-78481076D01*
X97891437Y-78520309D01*
X97825444Y-78556163D01*
X97739719Y-78584330D01*
X97629722Y-78603130D01*
X97490195Y-78610068D01*
X97303862Y-78604572D01*
X97212902Y-78595807D01*
X97139364Y-78581931D01*
X97139364Y-78427179D01*
X97347533Y-78427179D01*
X97423077Y-78430696D01*
X97496936Y-78431868D01*
X97561245Y-78429702D01*
X97618642Y-78423515D01*
X97672425Y-78411561D01*
X97716022Y-78394133D01*
X97753297Y-78369284D01*
X97781528Y-78337859D01*
X97799367Y-78299006D01*
X97805854Y-78247147D01*
X97800798Y-78198905D01*
X97786835Y-78161313D01*
X97764708Y-78131944D01*
X97733681Y-78109394D01*
X97683945Y-78089267D01*
X97618626Y-78075790D01*
X97533866Y-78070780D01*
X97347533Y-78070780D01*
X97347533Y-78427179D01*
X97139364Y-78427179D01*
X97139364Y-77597144D01*
X97347533Y-77597144D01*
X97347533Y-77906648D01*
X97496936Y-77906648D01*
X97577300Y-77902153D01*
X97639316Y-77890068D01*
X97686566Y-77872064D01*
X97724349Y-77843413D01*
X97747168Y-77803343D01*
X97755443Y-77747866D01*
X97747144Y-77695949D01*
X97723766Y-77657054D01*
X97684075Y-77627919D01*
X97635222Y-77609186D01*
X97574265Y-77596923D01*
X97498621Y-77592454D01*
X97412159Y-77593627D01*
X97347533Y-77597144D01*
X97139364Y-77597144D01*
X97139364Y-77447081D01*
X97218279Y-77434698D01*
X97303862Y-77425612D01*
X97390324Y-77420630D01*
X97471730Y-77418944D01*
X97575505Y-77423101D01*
G37*
G36*
X98496011Y-77433013D02*
G01*
X98578224Y-77589157D01*
X98670621Y-77782964D01*
X98763824Y-77989447D01*
X98848600Y-78183327D01*
X98932498Y-77989447D01*
X99024895Y-77782964D01*
X99117219Y-77589157D01*
X99199504Y-77433013D01*
X99390893Y-77433013D01*
X99419396Y-77704049D01*
X99443722Y-77997727D01*
X99463872Y-78299831D01*
X99479846Y-78596000D01*
X99271678Y-78596000D01*
X99255704Y-78177831D01*
X99244052Y-77964519D01*
X99228007Y-77761275D01*
X99184337Y-77853599D01*
X99130628Y-77970323D01*
X99072742Y-78100455D01*
X99015662Y-78230588D01*
X98964445Y-78348117D01*
X98924145Y-78441247D01*
X98766315Y-78441247D01*
X98726015Y-78347238D01*
X98674797Y-78228903D01*
X98617718Y-78098770D01*
X98559759Y-77969443D01*
X98506050Y-77852793D01*
X98462452Y-77761275D01*
X98446408Y-77964519D01*
X98434755Y-78177831D01*
X98418782Y-78596000D01*
X98210614Y-78596000D01*
X98226587Y-78297266D01*
X98246737Y-77991059D01*
X98271064Y-77696502D01*
X98299640Y-77433013D01*
X98496011Y-77433013D01*
G37*
G36*
X99726775Y-77433013D02*
G01*
X99938314Y-77433013D01*
X99938314Y-78596000D01*
X99726775Y-78596000D01*
X99726775Y-77433013D01*
G37*
G36*
X100628147Y-77411391D02*
G01*
X100693411Y-77430204D01*
X100751677Y-77460957D01*
X100804122Y-77504282D01*
X100851367Y-77561753D01*
X100895144Y-77641158D01*
X100928813Y-77739947D01*
X100950851Y-77862079D01*
X100958859Y-78012161D01*
X100950852Y-78162240D01*
X100928816Y-78284386D01*
X100895147Y-78383202D01*
X100851367Y-78462643D01*
X100804126Y-78520084D01*
X100751683Y-78563388D01*
X100693417Y-78594128D01*
X100628151Y-78612934D01*
X100554246Y-78619447D01*
X100480342Y-78612935D01*
X100415068Y-78594130D01*
X100356786Y-78563390D01*
X100304321Y-78520085D01*
X100257051Y-78462643D01*
X100213304Y-78383207D01*
X100179657Y-78284393D01*
X100157635Y-78162245D01*
X100149633Y-78012161D01*
X100359487Y-78012161D01*
X100361875Y-78100832D01*
X100368719Y-78180762D01*
X100381814Y-78256196D01*
X100400593Y-78316903D01*
X100427850Y-78369628D01*
X100461043Y-78407908D01*
X100502687Y-78432710D01*
X100554246Y-78441247D01*
X100605658Y-78432681D01*
X100646570Y-78407908D01*
X100679105Y-78369697D01*
X100706140Y-78316903D01*
X100725159Y-78256207D01*
X100738893Y-78180762D01*
X100746390Y-78100810D01*
X100749005Y-78012161D01*
X100746390Y-77923513D01*
X100738893Y-77843561D01*
X100725156Y-77768125D01*
X100706140Y-77707493D01*
X100679097Y-77654650D01*
X100646570Y-77616488D01*
X100605653Y-77591658D01*
X100554246Y-77583076D01*
X100502693Y-77591629D01*
X100461043Y-77616488D01*
X100427858Y-77654719D01*
X100400593Y-77707493D01*
X100381816Y-77768137D01*
X100368719Y-77843561D01*
X100361875Y-77923490D01*
X100359487Y-78012161D01*
X100149633Y-78012161D01*
X100156970Y-77870588D01*
X100177330Y-77752995D01*
X100199532Y-77678882D01*
X100226539Y-77615866D01*
X100257930Y-77562559D01*
X100296347Y-77514441D01*
X100338772Y-77475606D01*
X100385498Y-77445176D01*
X100436680Y-77423048D01*
X100492606Y-77409525D01*
X100554246Y-77404876D01*
X100628147Y-77411391D01*
G37*
G36*
X101602075Y-77412535D02*
G01*
X101676127Y-77433452D01*
X101740714Y-77467028D01*
X101790286Y-77507458D01*
X101828967Y-77555807D01*
X101854912Y-77608355D01*
X101870179Y-77663807D01*
X101875062Y-77715919D01*
X101869316Y-77776005D01*
X101852522Y-77830246D01*
X101824651Y-77879904D01*
X101769694Y-77944806D01*
X101708806Y-77993404D01*
X101771891Y-78032963D01*
X101820098Y-78074257D01*
X101855718Y-78117308D01*
X101881959Y-78166110D01*
X101898007Y-78220864D01*
X101903565Y-78282978D01*
X101897149Y-78353086D01*
X101878360Y-78416921D01*
X101846968Y-78474573D01*
X101802815Y-78524046D01*
X101747566Y-78563564D01*
X101677739Y-78594387D01*
X101599724Y-78612838D01*
X101505694Y-78619447D01*
X101429890Y-78615482D01*
X101367353Y-78604510D01*
X101315990Y-78587646D01*
X101246389Y-78550597D01*
X101195090Y-78507339D01*
X101155842Y-78456160D01*
X101130464Y-78402706D01*
X101115811Y-78347009D01*
X101111193Y-78296460D01*
X101111368Y-78294115D01*
X101310935Y-78294115D01*
X101313329Y-78319541D01*
X101320973Y-78347898D01*
X101334241Y-78374851D01*
X101354605Y-78399921D01*
X101380755Y-78421080D01*
X101415055Y-78439415D01*
X101454682Y-78451002D01*
X101507379Y-78455316D01*
X101555755Y-78451746D01*
X101594647Y-78441907D01*
X101628978Y-78425704D01*
X101655097Y-78405783D01*
X101675736Y-78381357D01*
X101690341Y-78353759D01*
X101699225Y-78323940D01*
X101702138Y-78294115D01*
X101697327Y-78249163D01*
X101683674Y-78211830D01*
X101661479Y-78179199D01*
X101630771Y-78150574D01*
X101594021Y-78126661D01*
X101549291Y-78105218D01*
X101445244Y-78070780D01*
X101390170Y-78113871D01*
X101347864Y-78163983D01*
X101327670Y-78201901D01*
X101315255Y-78244889D01*
X101310935Y-78294115D01*
X101111368Y-78294115D01*
X101114845Y-78247462D01*
X101125408Y-78203550D01*
X101142485Y-78162399D01*
X101164902Y-78124855D01*
X101221981Y-78058763D01*
X101289099Y-78005200D01*
X101219923Y-77947249D01*
X101174061Y-77888330D01*
X101153652Y-77844774D01*
X101140846Y-77793983D01*
X101136325Y-77734457D01*
X101137657Y-77721341D01*
X101336140Y-77721341D01*
X101341231Y-77762552D01*
X101356763Y-77802843D01*
X101383988Y-77843194D01*
X101419595Y-77876383D01*
X101471537Y-77907046D01*
X101544309Y-77934565D01*
X101600833Y-77891891D01*
X101641688Y-77845759D01*
X101660676Y-77810826D01*
X101672659Y-77768789D01*
X101676933Y-77717971D01*
X101667700Y-77669684D01*
X101655685Y-77644780D01*
X101637438Y-77621471D01*
X101614250Y-77601525D01*
X101584609Y-77584248D01*
X101550593Y-77573064D01*
X101507379Y-77569007D01*
X101463998Y-77572837D01*
X101429270Y-77583442D01*
X101399203Y-77600296D01*
X101376441Y-77620665D01*
X101358655Y-77644549D01*
X101346179Y-77669684D01*
X101338589Y-77696029D01*
X101336140Y-77721341D01*
X101137657Y-77721341D01*
X101142841Y-77670303D01*
X101162337Y-77609234D01*
X101193911Y-77553227D01*
X101237002Y-77504087D01*
X101290004Y-77463752D01*
X101354532Y-77431767D01*
X101425982Y-77411812D01*
X101507379Y-77404876D01*
X101602075Y-77412535D01*
G37*
G36*
X102555208Y-77412535D02*
G01*
X102629260Y-77433452D01*
X102693847Y-77467028D01*
X102743419Y-77507458D01*
X102782100Y-77555807D01*
X102808046Y-77608355D01*
X102823312Y-77663807D01*
X102828196Y-77715919D01*
X102822449Y-77776005D01*
X102805656Y-77830246D01*
X102777784Y-77879904D01*
X102722827Y-77944806D01*
X102661939Y-77993404D01*
X102725025Y-78032963D01*
X102773232Y-78074257D01*
X102808852Y-78117308D01*
X102835093Y-78166110D01*
X102851140Y-78220864D01*
X102856699Y-78282978D01*
X102850282Y-78353086D01*
X102831493Y-78416921D01*
X102800102Y-78474573D01*
X102755949Y-78524046D01*
X102700699Y-78563564D01*
X102630872Y-78594387D01*
X102552857Y-78612838D01*
X102458827Y-78619447D01*
X102383023Y-78615482D01*
X102320486Y-78604510D01*
X102269124Y-78587646D01*
X102199522Y-78550597D01*
X102148224Y-78507339D01*
X102108976Y-78456160D01*
X102083597Y-78402706D01*
X102068945Y-78347009D01*
X102064326Y-78296460D01*
X102064501Y-78294115D01*
X102264068Y-78294115D01*
X102266462Y-78319541D01*
X102274106Y-78347898D01*
X102287374Y-78374851D01*
X102307739Y-78399921D01*
X102333888Y-78421080D01*
X102368189Y-78439415D01*
X102407815Y-78451002D01*
X102460512Y-78455316D01*
X102508888Y-78451746D01*
X102547780Y-78441907D01*
X102582111Y-78425704D01*
X102608230Y-78405783D01*
X102628869Y-78381357D01*
X102643475Y-78353759D01*
X102652358Y-78323940D01*
X102655272Y-78294115D01*
X102650460Y-78249163D01*
X102636807Y-78211830D01*
X102614612Y-78179199D01*
X102583904Y-78150574D01*
X102547154Y-78126661D01*
X102502424Y-78105218D01*
X102398377Y-78070780D01*
X102343303Y-78113871D01*
X102300997Y-78163983D01*
X102280804Y-78201901D01*
X102268388Y-78244889D01*
X102264068Y-78294115D01*
X102064501Y-78294115D01*
X102067978Y-78247462D01*
X102078541Y-78203550D01*
X102095618Y-78162399D01*
X102118035Y-78124855D01*
X102175115Y-78058763D01*
X102242233Y-78005200D01*
X102173056Y-77947249D01*
X102127194Y-77888330D01*
X102106785Y-77844774D01*
X102093979Y-77793983D01*
X102089459Y-77734457D01*
X102090791Y-77721341D01*
X102289274Y-77721341D01*
X102294364Y-77762552D01*
X102309896Y-77802843D01*
X102337121Y-77843194D01*
X102372728Y-77876383D01*
X102424670Y-77907046D01*
X102497442Y-77934565D01*
X102553966Y-77891891D01*
X102594822Y-77845759D01*
X102613809Y-77810826D01*
X102625792Y-77768789D01*
X102630066Y-77717971D01*
X102620833Y-77669684D01*
X102608818Y-77644780D01*
X102590572Y-77621471D01*
X102567383Y-77601525D01*
X102537742Y-77584248D01*
X102503726Y-77573064D01*
X102460512Y-77569007D01*
X102417131Y-77572837D01*
X102382404Y-77583442D01*
X102352337Y-77600296D01*
X102329574Y-77620665D01*
X102311788Y-77644549D01*
X102299312Y-77669684D01*
X102291722Y-77696029D01*
X102289274Y-77721341D01*
X102090791Y-77721341D01*
X102095974Y-77670303D01*
X102115471Y-77609234D01*
X102147044Y-77553227D01*
X102190136Y-77504087D01*
X102243137Y-77463752D01*
X102307665Y-77431767D01*
X102379115Y-77411812D01*
X102460512Y-77404876D01*
X102555208Y-77412535D01*
G37*
G36*
X104114647Y-77684778D02*
G01*
X104226242Y-77953250D01*
X104342086Y-78251983D01*
X104467163Y-78596000D01*
X104238845Y-78596000D01*
X104190118Y-78460811D01*
X104141465Y-78324011D01*
X103651270Y-78324011D01*
X103603422Y-78461690D01*
X103555575Y-78596000D01*
X103335683Y-78596000D01*
X103459881Y-78251983D01*
X103498936Y-78150501D01*
X103704979Y-78150501D01*
X104087756Y-78150501D01*
X103983635Y-77872577D01*
X103896367Y-77658254D01*
X103808220Y-77874262D01*
X103704979Y-78150501D01*
X103498936Y-78150501D01*
X103574846Y-77953250D01*
X103686514Y-77684778D01*
X103800673Y-77433013D01*
X104000488Y-77433013D01*
X104114647Y-77684778D01*
G37*
G36*
X104533328Y-78158341D02*
G01*
X104541022Y-78063025D01*
X104563517Y-77975818D01*
X104600651Y-77895860D01*
X104649979Y-77828613D01*
X104711940Y-77773353D01*
X104786852Y-77731013D01*
X104841621Y-77711677D01*
X104901756Y-77699744D01*
X104968129Y-77695623D01*
X105050012Y-77700903D01*
X105128124Y-77716544D01*
X105203189Y-77742517D01*
X105159518Y-77906648D01*
X105079797Y-77883201D01*
X105034448Y-77876228D01*
X104984909Y-77873822D01*
X104926098Y-77878986D01*
X104877496Y-77893484D01*
X104837116Y-77916533D01*
X104803558Y-77948341D01*
X104770581Y-78001386D01*
X104749290Y-78069944D01*
X104741496Y-78158341D01*
X104748790Y-78243593D01*
X104768898Y-78311312D01*
X104800261Y-78365117D01*
X104832297Y-78396670D01*
X104874238Y-78420256D01*
X104928485Y-78435612D01*
X104998318Y-78441247D01*
X105050017Y-78438894D01*
X105100680Y-78431868D01*
X105188021Y-78408421D01*
X105216598Y-78577242D01*
X105178430Y-78591511D01*
X105115041Y-78606478D01*
X105046352Y-78616172D01*
X104974870Y-78619447D01*
X104900465Y-78615306D01*
X104835694Y-78603548D01*
X104779232Y-78584935D01*
X104726185Y-78558454D01*
X104680555Y-78526512D01*
X104641552Y-78489021D01*
X104594354Y-78422456D01*
X104560146Y-78342622D01*
X104540212Y-78255276D01*
X104533328Y-78158341D01*
G37*
G36*
X105325847Y-78158341D02*
G01*
X105333542Y-78063025D01*
X105356036Y-77975818D01*
X105393170Y-77895860D01*
X105442498Y-77828613D01*
X105504459Y-77773353D01*
X105579371Y-77731013D01*
X105634140Y-77711677D01*
X105694275Y-77699744D01*
X105760648Y-77695623D01*
X105842531Y-77700903D01*
X105920644Y-77716544D01*
X105995708Y-77742517D01*
X105952037Y-77906648D01*
X105872316Y-77883201D01*
X105826967Y-77876228D01*
X105777428Y-77873822D01*
X105718617Y-77878986D01*
X105670015Y-77893484D01*
X105629635Y-77916533D01*
X105596078Y-77948341D01*
X105563100Y-78001386D01*
X105541809Y-78069944D01*
X105534016Y-78158341D01*
X105541309Y-78243593D01*
X105561417Y-78311312D01*
X105592780Y-78365117D01*
X105624816Y-78396670D01*
X105666757Y-78420256D01*
X105721004Y-78435612D01*
X105790837Y-78441247D01*
X105842536Y-78438894D01*
X105893199Y-78431868D01*
X105980540Y-78408421D01*
X106009117Y-78577242D01*
X105970950Y-78591511D01*
X105907561Y-78606478D01*
X105838871Y-78616172D01*
X105767390Y-78619447D01*
X105692985Y-78615306D01*
X105628214Y-78603548D01*
X105571751Y-78584935D01*
X105518704Y-78558454D01*
X105473074Y-78526512D01*
X105434071Y-78489021D01*
X105386873Y-78422456D01*
X105352665Y-78342622D01*
X105332731Y-78255276D01*
X105325847Y-78158341D01*
G37*
G36*
X106615666Y-77703339D02*
G01*
X106690972Y-77725166D01*
X106754845Y-77760095D01*
X106809183Y-77808463D01*
X106851004Y-77867060D01*
X106882672Y-77940419D01*
X106903260Y-78031765D01*
X106910739Y-78145078D01*
X106909860Y-78182960D01*
X106907369Y-78220842D01*
X106328220Y-78220842D01*
X106340970Y-78287919D01*
X106366003Y-78341241D01*
X106402958Y-78383655D01*
X106450476Y-78414145D01*
X106513077Y-78433949D01*
X106595153Y-78441247D01*
X106667334Y-78438111D01*
X106730268Y-78429230D01*
X106826842Y-78403732D01*
X106853660Y-78567863D01*
X106807498Y-78585375D01*
X106740307Y-78601935D01*
X106658900Y-78614464D01*
X106569947Y-78619447D01*
X106493261Y-78615300D01*
X106426545Y-78603535D01*
X106368447Y-78584935D01*
X106313745Y-78558362D01*
X106267050Y-78526404D01*
X106227470Y-78489021D01*
X106179487Y-78422644D01*
X106145184Y-78344307D01*
X106125282Y-78258427D01*
X106118367Y-78161711D01*
X106122473Y-78084884D01*
X106124919Y-78070780D01*
X106329905Y-78070780D01*
X106707627Y-78070780D01*
X106704635Y-78029272D01*
X106695830Y-77990473D01*
X106681155Y-77954510D01*
X106661465Y-77924527D01*
X106636345Y-77899617D01*
X106606071Y-77880563D01*
X106571247Y-77868696D01*
X106528035Y-77864443D01*
X106483042Y-77869092D01*
X106445750Y-77882249D01*
X106413056Y-77902872D01*
X106386106Y-77928777D01*
X106364622Y-77959426D01*
X106348370Y-77994722D01*
X106329905Y-78070780D01*
X106124919Y-78070780D01*
X106134168Y-78017445D01*
X106152732Y-77958159D01*
X106193655Y-77876673D01*
X106244249Y-77812566D01*
X106305710Y-77761554D01*
X106375188Y-77725078D01*
X106450156Y-77702935D01*
X106526277Y-77695623D01*
X106615666Y-77703339D01*
G37*
G36*
X107431563Y-78614757D02*
G01*
X107344978Y-78608369D01*
X107281280Y-78594607D01*
X107226380Y-78571280D01*
X107186465Y-78541558D01*
X107156698Y-78503245D01*
X107136933Y-78455682D01*
X107126411Y-78402313D01*
X107122644Y-78338665D01*
X107122644Y-77325155D01*
X107325830Y-77292329D01*
X107325830Y-78299611D01*
X107331692Y-78361893D01*
X107340002Y-78385497D01*
X107352648Y-78404757D01*
X107370088Y-78420021D01*
X107393827Y-78431648D01*
X107460139Y-78445937D01*
X107431563Y-78614757D01*
G37*
G36*
X108465551Y-77410158D02*
G01*
X108524207Y-77425026D01*
X108576553Y-77449511D01*
X108617411Y-77480494D01*
X108649889Y-77518908D01*
X108673611Y-77563732D01*
X108688070Y-77612808D01*
X108692955Y-77665361D01*
X108688470Y-77717821D01*
X108675296Y-77766184D01*
X108654515Y-77811387D01*
X108627449Y-77852720D01*
X108595066Y-77890391D01*
X108557766Y-77924967D01*
X108516924Y-77955790D01*
X108472990Y-77982926D01*
X108702993Y-78214394D01*
X108724084Y-78168887D01*
X108741608Y-78116282D01*
X108765129Y-78009817D01*
X108934682Y-78031652D01*
X108922205Y-78099949D01*
X108899438Y-78180030D01*
X108868415Y-78259402D01*
X108828949Y-78335075D01*
X108935561Y-78463889D01*
X108983062Y-78531234D01*
X109020338Y-78596000D01*
X108808799Y-78596000D01*
X108766008Y-78533498D01*
X108711420Y-78470923D01*
X108637998Y-78526826D01*
X108553590Y-78571526D01*
X108493160Y-78592541D01*
X108426356Y-78605558D01*
X108352163Y-78610068D01*
X108277381Y-78606313D01*
X108215333Y-78595902D01*
X108164071Y-78579879D01*
X108094250Y-78544461D01*
X108042365Y-78502723D01*
X108002547Y-78452672D01*
X107976859Y-78398749D01*
X107962308Y-78341588D01*
X107957588Y-78286422D01*
X107958735Y-78272207D01*
X108152348Y-78272207D01*
X108154997Y-78300627D01*
X108163265Y-78330752D01*
X108177308Y-78359388D01*
X108198510Y-78386659D01*
X108225862Y-78409733D01*
X108262257Y-78429230D01*
X108304172Y-78441481D01*
X108357145Y-78445937D01*
X108430398Y-78439958D01*
X108494019Y-78422856D01*
X108551310Y-78394557D01*
X108598946Y-78356910D01*
X108303436Y-78056785D01*
X108251339Y-78088512D01*
X108202686Y-78132769D01*
X108182943Y-78160398D01*
X108166563Y-78192926D01*
X108156079Y-78228878D01*
X108152348Y-78272207D01*
X107958735Y-78272207D01*
X107962575Y-78224618D01*
X107976859Y-78170724D01*
X107999689Y-78120987D01*
X108028956Y-78076788D01*
X108064205Y-78037399D01*
X108104501Y-78003002D01*
X108194333Y-77945996D01*
X108148413Y-77889986D01*
X108112927Y-77831764D01*
X108089605Y-77769466D01*
X108081859Y-77703976D01*
X108082919Y-77691519D01*
X108261451Y-77691519D01*
X108267962Y-77739539D01*
X108288269Y-77788533D01*
X108319484Y-77834647D01*
X108362201Y-77880417D01*
X108421772Y-77843341D01*
X108470425Y-77797765D01*
X108489350Y-77771219D01*
X108504057Y-77742151D01*
X108513380Y-77710359D01*
X108516660Y-77672981D01*
X108508597Y-77627481D01*
X108484713Y-77589524D01*
X108461319Y-77570891D01*
X108431222Y-77559180D01*
X108392390Y-77554939D01*
X108351635Y-77559650D01*
X108319881Y-77572736D01*
X108295010Y-77593773D01*
X108276652Y-77621282D01*
X108265396Y-77653449D01*
X108261451Y-77691519D01*
X108082919Y-77691519D01*
X108087788Y-77634325D01*
X108104546Y-77575700D01*
X108131322Y-77526043D01*
X108168321Y-77483864D01*
X108213609Y-77450114D01*
X108265706Y-77425583D01*
X108325892Y-77410262D01*
X108395833Y-77404876D01*
X108465551Y-77410158D01*
G37*
G36*
X110108000Y-77592454D02*
G01*
X110019378Y-77600176D01*
X109945896Y-77621879D01*
X109884634Y-77656406D01*
X109833520Y-77704049D01*
X109793855Y-77761890D01*
X109764312Y-77831196D01*
X109745449Y-77914209D01*
X109738705Y-78013700D01*
X109744573Y-78105222D01*
X109761346Y-78185672D01*
X109790063Y-78259157D01*
X109828538Y-78319101D01*
X109878268Y-78368254D01*
X109939326Y-78405563D01*
X110009396Y-78428424D01*
X110094591Y-78436558D01*
X110190286Y-78432674D01*
X110254106Y-78422489D01*
X110254106Y-78005127D01*
X110465572Y-78005127D01*
X110465572Y-78563173D01*
X110414059Y-78578736D01*
X110317780Y-78599590D01*
X110209707Y-78614149D01*
X110077739Y-78619447D01*
X109994577Y-78614779D01*
X109918198Y-78601204D01*
X109847735Y-78579147D01*
X109781217Y-78547833D01*
X109722446Y-78508707D01*
X109670635Y-78461544D01*
X109626346Y-78407142D01*
X109588565Y-78344208D01*
X109557355Y-78271694D01*
X109535559Y-78195633D01*
X109521853Y-78109844D01*
X109517055Y-78012967D01*
X109522328Y-77916329D01*
X109537425Y-77830582D01*
X109561531Y-77754314D01*
X109595462Y-77681944D01*
X109636025Y-77618701D01*
X109683237Y-77563658D01*
X109737654Y-77515784D01*
X109797872Y-77476395D01*
X109864515Y-77445176D01*
X109934906Y-77422914D01*
X110008584Y-77409439D01*
X110086165Y-77404876D01*
X110164559Y-77407737D01*
X110229706Y-77415647D01*
X110338004Y-77439681D01*
X110412742Y-77467817D01*
X110453848Y-77489286D01*
X110390027Y-77662796D01*
X110335921Y-77636531D01*
X110264951Y-77612898D01*
X110188960Y-77597641D01*
X110108000Y-77592454D01*
G37*
G36*
X111390495Y-77719070D02*
G01*
X111292246Y-78050416D01*
X111186815Y-78351691D01*
X111074836Y-78625016D01*
X111039690Y-78697171D01*
X111005959Y-78754122D01*
X110967945Y-78803961D01*
X110927044Y-78843076D01*
X110880914Y-78873486D01*
X110829738Y-78894220D01*
X110773666Y-78905958D01*
X110705467Y-78910193D01*
X110658742Y-78907597D01*
X110612337Y-78899789D01*
X110569244Y-78888171D01*
X110542655Y-78877367D01*
X110579584Y-78713236D01*
X110640331Y-78730962D01*
X110698799Y-78736683D01*
X110750137Y-78732062D01*
X110790455Y-78719359D01*
X110822117Y-78699534D01*
X110861980Y-78655072D01*
X110900226Y-78584715D01*
X110807922Y-78395113D01*
X110716385Y-78182154D01*
X110633856Y-77959625D01*
X110559434Y-77719070D01*
X110776029Y-77719070D01*
X110817135Y-77871771D01*
X110869965Y-78038686D01*
X110930415Y-78207287D01*
X110994235Y-78363285D01*
X111045624Y-78211197D01*
X111094986Y-78045354D01*
X111180642Y-77719070D01*
X111390495Y-77719070D01*
G37*
G36*
X112044968Y-77901959D02*
G01*
X111975286Y-77883494D01*
X111928975Y-77876406D01*
X111872044Y-77873822D01*
X111800676Y-77880637D01*
X111747847Y-77892580D01*
X111747847Y-78596000D01*
X111544661Y-78596000D01*
X111544661Y-77761275D01*
X111607350Y-77740888D01*
X111691573Y-77719803D01*
X111782348Y-77705406D01*
X111887138Y-77700312D01*
X111934106Y-77702657D01*
X111987815Y-77708958D01*
X112039912Y-77718337D01*
X112080212Y-77728449D01*
X112044968Y-77901959D01*
G37*
G36*
X112683513Y-77703986D02*
G01*
X112764214Y-77728376D01*
X112836903Y-77768252D01*
X112897718Y-77821652D01*
X112946514Y-77887338D01*
X112984180Y-77966952D01*
X113007203Y-78054894D01*
X113015247Y-78155849D01*
X113007425Y-78256968D01*
X112984986Y-78345699D01*
X112947957Y-78425970D01*
X112899403Y-78491806D01*
X112838626Y-78545342D01*
X112765900Y-78585888D01*
X112684941Y-78610847D01*
X112593855Y-78619447D01*
X112502881Y-78610828D01*
X112422616Y-78585888D01*
X112350628Y-78545397D01*
X112289993Y-78491806D01*
X112241241Y-78426000D01*
X112203531Y-78345699D01*
X112180487Y-78256931D01*
X112172463Y-78155849D01*
X112380631Y-78155849D01*
X112387652Y-78242202D01*
X112406940Y-78310535D01*
X112436831Y-78364531D01*
X112467841Y-78398174D01*
X112503624Y-78421773D01*
X112545119Y-78436205D01*
X112593855Y-78441247D01*
X112642592Y-78436204D01*
X112684073Y-78421771D01*
X112719830Y-78398172D01*
X112750806Y-78364531D01*
X112780738Y-78310530D01*
X112800050Y-78242196D01*
X112807079Y-78155849D01*
X112800063Y-78070711D01*
X112780767Y-78003234D01*
X112750806Y-77949806D01*
X112719876Y-77916525D01*
X112684137Y-77893144D01*
X112642640Y-77878828D01*
X112593855Y-77873822D01*
X112545070Y-77878827D01*
X112503559Y-77893142D01*
X112467795Y-77916523D01*
X112436831Y-77949806D01*
X112406911Y-78003228D01*
X112387639Y-78070705D01*
X112380631Y-78155849D01*
X112172463Y-78155849D01*
X112180507Y-78054894D01*
X112203531Y-77966952D01*
X112241366Y-77887398D01*
X112290799Y-77821652D01*
X112352190Y-77768156D01*
X112424302Y-77728376D01*
X112504309Y-77704004D01*
X112593855Y-77695623D01*
X112683513Y-77703986D01*
G37*
G36*
X91352417Y-50895225D02*
G01*
X91348458Y-50964952D01*
X91337029Y-51027909D01*
X91315696Y-51085855D01*
X91283174Y-51135437D01*
X91255331Y-51163328D01*
X91221119Y-51187535D01*
X91179615Y-51208039D01*
X91135449Y-51222055D01*
X91081286Y-51231217D01*
X91015239Y-51234539D01*
X90926569Y-51227693D01*
X90855077Y-51208771D01*
X90792077Y-51180473D01*
X90750846Y-51153695D01*
X90813800Y-51015697D01*
X90851252Y-51037888D01*
X90899835Y-51060699D01*
X90951670Y-51076825D01*
X91004065Y-51082131D01*
X91062031Y-51076377D01*
X91104041Y-51061013D01*
X91134125Y-51037496D01*
X91154827Y-51004911D01*
X91169160Y-50955748D01*
X91174730Y-50883867D01*
X91174730Y-50245844D01*
X91352417Y-50245844D01*
X91352417Y-50895225D01*
G37*
G36*
X92134849Y-50496803D02*
G01*
X92129654Y-50546392D01*
X92113844Y-50595478D01*
X92090121Y-50642717D01*
X92059988Y-50689328D01*
X92025147Y-50733763D01*
X91985128Y-50777500D01*
X91901230Y-50860786D01*
X91850794Y-50910795D01*
X91797671Y-50969108D01*
X91754318Y-51025284D01*
X91739579Y-51051842D01*
X91734718Y-51070408D01*
X92165623Y-51070408D01*
X92165623Y-51215000D01*
X91548666Y-51215000D01*
X91547261Y-51187705D01*
X91547261Y-51163220D01*
X91552818Y-51097853D01*
X91568938Y-51039328D01*
X91593973Y-50984485D01*
X91625602Y-50933632D01*
X91662599Y-50886117D01*
X91703943Y-50841247D01*
X91790710Y-50755823D01*
X91855068Y-50692869D01*
X91908924Y-50631931D01*
X91929952Y-50601123D01*
X91945988Y-50570382D01*
X91956497Y-50538252D01*
X91959971Y-50505291D01*
X91954637Y-50458757D01*
X91940321Y-50425384D01*
X91917961Y-50401732D01*
X91888630Y-50384884D01*
X91854951Y-50374517D01*
X91815867Y-50370896D01*
X91777610Y-50373730D01*
X91743083Y-50381948D01*
X91683671Y-50408143D01*
X91638181Y-50439162D01*
X91608811Y-50464685D01*
X91524852Y-50345800D01*
X91588137Y-50296071D01*
X91662605Y-50256407D01*
X91716228Y-50237626D01*
X91772721Y-50226255D01*
X91832659Y-50222397D01*
X91911200Y-50227854D01*
X91973542Y-50242795D01*
X92022788Y-50265687D01*
X92061393Y-50295914D01*
X92092704Y-50334721D01*
X92115493Y-50380197D01*
X92129791Y-50433646D01*
X92134849Y-50496803D01*
G37*
G36*
X103203367Y-56734539D02*
G01*
X103131222Y-56730604D01*
X103066227Y-56719261D01*
X103007485Y-56701017D01*
X102952121Y-56674851D01*
X102903400Y-56642067D01*
X102860634Y-56602465D01*
X102824212Y-56556760D01*
X102793421Y-56504145D01*
X102768310Y-56443768D01*
X102750920Y-56380532D01*
X102739968Y-56309137D01*
X102736131Y-56228468D01*
X102740525Y-56148018D01*
X102753106Y-56076644D01*
X102773195Y-56013168D01*
X102801470Y-55952943D01*
X102835272Y-55900322D01*
X102874616Y-55854532D01*
X102919958Y-55814716D01*
X102970140Y-55781951D01*
X103025681Y-55755980D01*
X103084353Y-55737463D01*
X103146209Y-55726217D01*
X103211794Y-55722397D01*
X103270496Y-55724753D01*
X103320909Y-55731372D01*
X103406272Y-55751400D01*
X103466417Y-55774848D01*
X103500000Y-55792739D01*
X103448221Y-55937452D01*
X103410557Y-55918284D01*
X103352355Y-55897580D01*
X103288432Y-55883561D01*
X103217350Y-55878712D01*
X103155992Y-55884223D01*
X103099808Y-55900389D01*
X103048971Y-55927481D01*
X103005409Y-55965479D01*
X102970546Y-56013312D01*
X102943127Y-56074595D01*
X102926688Y-56143430D01*
X102920778Y-56227063D01*
X102925302Y-56302122D01*
X102938242Y-56368358D01*
X102960858Y-56429153D01*
X102992097Y-56479610D01*
X103033157Y-56521037D01*
X103084421Y-56552334D01*
X103143960Y-56571351D01*
X103218755Y-56578224D01*
X103307937Y-56572969D01*
X103371223Y-56559356D01*
X103426399Y-56539762D01*
X103462204Y-56523635D01*
X103509770Y-56668105D01*
X103464280Y-56690270D01*
X103396441Y-56711702D01*
X103308331Y-56728311D01*
X103203367Y-56734539D01*
G37*
G36*
X104185895Y-56347658D02*
G01*
X104295011Y-56347658D01*
X104295011Y-56484434D01*
X104185895Y-56484434D01*
X104185895Y-56715000D01*
X104020787Y-56715000D01*
X104020787Y-56484434D01*
X103595499Y-56484434D01*
X103595499Y-56365854D01*
X103604426Y-56347658D01*
X103762012Y-56347658D01*
X104020787Y-56347658D01*
X104020787Y-55954672D01*
X103951544Y-56041988D01*
X103882301Y-56139197D01*
X103817943Y-56242695D01*
X103762012Y-56347658D01*
X103604426Y-56347658D01*
X103626701Y-56302253D01*
X103670299Y-56223888D01*
X103774529Y-56059391D01*
X103896284Y-55893489D01*
X103961652Y-55814632D01*
X104025000Y-55745844D01*
X104185895Y-55745844D01*
X104185895Y-56347658D01*
G37*
G36*
X100145564Y-55739872D02*
G01*
X100232685Y-55755685D01*
X100302976Y-55779821D01*
X100359316Y-55811179D01*
X100398867Y-55844728D01*
X100429417Y-55884031D01*
X100451677Y-55929859D01*
X100465638Y-55983468D01*
X100470568Y-56046507D01*
X100464872Y-56110385D01*
X100448678Y-56164700D01*
X100422587Y-56211282D01*
X100386189Y-56251415D01*
X100338102Y-56285715D01*
X100276090Y-56314075D01*
X100336235Y-56392599D01*
X100404806Y-56492800D01*
X100471973Y-56603564D01*
X100529309Y-56715000D01*
X100332022Y-56715000D01*
X100274686Y-56613333D01*
X100212404Y-56513804D01*
X100150122Y-56422702D01*
X100092786Y-56346254D01*
X100059202Y-56347658D01*
X100032641Y-56347658D01*
X99947339Y-56347658D01*
X99947339Y-56715000D01*
X99771057Y-56715000D01*
X99771057Y-55890436D01*
X99947339Y-55890436D01*
X99947339Y-56203066D01*
X100024276Y-56203066D01*
X100086736Y-56201203D01*
X100137543Y-56196106D01*
X100183943Y-56185898D01*
X100219365Y-56171010D01*
X100248470Y-56149525D01*
X100269068Y-56122222D01*
X100281327Y-56088861D01*
X100285860Y-56044125D01*
X100281396Y-56001816D01*
X100269068Y-55968838D01*
X100248710Y-55941383D01*
X100220769Y-55919989D01*
X100187256Y-55904795D01*
X100145970Y-55894221D01*
X100101513Y-55888533D01*
X100050837Y-55886528D01*
X99947339Y-55890436D01*
X99771057Y-55890436D01*
X99771057Y-55757568D01*
X99836617Y-55746133D01*
X99908138Y-55738944D01*
X100038259Y-55734120D01*
X100145564Y-55739872D01*
G37*
G36*
X100881019Y-56734539D02*
G01*
X100803349Y-56729715D01*
X100727756Y-56717381D01*
X100662727Y-56700894D01*
X100617969Y-56683736D01*
X100651552Y-56539145D01*
X100736854Y-56569309D01*
X100796327Y-56581466D01*
X100875340Y-56586039D01*
X100948121Y-56580324D01*
X100999458Y-56565413D01*
X101034831Y-56543541D01*
X101061837Y-56512310D01*
X101078107Y-56475036D01*
X101083801Y-56429846D01*
X101078770Y-56386510D01*
X101064872Y-56353215D01*
X101042664Y-56325627D01*
X101013154Y-56303695D01*
X100978477Y-56287858D01*
X100937622Y-56277194D01*
X100894238Y-56271468D01*
X100847374Y-56269501D01*
X100790038Y-56269501D01*
X100790038Y-56132725D01*
X100860014Y-56132725D01*
X100925043Y-56126435D01*
X100956592Y-56117602D01*
X100984455Y-56104087D01*
X101008595Y-56085382D01*
X101027870Y-56061406D01*
X101040143Y-56032259D01*
X101044661Y-55992834D01*
X101041338Y-55960955D01*
X101032083Y-55935560D01*
X101017456Y-55913722D01*
X100999171Y-55896359D01*
X100977543Y-55883182D01*
X100952338Y-55874010D01*
X100896345Y-55866988D01*
X100835624Y-55872001D01*
X100784421Y-55886161D01*
X100737409Y-55907028D01*
X100697714Y-55929515D01*
X100636165Y-55804462D01*
X100683731Y-55777595D01*
X100745952Y-55750729D01*
X100819408Y-55730212D01*
X100859235Y-55724390D01*
X100901962Y-55722397D01*
X100979967Y-55727632D01*
X101041853Y-55741936D01*
X101096528Y-55766078D01*
X101139061Y-55797135D01*
X101172674Y-55835944D01*
X101196397Y-55880910D01*
X101210476Y-55930708D01*
X101215326Y-55986362D01*
X101211134Y-56029850D01*
X101198817Y-56069598D01*
X101178262Y-56106468D01*
X101151096Y-56139096D01*
X101119319Y-56165959D01*
X101082458Y-56187435D01*
X101130147Y-56209158D01*
X101171629Y-56238400D01*
X101207632Y-56275607D01*
X101234587Y-56319086D01*
X101251382Y-56371062D01*
X101257336Y-56433693D01*
X101251630Y-56496341D01*
X101234926Y-56553372D01*
X101206721Y-56604651D01*
X101166416Y-56648504D01*
X101115577Y-56683389D01*
X101049546Y-56711458D01*
X100975108Y-56728347D01*
X100881019Y-56734539D01*
G37*
G36*
X105203367Y-68234539D02*
G01*
X105131222Y-68230604D01*
X105066227Y-68219261D01*
X105007485Y-68201017D01*
X104952121Y-68174851D01*
X104903400Y-68142067D01*
X104860634Y-68102465D01*
X104824212Y-68056760D01*
X104793421Y-68004145D01*
X104768310Y-67943768D01*
X104750920Y-67880532D01*
X104739968Y-67809137D01*
X104736131Y-67728468D01*
X104740525Y-67648018D01*
X104753106Y-67576644D01*
X104773195Y-67513168D01*
X104801470Y-67452943D01*
X104835272Y-67400322D01*
X104874616Y-67354532D01*
X104919958Y-67314716D01*
X104970140Y-67281951D01*
X105025681Y-67255980D01*
X105084353Y-67237463D01*
X105146209Y-67226217D01*
X105211794Y-67222397D01*
X105270496Y-67224753D01*
X105320909Y-67231372D01*
X105406272Y-67251400D01*
X105466417Y-67274848D01*
X105500000Y-67292739D01*
X105448221Y-67437452D01*
X105410557Y-67418284D01*
X105352355Y-67397580D01*
X105288432Y-67383561D01*
X105217350Y-67378712D01*
X105155992Y-67384223D01*
X105099808Y-67400389D01*
X105048971Y-67427481D01*
X105005409Y-67465479D01*
X104970546Y-67513312D01*
X104943127Y-67574595D01*
X104926688Y-67643430D01*
X104920778Y-67727063D01*
X104925302Y-67802122D01*
X104938242Y-67868358D01*
X104960858Y-67929153D01*
X104992097Y-67979610D01*
X105033157Y-68021037D01*
X105084421Y-68052334D01*
X105143960Y-68071351D01*
X105218755Y-68078224D01*
X105307937Y-68072969D01*
X105371223Y-68059356D01*
X105426399Y-68039762D01*
X105462204Y-68023635D01*
X105509770Y-68168105D01*
X105464280Y-68190270D01*
X105396441Y-68211702D01*
X105308331Y-68228311D01*
X105203367Y-68234539D01*
G37*
G36*
X106222287Y-67496803D02*
G01*
X106217093Y-67546392D01*
X106201283Y-67595478D01*
X106177560Y-67642717D01*
X106147427Y-67689328D01*
X106112586Y-67733763D01*
X106072567Y-67777500D01*
X105988669Y-67860786D01*
X105938233Y-67910795D01*
X105885110Y-67969108D01*
X105841757Y-68025284D01*
X105827017Y-68051842D01*
X105822157Y-68070408D01*
X106253062Y-68070408D01*
X106253062Y-68215000D01*
X105636105Y-68215000D01*
X105634700Y-68187705D01*
X105634700Y-68163220D01*
X105640257Y-68097853D01*
X105656377Y-68039328D01*
X105681411Y-67984485D01*
X105713041Y-67933632D01*
X105750038Y-67886117D01*
X105791382Y-67841247D01*
X105878149Y-67755823D01*
X105942507Y-67692869D01*
X105996363Y-67631931D01*
X106017391Y-67601123D01*
X106033427Y-67570382D01*
X106043936Y-67538252D01*
X106047410Y-67505291D01*
X106042076Y-67458757D01*
X106027760Y-67425384D01*
X106005400Y-67401732D01*
X105976069Y-67384884D01*
X105942389Y-67374517D01*
X105903306Y-67370896D01*
X105865049Y-67373730D01*
X105830522Y-67381948D01*
X105771110Y-67408143D01*
X105725620Y-67439162D01*
X105696249Y-67464685D01*
X105612291Y-67345800D01*
X105675576Y-67296071D01*
X105750044Y-67256407D01*
X105803667Y-67237626D01*
X105860160Y-67226255D01*
X105920098Y-67222397D01*
X105998639Y-67227854D01*
X106060981Y-67242795D01*
X106110227Y-67265687D01*
X106148831Y-67295914D01*
X106180142Y-67334721D01*
X106202932Y-67380197D01*
X106217230Y-67433646D01*
X106222287Y-67496803D01*
G37*
G36*
X112145564Y-59239872D02*
G01*
X112232685Y-59255685D01*
X112302976Y-59279821D01*
X112359316Y-59311179D01*
X112398867Y-59344728D01*
X112429417Y-59384031D01*
X112451677Y-59429859D01*
X112465638Y-59483468D01*
X112470568Y-59546507D01*
X112464872Y-59610385D01*
X112448678Y-59664700D01*
X112422587Y-59711282D01*
X112386189Y-59751415D01*
X112338102Y-59785715D01*
X112276090Y-59814075D01*
X112336235Y-59892599D01*
X112404806Y-59992800D01*
X112471973Y-60103564D01*
X112529309Y-60215000D01*
X112332022Y-60215000D01*
X112274686Y-60113333D01*
X112212404Y-60013804D01*
X112150122Y-59922702D01*
X112092786Y-59846254D01*
X112059202Y-59847658D01*
X112032641Y-59847658D01*
X111947339Y-59847658D01*
X111947339Y-60215000D01*
X111771057Y-60215000D01*
X111771057Y-59390436D01*
X111947339Y-59390436D01*
X111947339Y-59703066D01*
X112024276Y-59703066D01*
X112086736Y-59701203D01*
X112137543Y-59696106D01*
X112183943Y-59685898D01*
X112219365Y-59671010D01*
X112248470Y-59649525D01*
X112269068Y-59622222D01*
X112281327Y-59588861D01*
X112285860Y-59544125D01*
X112281396Y-59501816D01*
X112269068Y-59468838D01*
X112248710Y-59441383D01*
X112220769Y-59419989D01*
X112187256Y-59404795D01*
X112145970Y-59394221D01*
X112101513Y-59388533D01*
X112050837Y-59386528D01*
X111947339Y-59390436D01*
X111771057Y-59390436D01*
X111771057Y-59257568D01*
X111836617Y-59246133D01*
X111908138Y-59238944D01*
X112038259Y-59234120D01*
X112145564Y-59239872D01*
G37*
G36*
X113187360Y-59847658D02*
G01*
X113296476Y-59847658D01*
X113296476Y-59984434D01*
X113187360Y-59984434D01*
X113187360Y-60215000D01*
X113022252Y-60215000D01*
X113022252Y-59984434D01*
X112596964Y-59984434D01*
X112596964Y-59865854D01*
X112605891Y-59847658D01*
X112763477Y-59847658D01*
X113022252Y-59847658D01*
X113022252Y-59454672D01*
X112953009Y-59541988D01*
X112883766Y-59639197D01*
X112819408Y-59742695D01*
X112763477Y-59847658D01*
X112605891Y-59847658D01*
X112628166Y-59802253D01*
X112671764Y-59723888D01*
X112775994Y-59559391D01*
X112897749Y-59393489D01*
X112963117Y-59314632D01*
X113026465Y-59245844D01*
X113187360Y-59245844D01*
X113187360Y-59847658D01*
G37*
G36*
X112145564Y-63239872D02*
G01*
X112232685Y-63255685D01*
X112302976Y-63279821D01*
X112359316Y-63311179D01*
X112398867Y-63344728D01*
X112429417Y-63384031D01*
X112451677Y-63429859D01*
X112465638Y-63483468D01*
X112470568Y-63546507D01*
X112464872Y-63610385D01*
X112448678Y-63664700D01*
X112422587Y-63711282D01*
X112386189Y-63751415D01*
X112338102Y-63785715D01*
X112276090Y-63814075D01*
X112336235Y-63892599D01*
X112404806Y-63992800D01*
X112471973Y-64103564D01*
X112529309Y-64215000D01*
X112332022Y-64215000D01*
X112274686Y-64113333D01*
X112212404Y-64013804D01*
X112150122Y-63922702D01*
X112092786Y-63846254D01*
X112059202Y-63847658D01*
X112032641Y-63847658D01*
X111947339Y-63847658D01*
X111947339Y-64215000D01*
X111771057Y-64215000D01*
X111771057Y-63390436D01*
X111947339Y-63390436D01*
X111947339Y-63703066D01*
X112024276Y-63703066D01*
X112086736Y-63701203D01*
X112137543Y-63696106D01*
X112183943Y-63685898D01*
X112219365Y-63671010D01*
X112248470Y-63649525D01*
X112269068Y-63622222D01*
X112281327Y-63588861D01*
X112285860Y-63544125D01*
X112281396Y-63501816D01*
X112269068Y-63468838D01*
X112248710Y-63441383D01*
X112220769Y-63419989D01*
X112187256Y-63404795D01*
X112145970Y-63394221D01*
X112101513Y-63388533D01*
X112050837Y-63386528D01*
X111947339Y-63390436D01*
X111771057Y-63390436D01*
X111771057Y-63257568D01*
X111836617Y-63246133D01*
X111908138Y-63238944D01*
X112038259Y-63234120D01*
X112145564Y-63239872D01*
G37*
G36*
X113223752Y-63496803D02*
G01*
X113218558Y-63546392D01*
X113202747Y-63595478D01*
X113179025Y-63642717D01*
X113148892Y-63689328D01*
X113114051Y-63733763D01*
X113074032Y-63777500D01*
X112990134Y-63860786D01*
X112939698Y-63910795D01*
X112886575Y-63969108D01*
X112843222Y-64025284D01*
X112828482Y-64051842D01*
X112823622Y-64070408D01*
X113254527Y-64070408D01*
X113254527Y-64215000D01*
X112637570Y-64215000D01*
X112636165Y-64187705D01*
X112636165Y-64163220D01*
X112641722Y-64097853D01*
X112657842Y-64039328D01*
X112682876Y-63984485D01*
X112714506Y-63933632D01*
X112751502Y-63886117D01*
X112792847Y-63841247D01*
X112879614Y-63755823D01*
X112943972Y-63692869D01*
X112997828Y-63631931D01*
X113018856Y-63601123D01*
X113034892Y-63570382D01*
X113045401Y-63538252D01*
X113048874Y-63505291D01*
X113043541Y-63458757D01*
X113029225Y-63425384D01*
X113006865Y-63401732D01*
X112977534Y-63384884D01*
X112943854Y-63374517D01*
X112904771Y-63370896D01*
X112866514Y-63373730D01*
X112831987Y-63381948D01*
X112772575Y-63408143D01*
X112727085Y-63439162D01*
X112697714Y-63464685D01*
X112613756Y-63345800D01*
X112677041Y-63296071D01*
X112751509Y-63256407D01*
X112805132Y-63237626D01*
X112861625Y-63226255D01*
X112921563Y-63222397D01*
X113000104Y-63227854D01*
X113062446Y-63242795D01*
X113111692Y-63265687D01*
X113150296Y-63295914D01*
X113181607Y-63334721D01*
X113204397Y-63380197D01*
X113218695Y-63433646D01*
X113223752Y-63496803D01*
G37*
G36*
X98068762Y-51237484D02*
G01*
X98142681Y-51247217D01*
X98210390Y-51262880D01*
X98275503Y-51286094D01*
X98332805Y-51316017D01*
X98383191Y-51352578D01*
X98427193Y-51396385D01*
X98464190Y-51447512D01*
X98494383Y-51506817D01*
X98515460Y-51570160D01*
X98528846Y-51643668D01*
X98533584Y-51729017D01*
X98528882Y-51812446D01*
X98515531Y-51885078D01*
X98494383Y-51948408D01*
X98464247Y-52007780D01*
X98427254Y-52059398D01*
X98383191Y-52104052D01*
X98332737Y-52141539D01*
X98275214Y-52172416D01*
X98209718Y-52196620D01*
X98141470Y-52213014D01*
X98066872Y-52223201D01*
X97985198Y-52226723D01*
X97852268Y-52222144D01*
X97779193Y-52215075D01*
X97710974Y-52203276D01*
X97710974Y-51390436D01*
X97887256Y-51390436D01*
X97887256Y-52070408D01*
X97927801Y-52073339D01*
X97996372Y-52074316D01*
X98085631Y-52067723D01*
X98157503Y-52049529D01*
X98215276Y-52021340D01*
X98261497Y-51983640D01*
X98298401Y-51935962D01*
X98325573Y-51879059D01*
X98342797Y-51811094D01*
X98348936Y-51729689D01*
X98342849Y-51646571D01*
X98325884Y-51578091D01*
X98299337Y-51521627D01*
X98263573Y-51475127D01*
X98218510Y-51438510D01*
X98161384Y-51410951D01*
X98089448Y-51393048D01*
X97999181Y-51386528D01*
X97887256Y-51390436D01*
X97710974Y-51390436D01*
X97710974Y-51257568D01*
X97779391Y-51245286D01*
X97853673Y-51238272D01*
X97987945Y-51234120D01*
X98068762Y-51237484D01*
G37*
G36*
X99283837Y-51496803D02*
G01*
X99278642Y-51546392D01*
X99262832Y-51595478D01*
X99239110Y-51642717D01*
X99208976Y-51689328D01*
X99174136Y-51733763D01*
X99134116Y-51777500D01*
X99050219Y-51860786D01*
X98999782Y-51910795D01*
X98946660Y-51969108D01*
X98903306Y-52025284D01*
X98888567Y-52051842D01*
X98883706Y-52070408D01*
X99314611Y-52070408D01*
X99314611Y-52215000D01*
X98697654Y-52215000D01*
X98696250Y-52187705D01*
X98696250Y-52163220D01*
X98701806Y-52097853D01*
X98717926Y-52039328D01*
X98742961Y-51984485D01*
X98774591Y-51933632D01*
X98811587Y-51886117D01*
X98852931Y-51841247D01*
X98939699Y-51755823D01*
X99004057Y-51692869D01*
X99057912Y-51631931D01*
X99078941Y-51601123D01*
X99094976Y-51570382D01*
X99105485Y-51538252D01*
X99108959Y-51505291D01*
X99103626Y-51458757D01*
X99089310Y-51425384D01*
X99066949Y-51401732D01*
X99037619Y-51384884D01*
X99003939Y-51374517D01*
X98964856Y-51370896D01*
X98926598Y-51373730D01*
X98892071Y-51381948D01*
X98832659Y-51408143D01*
X98787169Y-51439162D01*
X98757799Y-51464685D01*
X98673840Y-51345800D01*
X98737125Y-51296071D01*
X98811593Y-51256407D01*
X98865217Y-51237626D01*
X98921710Y-51226255D01*
X98981647Y-51222397D01*
X99060188Y-51227854D01*
X99122531Y-51242795D01*
X99171777Y-51265687D01*
X99210381Y-51295914D01*
X99241692Y-51334721D01*
X99264481Y-51380197D01*
X99278780Y-51433646D01*
X99283837Y-51496803D01*
G37*
G36*
X108100602Y-52234539D02*
G01*
X108034767Y-52231062D01*
X107978295Y-52221266D01*
X107929877Y-52205901D01*
X107884299Y-52183822D01*
X107845127Y-52157076D01*
X107811663Y-52125607D01*
X107771147Y-52069785D01*
X107742420Y-52004157D01*
X107725845Y-51932091D01*
X107720072Y-51850528D01*
X107720072Y-51245844D01*
X107897759Y-51245844D01*
X107897759Y-51832821D01*
X107901708Y-51895774D01*
X107912413Y-51945050D01*
X107930808Y-51988372D01*
X107954423Y-52021071D01*
X107984198Y-52046528D01*
X108018781Y-52064302D01*
X108057324Y-52074609D01*
X108102007Y-52078224D01*
X108146778Y-52074623D01*
X108185904Y-52064302D01*
X108221104Y-52046483D01*
X108250995Y-52021071D01*
X108274596Y-51988370D01*
X108292944Y-51945050D01*
X108303694Y-51895771D01*
X108307659Y-51832821D01*
X108307659Y-51245844D01*
X108485346Y-51245844D01*
X108485346Y-51850528D01*
X108479388Y-51932059D01*
X108462265Y-52004157D01*
X108433008Y-52069802D01*
X108392289Y-52125607D01*
X108358810Y-52156989D01*
X108319201Y-52183746D01*
X108272671Y-52205901D01*
X108223377Y-52221303D01*
X108166422Y-52231082D01*
X108100602Y-52234539D01*
G37*
G36*
X109267717Y-51496803D02*
G01*
X109262522Y-51546392D01*
X109246712Y-51595478D01*
X109222990Y-51642717D01*
X109192856Y-51689328D01*
X109158016Y-51733763D01*
X109117996Y-51777500D01*
X109034099Y-51860786D01*
X108983662Y-51910795D01*
X108930540Y-51969108D01*
X108887186Y-52025284D01*
X108872447Y-52051842D01*
X108867586Y-52070408D01*
X109298491Y-52070408D01*
X109298491Y-52215000D01*
X108681534Y-52215000D01*
X108680130Y-52187705D01*
X108680130Y-52163220D01*
X108685686Y-52097853D01*
X108701806Y-52039328D01*
X108726841Y-51984485D01*
X108758470Y-51933632D01*
X108795467Y-51886117D01*
X108836811Y-51841247D01*
X108923579Y-51755823D01*
X108987937Y-51692869D01*
X109041792Y-51631931D01*
X109062821Y-51601123D01*
X109078856Y-51570382D01*
X109089365Y-51538252D01*
X109092839Y-51505291D01*
X109087506Y-51458757D01*
X109073190Y-51425384D01*
X109050829Y-51401732D01*
X109021499Y-51384884D01*
X108987819Y-51374517D01*
X108948736Y-51370896D01*
X108910478Y-51373730D01*
X108875951Y-51381948D01*
X108816539Y-51408143D01*
X108771049Y-51439162D01*
X108741679Y-51464685D01*
X108657720Y-51345800D01*
X108721005Y-51296071D01*
X108795473Y-51256407D01*
X108849097Y-51237626D01*
X108905590Y-51226255D01*
X108965527Y-51222397D01*
X109044068Y-51227854D01*
X109106411Y-51242795D01*
X109155656Y-51265687D01*
X109194261Y-51295914D01*
X109225572Y-51334721D01*
X109248361Y-51380197D01*
X109262660Y-51433646D01*
X109267717Y-51496803D01*
G37*
G36*
X109703367Y-57234539D02*
G01*
X109631222Y-57230604D01*
X109566227Y-57219261D01*
X109507485Y-57201017D01*
X109452121Y-57174851D01*
X109403400Y-57142067D01*
X109360634Y-57102465D01*
X109324212Y-57056760D01*
X109293421Y-57004145D01*
X109268310Y-56943768D01*
X109250920Y-56880532D01*
X109239968Y-56809137D01*
X109236131Y-56728468D01*
X109240525Y-56648018D01*
X109253106Y-56576644D01*
X109273195Y-56513168D01*
X109301470Y-56452943D01*
X109335272Y-56400322D01*
X109374616Y-56354532D01*
X109419958Y-56314716D01*
X109470140Y-56281951D01*
X109525681Y-56255980D01*
X109584353Y-56237463D01*
X109646209Y-56226217D01*
X109711794Y-56222397D01*
X109770496Y-56224753D01*
X109820909Y-56231372D01*
X109906272Y-56251400D01*
X109966417Y-56274848D01*
X110000000Y-56292739D01*
X109948221Y-56437452D01*
X109910557Y-56418284D01*
X109852355Y-56397580D01*
X109788432Y-56383561D01*
X109717350Y-56378712D01*
X109655992Y-56384223D01*
X109599808Y-56400389D01*
X109548971Y-56427481D01*
X109505409Y-56465479D01*
X109470546Y-56513312D01*
X109443127Y-56574595D01*
X109426688Y-56643430D01*
X109420778Y-56727063D01*
X109425302Y-56802122D01*
X109438242Y-56868358D01*
X109460858Y-56929153D01*
X109492097Y-56979610D01*
X109533157Y-57021037D01*
X109584421Y-57052334D01*
X109643960Y-57071351D01*
X109718755Y-57078224D01*
X109807937Y-57072969D01*
X109871223Y-57059356D01*
X109926399Y-57039762D01*
X109962204Y-57023635D01*
X110009770Y-57168105D01*
X109964280Y-57190270D01*
X109896441Y-57211702D01*
X109808331Y-57228311D01*
X109703367Y-57234539D01*
G37*
G36*
X110379554Y-57234539D02*
G01*
X110301884Y-57229715D01*
X110226291Y-57217381D01*
X110161262Y-57200894D01*
X110116504Y-57183736D01*
X110150088Y-57039145D01*
X110235389Y-57069309D01*
X110294863Y-57081466D01*
X110373875Y-57086039D01*
X110446656Y-57080324D01*
X110497993Y-57065413D01*
X110533366Y-57043541D01*
X110560372Y-57012310D01*
X110576642Y-56975036D01*
X110582336Y-56929846D01*
X110577305Y-56886510D01*
X110563407Y-56853215D01*
X110541199Y-56825627D01*
X110511689Y-56803695D01*
X110477012Y-56787858D01*
X110436157Y-56777194D01*
X110392774Y-56771468D01*
X110345909Y-56769501D01*
X110288573Y-56769501D01*
X110288573Y-56632725D01*
X110358549Y-56632725D01*
X110423578Y-56626435D01*
X110455127Y-56617602D01*
X110482991Y-56604087D01*
X110507130Y-56585382D01*
X110526405Y-56561406D01*
X110538679Y-56532259D01*
X110543196Y-56492834D01*
X110539873Y-56460955D01*
X110530618Y-56435560D01*
X110515991Y-56413722D01*
X110497706Y-56396359D01*
X110476079Y-56383182D01*
X110450873Y-56374010D01*
X110394880Y-56366988D01*
X110334159Y-56372001D01*
X110282956Y-56386161D01*
X110235944Y-56407028D01*
X110196249Y-56429515D01*
X110134700Y-56304462D01*
X110182267Y-56277595D01*
X110244487Y-56250729D01*
X110317943Y-56230212D01*
X110357770Y-56224390D01*
X110400498Y-56222397D01*
X110478502Y-56227632D01*
X110540388Y-56241936D01*
X110595063Y-56266078D01*
X110637596Y-56297135D01*
X110671210Y-56335944D01*
X110694932Y-56380910D01*
X110709011Y-56430708D01*
X110713861Y-56486362D01*
X110709669Y-56529850D01*
X110697352Y-56569598D01*
X110676797Y-56606468D01*
X110649631Y-56639096D01*
X110617854Y-56665959D01*
X110580993Y-56687435D01*
X110628682Y-56709158D01*
X110670164Y-56738400D01*
X110706167Y-56775607D01*
X110733122Y-56819086D01*
X110749917Y-56871062D01*
X110755871Y-56933693D01*
X110750165Y-56996341D01*
X110733462Y-57053372D01*
X110705256Y-57104651D01*
X110664951Y-57148504D01*
X110614112Y-57183389D01*
X110548081Y-57211458D01*
X110473643Y-57228347D01*
X110379554Y-57234539D01*
G37*
G36*
X100703367Y-59234539D02*
G01*
X100631222Y-59230604D01*
X100566227Y-59219261D01*
X100507485Y-59201017D01*
X100452121Y-59174851D01*
X100403400Y-59142067D01*
X100360634Y-59102465D01*
X100324212Y-59056760D01*
X100293421Y-59004145D01*
X100268310Y-58943768D01*
X100250920Y-58880532D01*
X100239968Y-58809137D01*
X100236131Y-58728468D01*
X100240525Y-58648018D01*
X100253106Y-58576644D01*
X100273195Y-58513168D01*
X100301470Y-58452943D01*
X100335272Y-58400322D01*
X100374616Y-58354532D01*
X100419958Y-58314716D01*
X100470140Y-58281951D01*
X100525681Y-58255980D01*
X100584353Y-58237463D01*
X100646209Y-58226217D01*
X100711794Y-58222397D01*
X100770496Y-58224753D01*
X100820909Y-58231372D01*
X100906272Y-58251400D01*
X100966417Y-58274848D01*
X101000000Y-58292739D01*
X100948221Y-58437452D01*
X100910557Y-58418284D01*
X100852355Y-58397580D01*
X100788432Y-58383561D01*
X100717350Y-58378712D01*
X100655992Y-58384223D01*
X100599808Y-58400389D01*
X100548971Y-58427481D01*
X100505409Y-58465479D01*
X100470546Y-58513312D01*
X100443127Y-58574595D01*
X100426688Y-58643430D01*
X100420778Y-58727063D01*
X100425302Y-58802122D01*
X100438242Y-58868358D01*
X100460858Y-58929153D01*
X100492097Y-58979610D01*
X100533157Y-59021037D01*
X100584421Y-59052334D01*
X100643960Y-59071351D01*
X100718755Y-59078224D01*
X100807937Y-59072969D01*
X100871223Y-59059356D01*
X100926399Y-59039762D01*
X100962204Y-59023635D01*
X101009770Y-59168105D01*
X100964280Y-59190270D01*
X100896441Y-59211702D01*
X100808331Y-59228311D01*
X100703367Y-59234539D01*
G37*
G36*
X101175245Y-58447222D02*
G01*
X101255588Y-58411002D01*
X101338216Y-58364729D01*
X101415651Y-58309586D01*
X101483052Y-58245844D01*
X101601937Y-58245844D01*
X101601937Y-59215000D01*
X101432676Y-59215000D01*
X101432676Y-58472379D01*
X101391797Y-58500307D01*
X101337544Y-58529715D01*
X101280331Y-58555620D01*
X101227024Y-58575877D01*
X101175245Y-58447222D01*
G37*
G36*
X112145564Y-68739872D02*
G01*
X112232685Y-68755685D01*
X112302976Y-68779821D01*
X112359316Y-68811179D01*
X112398867Y-68844728D01*
X112429417Y-68884031D01*
X112451677Y-68929859D01*
X112465638Y-68983468D01*
X112470568Y-69046507D01*
X112464872Y-69110385D01*
X112448678Y-69164700D01*
X112422587Y-69211282D01*
X112386189Y-69251415D01*
X112338102Y-69285715D01*
X112276090Y-69314075D01*
X112336235Y-69392599D01*
X112404806Y-69492800D01*
X112471973Y-69603564D01*
X112529309Y-69715000D01*
X112332022Y-69715000D01*
X112274686Y-69613333D01*
X112212404Y-69513804D01*
X112150122Y-69422702D01*
X112092786Y-69346254D01*
X112059202Y-69347658D01*
X112032641Y-69347658D01*
X111947339Y-69347658D01*
X111947339Y-69715000D01*
X111771057Y-69715000D01*
X111771057Y-68890436D01*
X111947339Y-68890436D01*
X111947339Y-69203066D01*
X112024276Y-69203066D01*
X112086736Y-69201203D01*
X112137543Y-69196106D01*
X112183943Y-69185898D01*
X112219365Y-69171010D01*
X112248470Y-69149525D01*
X112269068Y-69122222D01*
X112281327Y-69088861D01*
X112285860Y-69044125D01*
X112281396Y-69001816D01*
X112269068Y-68968838D01*
X112248710Y-68941383D01*
X112220769Y-68919989D01*
X112187256Y-68904795D01*
X112145970Y-68894221D01*
X112101513Y-68888533D01*
X112050837Y-68886528D01*
X111947339Y-68890436D01*
X111771057Y-68890436D01*
X111771057Y-68757568D01*
X111836617Y-68746133D01*
X111908138Y-68738944D01*
X112038259Y-68734120D01*
X112145564Y-68739872D01*
G37*
G36*
X112676709Y-68947222D02*
G01*
X112757053Y-68911002D01*
X112839680Y-68864729D01*
X112917115Y-68809586D01*
X112984516Y-68745844D01*
X113103402Y-68745844D01*
X113103402Y-69715000D01*
X112934141Y-69715000D01*
X112934141Y-68972379D01*
X112893262Y-69000307D01*
X112839009Y-69029715D01*
X112781796Y-69055620D01*
X112728489Y-69075877D01*
X112676709Y-68947222D01*
G37*
G36*
X118352417Y-50895225D02*
G01*
X118348458Y-50964952D01*
X118337029Y-51027909D01*
X118315696Y-51085855D01*
X118283174Y-51135437D01*
X118255331Y-51163328D01*
X118221119Y-51187535D01*
X118179615Y-51208039D01*
X118135449Y-51222055D01*
X118081286Y-51231217D01*
X118015239Y-51234539D01*
X117926569Y-51227693D01*
X117855077Y-51208771D01*
X117792077Y-51180473D01*
X117750846Y-51153695D01*
X117813800Y-51015697D01*
X117851252Y-51037888D01*
X117899835Y-51060699D01*
X117951670Y-51076825D01*
X118004065Y-51082131D01*
X118062031Y-51076377D01*
X118104041Y-51061013D01*
X118134125Y-51037496D01*
X118154827Y-51004911D01*
X118169160Y-50955748D01*
X118174730Y-50883867D01*
X118174730Y-50245844D01*
X118352417Y-50245844D01*
X118352417Y-50895225D01*
G37*
G36*
X118587806Y-50447222D02*
G01*
X118668149Y-50411002D01*
X118750777Y-50364729D01*
X118828212Y-50309586D01*
X118895613Y-50245844D01*
X119014498Y-50245844D01*
X119014498Y-51215000D01*
X118845238Y-51215000D01*
X118845238Y-50472379D01*
X118804358Y-50500307D01*
X118750105Y-50529715D01*
X118692892Y-50555620D01*
X118639585Y-50575877D01*
X118587806Y-50447222D01*
G37*
G36*
X108100602Y-63234539D02*
G01*
X108034767Y-63231062D01*
X107978295Y-63221266D01*
X107929877Y-63205901D01*
X107884299Y-63183822D01*
X107845127Y-63157076D01*
X107811663Y-63125607D01*
X107771147Y-63069785D01*
X107742420Y-63004157D01*
X107725845Y-62932091D01*
X107720072Y-62850528D01*
X107720072Y-62245844D01*
X107897759Y-62245844D01*
X107897759Y-62832821D01*
X107901708Y-62895774D01*
X107912413Y-62945050D01*
X107930808Y-62988372D01*
X107954423Y-63021071D01*
X107984198Y-63046528D01*
X108018781Y-63064302D01*
X108057324Y-63074609D01*
X108102007Y-63078224D01*
X108146778Y-63074623D01*
X108185904Y-63064302D01*
X108221104Y-63046483D01*
X108250995Y-63021071D01*
X108274596Y-62988370D01*
X108292944Y-62945050D01*
X108303694Y-62895771D01*
X108307659Y-62832821D01*
X108307659Y-62245844D01*
X108485346Y-62245844D01*
X108485346Y-62850528D01*
X108479388Y-62932059D01*
X108462265Y-63004157D01*
X108433008Y-63069802D01*
X108392289Y-63125607D01*
X108358810Y-63156989D01*
X108319201Y-63183746D01*
X108272671Y-63205901D01*
X108223377Y-63221303D01*
X108166422Y-63231082D01*
X108100602Y-63234539D01*
G37*
G36*
X108720674Y-62447222D02*
G01*
X108801017Y-62411002D01*
X108883645Y-62364729D01*
X108961080Y-62309586D01*
X109028481Y-62245844D01*
X109147366Y-62245844D01*
X109147366Y-63215000D01*
X108978106Y-63215000D01*
X108978106Y-62472379D01*
X108937227Y-62500307D01*
X108882973Y-62529715D01*
X108825760Y-62555620D01*
X108772453Y-62575877D01*
X108720674Y-62447222D01*
G37*
%TO.C,J2*%
D12*
X91620000Y-51682500D02*
X93000000Y-51682500D01*
X91620000Y-53062500D02*
X91620000Y-51682500D01*
X91620000Y-54332500D02*
X91620000Y-72222500D01*
X91620000Y-54332500D02*
X94380000Y-54332500D01*
X91620000Y-72222500D02*
X94380000Y-72222500D01*
X94380000Y-54332500D02*
X94380000Y-72222500D01*
%TO.C,C4*%
X102990000Y-54028080D02*
X102990000Y-53746920D01*
X104010000Y-54028080D02*
X104010000Y-53746920D01*
%TO.C,R3*%
X99977500Y-53625242D02*
X99977500Y-54099758D01*
X101022500Y-53625242D02*
X101022500Y-54099758D01*
%TO.C,C2*%
X105540000Y-65414664D02*
X105540000Y-65630336D01*
X106260000Y-65414664D02*
X106260000Y-65630336D01*
%TO.C,R4*%
X109762742Y-59277500D02*
X110237258Y-59277500D01*
X109762742Y-60322500D02*
X110237258Y-60322500D01*
%TO.C,R2*%
X110477500Y-65124758D02*
X110477500Y-64650242D01*
X111522500Y-65124758D02*
X111522500Y-64650242D01*
%TO.C,D2*%
X97765000Y-53025000D02*
X97765000Y-55310000D01*
X97765000Y-55310000D02*
X99235000Y-55310000D01*
X99235000Y-55310000D02*
X99235000Y-53025000D01*
%TO.C,U2*%
X106177500Y-52452500D02*
X107697500Y-52452500D01*
X106177500Y-52502500D02*
X106177500Y-52452500D01*
X106177500Y-54402500D02*
X106177500Y-53622500D01*
X106177500Y-55572500D02*
X106177500Y-55522500D01*
X107697500Y-52452500D02*
X107697500Y-53452500D01*
X107697500Y-54572500D02*
X107697500Y-55572500D01*
X107697500Y-55572500D02*
X106177500Y-55572500D01*
X105877500Y-53962500D02*
X105397500Y-53962500D01*
X105637500Y-53632500D01*
X105877500Y-53962500D01*
G36*
X105877500Y-53962500D02*
G01*
X105397500Y-53962500D01*
X105637500Y-53632500D01*
X105877500Y-53962500D01*
G37*
%TO.C,C3*%
X109427500Y-54646920D02*
X109427500Y-54928080D01*
X110447500Y-54646920D02*
X110447500Y-54928080D01*
%TO.C,C1*%
X103587836Y-58440000D02*
X103372164Y-58440000D01*
X103587836Y-59160000D02*
X103372164Y-59160000D01*
D13*
%TO.C,G\u002A\u002A\u002A*%
G36*
X105039325Y-73686173D02*
G01*
X105039192Y-73736257D01*
X104914318Y-73865260D01*
X104789444Y-73994263D01*
X104920522Y-73994263D01*
X105051601Y-73994263D01*
X105051601Y-74048900D01*
X105051601Y-74103537D01*
X104833054Y-74103537D01*
X104614507Y-74103537D01*
X104614507Y-74050847D01*
X104614507Y-73998158D01*
X104737439Y-73873278D01*
X104860372Y-73748398D01*
X104749581Y-73746744D01*
X104638790Y-73745089D01*
X104638790Y-73690589D01*
X104638790Y-73636089D01*
X104839124Y-73636089D01*
X105039459Y-73636089D01*
X105039325Y-73686173D01*
G37*
G36*
X105950012Y-73637334D02*
G01*
X105954416Y-73637426D01*
X106031611Y-73639125D01*
X106077349Y-73713255D01*
X106093845Y-73739668D01*
X106108149Y-73761962D01*
X106119046Y-73778292D01*
X106125324Y-73786813D01*
X106126259Y-73787622D01*
X106130403Y-73782830D01*
X106139652Y-73769493D01*
X106152793Y-73749437D01*
X106168616Y-73724486D01*
X106175457Y-73713491D01*
X106221484Y-73639125D01*
X106298254Y-73637426D01*
X106327174Y-73637029D01*
X106351114Y-73637163D01*
X106367790Y-73637781D01*
X106374917Y-73638836D01*
X106375023Y-73639006D01*
X106371789Y-73644733D01*
X106362679Y-73659180D01*
X106348580Y-73680983D01*
X106330380Y-73708779D01*
X106308965Y-73741205D01*
X106286997Y-73774240D01*
X106198971Y-73906194D01*
X106198971Y-74004866D01*
X106198971Y-74103537D01*
X106126123Y-74103537D01*
X106053274Y-74103537D01*
X106053274Y-74004866D01*
X106053274Y-73906194D01*
X105965248Y-73774240D01*
X105941645Y-73738738D01*
X105920433Y-73706601D01*
X105902499Y-73679192D01*
X105888731Y-73657875D01*
X105880015Y-73644012D01*
X105877222Y-73639006D01*
X105882910Y-73637899D01*
X105898456Y-73637220D01*
X105921583Y-73637016D01*
X105950012Y-73637334D01*
G37*
G36*
X104803221Y-72248924D02*
G01*
X104819570Y-72274422D01*
X104833741Y-72295747D01*
X104844449Y-72311019D01*
X104850405Y-72318359D01*
X104851036Y-72318738D01*
X104855329Y-72313800D01*
X104864445Y-72300277D01*
X104877141Y-72280099D01*
X104892176Y-72255201D01*
X104895884Y-72248924D01*
X104936965Y-72179110D01*
X105012241Y-72179110D01*
X105087518Y-72179110D01*
X105015022Y-72292160D01*
X104994140Y-72325302D01*
X104975989Y-72355225D01*
X104961454Y-72380374D01*
X104951424Y-72399194D01*
X104946785Y-72410127D01*
X104946691Y-72412058D01*
X104951106Y-72418945D01*
X104961162Y-72434435D01*
X104975846Y-72456974D01*
X104994145Y-72485010D01*
X105015046Y-72516988D01*
X105025346Y-72532731D01*
X105099837Y-72646558D01*
X105024187Y-72646558D01*
X104948538Y-72646558D01*
X104898337Y-72571393D01*
X104848136Y-72496229D01*
X104798076Y-72571393D01*
X104748017Y-72646558D01*
X104672381Y-72646558D01*
X104596745Y-72646558D01*
X104672960Y-72530261D01*
X104694918Y-72496633D01*
X104714636Y-72466200D01*
X104731134Y-72440496D01*
X104743431Y-72421052D01*
X104750546Y-72409404D01*
X104751879Y-72406920D01*
X104749462Y-72399999D01*
X104741184Y-72384579D01*
X104727978Y-72362223D01*
X104710779Y-72334494D01*
X104690522Y-72302954D01*
X104681687Y-72289493D01*
X104608793Y-72179110D01*
X104683984Y-72179110D01*
X104759175Y-72179110D01*
X104803221Y-72248924D01*
G37*
G36*
X103787649Y-72158140D02*
G01*
X103816243Y-72168288D01*
X103839081Y-72185165D01*
X103847342Y-72195883D01*
X103852544Y-72203997D01*
X103863806Y-72221232D01*
X103880474Y-72246593D01*
X103901890Y-72279086D01*
X103927399Y-72317718D01*
X103956344Y-72361493D01*
X103988070Y-72409419D01*
X104021920Y-72460502D01*
X104039685Y-72487290D01*
X104079436Y-72547265D01*
X104112980Y-72598028D01*
X104140850Y-72640467D01*
X104163580Y-72675467D01*
X104181706Y-72703914D01*
X104195761Y-72726694D01*
X104206279Y-72744695D01*
X104213795Y-72758802D01*
X104218843Y-72769901D01*
X104221957Y-72778878D01*
X104223672Y-72786621D01*
X104224510Y-72793863D01*
X104224948Y-72815899D01*
X104221056Y-72832129D01*
X104212716Y-72846748D01*
X104189106Y-72872756D01*
X104161200Y-72889364D01*
X104131154Y-72896004D01*
X104101119Y-72892110D01*
X104079661Y-72881780D01*
X104068545Y-72871241D01*
X104051407Y-72850440D01*
X104028393Y-72819573D01*
X103999651Y-72778837D01*
X103965325Y-72728428D01*
X103963419Y-72725589D01*
X103867805Y-72583077D01*
X103867802Y-72865236D01*
X103867754Y-72914901D01*
X103867617Y-72975214D01*
X103867397Y-73044679D01*
X103867102Y-73121803D01*
X103866738Y-73205091D01*
X103866314Y-73293050D01*
X103865835Y-73384184D01*
X103865309Y-73477001D01*
X103864743Y-73570005D01*
X103864145Y-73661703D01*
X103863761Y-73717121D01*
X103863078Y-73813049D01*
X103862457Y-73897584D01*
X103861878Y-73971474D01*
X103861320Y-74035466D01*
X103860760Y-74090309D01*
X103860177Y-74136750D01*
X103859550Y-74175536D01*
X103858858Y-74207417D01*
X103858079Y-74233140D01*
X103857192Y-74253453D01*
X103856176Y-74269103D01*
X103855008Y-74280839D01*
X103853668Y-74289409D01*
X103852135Y-74295559D01*
X103850386Y-74300039D01*
X103848400Y-74303597D01*
X103846925Y-74305839D01*
X103824180Y-74330602D01*
X103796676Y-74346484D01*
X103766889Y-74352863D01*
X103737299Y-74349114D01*
X103715975Y-74338778D01*
X103698935Y-74324905D01*
X103684272Y-74309378D01*
X103683206Y-74307980D01*
X103670506Y-74290841D01*
X103668926Y-73433908D01*
X103667346Y-72576975D01*
X103578644Y-72710416D01*
X103554050Y-72747162D01*
X103530835Y-72781374D01*
X103510084Y-72811489D01*
X103492882Y-72835944D01*
X103480316Y-72853178D01*
X103473986Y-72861094D01*
X103446232Y-72883389D01*
X103415910Y-72894488D01*
X103384853Y-72894511D01*
X103354894Y-72883575D01*
X103327867Y-72861802D01*
X103318961Y-72851000D01*
X103310551Y-72835052D01*
X103306762Y-72814176D01*
X103306261Y-72798612D01*
X103306261Y-72763363D01*
X103500525Y-72472991D01*
X103536526Y-72419393D01*
X103570923Y-72368596D01*
X103603059Y-72321544D01*
X103632275Y-72279179D01*
X103657915Y-72242444D01*
X103679322Y-72212283D01*
X103695838Y-72189639D01*
X103706806Y-72175455D01*
X103711031Y-72170911D01*
X103727071Y-72163201D01*
X103748357Y-72157557D01*
X103757009Y-72156346D01*
X103787649Y-72158140D01*
G37*
G36*
X103820334Y-74527216D02*
G01*
X103828345Y-74528346D01*
X103901123Y-74545077D01*
X103968486Y-74571972D01*
X104029676Y-74608105D01*
X104083933Y-74652549D01*
X104130498Y-74704378D01*
X104168610Y-74762667D01*
X104197511Y-74826488D01*
X104216441Y-74894916D01*
X104224639Y-74967024D01*
X104224131Y-75011003D01*
X104214040Y-75084984D01*
X104192994Y-75154611D01*
X104161666Y-75219020D01*
X104120730Y-75277349D01*
X104070860Y-75328735D01*
X104012727Y-75372317D01*
X103947007Y-75407232D01*
X103901194Y-75424656D01*
X103861837Y-75434345D01*
X103815578Y-75440772D01*
X103766724Y-75443719D01*
X103719581Y-75442964D01*
X103678457Y-75438287D01*
X103669688Y-75436495D01*
X103599285Y-75414698D01*
X103535137Y-75383451D01*
X103477758Y-75343812D01*
X103427663Y-75296842D01*
X103385367Y-75243601D01*
X103377021Y-75229246D01*
X103655927Y-75229246D01*
X103663056Y-75232399D01*
X103678205Y-75237291D01*
X103692079Y-75241221D01*
X103744316Y-75249606D01*
X103798727Y-75248199D01*
X103846862Y-75238231D01*
X103887904Y-75225554D01*
X103829289Y-75166939D01*
X103770673Y-75108323D01*
X103711756Y-75167240D01*
X103690596Y-75188823D01*
X103673264Y-75207315D01*
X103661230Y-75221085D01*
X103655962Y-75228499D01*
X103655927Y-75229246D01*
X103377021Y-75229246D01*
X103351385Y-75185149D01*
X103326230Y-75122545D01*
X103310417Y-75056849D01*
X103304462Y-74989121D01*
X103305143Y-74978523D01*
X103500426Y-74978523D01*
X103502723Y-75021765D01*
X103510152Y-75061293D01*
X103515359Y-75077134D01*
X103529285Y-75112801D01*
X103590714Y-75051372D01*
X103652143Y-74989943D01*
X103651986Y-74989785D01*
X103889212Y-74989785D01*
X103946804Y-75047684D01*
X104004397Y-75105584D01*
X104011644Y-75088702D01*
X104017090Y-75072992D01*
X104023030Y-75051428D01*
X104026057Y-75038432D01*
X104030014Y-75006854D01*
X104030156Y-74970906D01*
X104026791Y-74935367D01*
X104020226Y-74905013D01*
X104016875Y-74895638D01*
X104006998Y-74871999D01*
X103948105Y-74930892D01*
X103889212Y-74989785D01*
X103651986Y-74989785D01*
X103591625Y-74929197D01*
X103569606Y-74907377D01*
X103550561Y-74889033D01*
X103536139Y-74875714D01*
X103527992Y-74868971D01*
X103526927Y-74868451D01*
X103522816Y-74873684D01*
X103516591Y-74887185D01*
X103511637Y-74900322D01*
X103503363Y-74936424D01*
X103500426Y-74978523D01*
X103305143Y-74978523D01*
X103308877Y-74920422D01*
X103324179Y-74851810D01*
X103350882Y-74784345D01*
X103351984Y-74782109D01*
X103370527Y-74751132D01*
X103656453Y-74751132D01*
X103664736Y-74763771D01*
X103681503Y-74782022D01*
X103706711Y-74807459D01*
X103706816Y-74807566D01*
X103728765Y-74829400D01*
X103747642Y-74847766D01*
X103761827Y-74861117D01*
X103769699Y-74867909D01*
X103770673Y-74868451D01*
X103775903Y-74864383D01*
X103788016Y-74853218D01*
X103805377Y-74836509D01*
X103826351Y-74815814D01*
X103833718Y-74808444D01*
X103893500Y-74748437D01*
X103860234Y-74735990D01*
X103806256Y-74721528D01*
X103752447Y-74718939D01*
X103708969Y-74725202D01*
X103682910Y-74731139D01*
X103665499Y-74736390D01*
X103656693Y-74742530D01*
X103656453Y-74751132D01*
X103370527Y-74751132D01*
X103389415Y-74719577D01*
X103435356Y-74664488D01*
X103488569Y-74617501D01*
X103547814Y-74579278D01*
X103611852Y-74550478D01*
X103679444Y-74531761D01*
X103749351Y-74523787D01*
X103820334Y-74527216D01*
G37*
G36*
X105966477Y-74524477D02*
G01*
X105976624Y-74528700D01*
X105995596Y-74539126D01*
X106022266Y-74555002D01*
X106055509Y-74575576D01*
X106094196Y-74600094D01*
X106137204Y-74627804D01*
X106183404Y-74657952D01*
X106231671Y-74689785D01*
X106280878Y-74722551D01*
X106329900Y-74755495D01*
X106377609Y-74787866D01*
X106422880Y-74818910D01*
X106464586Y-74847874D01*
X106501600Y-74874005D01*
X106532797Y-74896550D01*
X106557051Y-74914756D01*
X106573234Y-74927870D01*
X106579911Y-74934609D01*
X106591722Y-74962703D01*
X106593608Y-74993490D01*
X106586234Y-75023727D01*
X106570268Y-75050170D01*
X106552999Y-75065599D01*
X106543574Y-75071868D01*
X106525060Y-75084156D01*
X106498489Y-75101779D01*
X106464894Y-75124050D01*
X106425309Y-75150285D01*
X106380768Y-75179800D01*
X106332303Y-75211909D01*
X106280947Y-75245929D01*
X106258223Y-75260980D01*
X106198281Y-75300637D01*
X106147550Y-75334072D01*
X106105151Y-75361817D01*
X106070207Y-75384406D01*
X106041838Y-75402369D01*
X106019167Y-75416240D01*
X106001315Y-75426550D01*
X105987404Y-75433834D01*
X105976554Y-75438621D01*
X105967889Y-75441446D01*
X105960529Y-75442841D01*
X105957721Y-75443120D01*
X105934363Y-75442632D01*
X105913776Y-75438346D01*
X105910310Y-75436969D01*
X105883904Y-75418943D01*
X105865359Y-75393965D01*
X105855423Y-75364733D01*
X105854845Y-75333945D01*
X105864376Y-75304298D01*
X105870639Y-75294122D01*
X105878679Y-75286498D01*
X105895451Y-75273286D01*
X105919515Y-75255529D01*
X105949429Y-75234265D01*
X105983753Y-75210537D01*
X106021047Y-75185383D01*
X106023361Y-75183842D01*
X106164355Y-75090033D01*
X105500222Y-75085731D01*
X105368304Y-75084880D01*
X105247987Y-75084107D01*
X105138729Y-75083400D01*
X105039990Y-75082750D01*
X104951228Y-75082146D01*
X104871903Y-75081579D01*
X104801474Y-75081036D01*
X104739400Y-75080509D01*
X104685140Y-75079986D01*
X104638153Y-75079457D01*
X104597898Y-75078913D01*
X104563835Y-75078341D01*
X104535422Y-75077733D01*
X104512119Y-75077078D01*
X104493385Y-75076365D01*
X104478678Y-75075583D01*
X104467459Y-75074724D01*
X104459185Y-75073775D01*
X104453317Y-75072727D01*
X104449313Y-75071570D01*
X104446633Y-75070292D01*
X104444735Y-75068884D01*
X104443078Y-75067335D01*
X104441123Y-75065635D01*
X104440782Y-75065375D01*
X104415631Y-75041027D01*
X104401473Y-75013175D01*
X104397936Y-74995112D01*
X104400325Y-74962701D01*
X104413404Y-74933235D01*
X104435727Y-74909328D01*
X104450597Y-74899916D01*
X104477915Y-74885850D01*
X105325999Y-74887774D01*
X105426333Y-74887968D01*
X105523220Y-74888087D01*
X105615978Y-74888135D01*
X105703924Y-74888115D01*
X105786376Y-74888027D01*
X105862651Y-74887876D01*
X105932068Y-74887663D01*
X105993944Y-74887390D01*
X106047596Y-74887061D01*
X106092342Y-74886677D01*
X106127500Y-74886240D01*
X106152388Y-74885755D01*
X106166322Y-74885222D01*
X106169180Y-74884797D01*
X106163040Y-74880253D01*
X106148145Y-74869864D01*
X106125828Y-74854541D01*
X106097424Y-74835195D01*
X106064265Y-74812737D01*
X106027684Y-74788078D01*
X106022556Y-74784630D01*
X105985045Y-74759108D01*
X105950364Y-74734929D01*
X105919952Y-74713143D01*
X105895247Y-74694798D01*
X105877689Y-74680944D01*
X105868715Y-74672629D01*
X105868404Y-74672224D01*
X105858016Y-74648713D01*
X105855049Y-74620200D01*
X105859330Y-74591157D01*
X105870689Y-74566059D01*
X105872564Y-74563465D01*
X105894900Y-74542811D01*
X105923263Y-74528907D01*
X105953299Y-74523563D01*
X105966477Y-74524477D01*
G37*
%TO.C,R1*%
D12*
X110477500Y-67825242D02*
X110477500Y-68299758D01*
X111522500Y-67825242D02*
X111522500Y-68299758D01*
%TO.C,J1*%
X114620000Y-51715000D02*
X116000000Y-51715000D01*
X114620000Y-53095000D02*
X114620000Y-51715000D01*
X114620000Y-54365000D02*
X114620000Y-72255000D01*
X114620000Y-54365000D02*
X117380000Y-54365000D01*
X114620000Y-72255000D02*
X117380000Y-72255000D01*
X117380000Y-54365000D02*
X117380000Y-72255000D01*
%TO.C,U1*%
X102640000Y-60452500D02*
X103115000Y-60452500D01*
X102640000Y-61677500D02*
X102640000Y-60452500D01*
X102640000Y-63672500D02*
X102640000Y-62447500D01*
X103115000Y-63672500D02*
X102640000Y-63672500D01*
X106885000Y-60452500D02*
X107360000Y-60452500D01*
X107360000Y-60452500D02*
X107360000Y-61677500D01*
X107360000Y-62447500D02*
X107360000Y-63672500D01*
X107360000Y-63672500D02*
X106885000Y-63672500D01*
X103500000Y-60202500D02*
X103260000Y-59872500D01*
X103740000Y-59872500D01*
X103500000Y-60202500D01*
G36*
X103500000Y-60202500D02*
G01*
X103260000Y-59872500D01*
X103740000Y-59872500D01*
X103500000Y-60202500D01*
G37*
%TD*%
M02*
